<svg width="34" height="33" viewBox="0 0 34 33" fill="none" xmlns="http://www.w3.org/2000/svg">
<path d="M33.2974 0H0.662887C0.657603 0 0.65332 0.00428307 0.65332 0.0095665V32.6441C0.65332 32.6494 0.657603 32.6537 0.662887 32.6537H33.2974C33.3027 32.6537 33.307 32.6494 33.307 32.6441V0.0095665C33.307 0.00428307 33.3027 0 33.2974 0Z" fill="black"/>
<path d="M33.2974 0H0.662887C0.657603 0 0.65332 0.00428307 0.65332 0.0095665V32.6441C0.65332 32.6494 0.657603 32.6537 0.662887 32.6537H33.2974C33.3027 32.6537 33.307 32.6494 33.307 32.6441V0.0095665C33.307 0.00428307 33.3027 0 33.2974 0Z" fill="url(#paint0_radial_184_22373)"/>
<path d="M33.2974 0H0.662887C0.657603 0 0.65332 0.00428307 0.65332 0.0095665V32.6441C0.65332 32.6494 0.657603 32.6537 0.662887 32.6537H33.2974C33.3027 32.6537 33.307 32.6494 33.307 32.6441V0.0095665C33.307 0.00428307 33.3027 0 33.2974 0Z" fill="url(#paint1_linear_184_22373)"/>
<path d="M21.6355 6.50513H12.3241C9.47106 6.50513 7.1582 8.81798 7.1582 11.671V20.9824C7.1582 23.8355 9.47106 26.1483 12.3241 26.1483H21.6355C24.4886 26.1483 26.8014 23.8355 26.8014 20.9824V11.671C26.8014 8.81798 24.4886 6.50513 21.6355 6.50513Z" stroke="white" stroke-width="1.9133"/>
<path d="M16.9796 20.9187C19.5157 20.9187 21.5715 18.8628 21.5715 16.3268C21.5715 13.7907 19.5157 11.7349 16.9796 11.7349C14.4436 11.7349 12.3877 13.7907 12.3877 16.3268C12.3877 18.8628 14.4436 20.9187 16.9796 20.9187Z" stroke="white" stroke-width="1.9133"/>
<path d="M22.7831 10.9057C22.9944 10.9057 23.1657 10.7344 23.1657 10.523C23.1657 10.3117 22.9944 10.1404 22.7831 10.1404C22.5717 10.1404 22.4004 10.3117 22.4004 10.523C22.4004 10.7344 22.5717 10.9057 22.7831 10.9057Z" stroke="white" stroke-width="1.9133"/>
<defs>
<radialGradient id="paint0_radial_184_22373" cx="0" cy="0" r="1" gradientUnits="userSpaceOnUse" gradientTransform="translate(13.7148 32.6537) scale(32.6537)">
<stop offset="0.1" stop-color="#FFDD55"/>
<stop offset="0.5" stop-color="#FF543E"/>
<stop offset="1" stop-color="#C837AB"/>
</radialGradient>
<linearGradient id="paint1_linear_184_22373" x1="0.65332" y1="0" x2="7.18405" y2="32.6537" gradientUnits="userSpaceOnUse">
<stop offset="0.1" stop-color="#3771C8"/>
<stop offset="0.5" stop-color="#6600FF" stop-opacity="0"/>
</linearGradient>
</defs>
</svg>
