<svg width="34" height="33" viewBox="0 0 34 33" fill="none" xmlns="http://www.w3.org/2000/svg">
<path d="M30.86 0.000123656H3.02411C2.39253 -0.00630398 1.7842 0.238079 1.33259 0.679649C0.880989 1.12122 0.622999 1.72391 0.615234 2.35547V30.3038C0.624404 30.9344 0.883011 31.5357 1.33446 31.9762C1.78592 32.4166 2.39345 32.6602 3.02411 32.6538H30.86C31.4916 32.6588 32.0996 32.4136 32.5509 31.9717C33.0023 31.5299 33.2604 30.9273 33.2689 30.2958V2.34744C33.2576 1.71773 32.9983 1.11791 32.5472 0.678372C32.0961 0.238829 31.4898 -0.00491401 30.86 0.000123656Z" fill="#0076B2"/>
<path d="M5.4489 12.24H10.2961V27.8361H5.4489V12.24ZM7.87383 4.47803C8.42978 4.47803 8.97324 4.64292 9.43546 4.95184C9.89768 5.26077 10.2579 5.69984 10.4705 6.21353C10.6831 6.72721 10.7386 7.29241 10.63 7.83764C10.5213 8.38287 10.2534 8.88362 9.86011 9.27655C9.4668 9.66948 8.9658 9.93693 8.42046 10.0451C7.87513 10.1532 7.30998 10.0972 6.7965 9.88404C6.28302 9.67092 5.84429 9.3103 5.53581 8.84779C5.22732 8.38527 5.06295 7.84166 5.06348 7.28571C5.06419 6.54082 5.36059 5.82668 5.88756 5.30022C6.41452 4.77375 7.12894 4.47803 7.87383 4.47803Z" fill="white"/>
<path d="M13.3369 12.24H17.9834V14.3812H18.0476C18.6953 13.1553 20.2745 11.8626 22.6325 11.8626C27.5413 11.8519 28.4513 15.0824 28.4513 19.2712V27.8361H23.6041V20.2481C23.6041 18.4415 23.572 16.1156 21.0855 16.1156C18.599 16.1156 18.1761 18.0855 18.1761 20.1304V27.8361H13.3369V12.24Z" fill="white"/>
</svg>
