<svg width="33" height="33" viewBox="0 0 33 33" fill="none" xmlns="http://www.w3.org/2000/svg">
<path d="M32.9517 0H0.317184C0.3119 0 0.307617 0.00428307 0.307617 0.0095665V32.6441C0.307617 32.6494 0.3119 32.6537 0.317184 32.6537H32.9517C32.957 32.6537 32.9613 32.6494 32.9613 32.6441V0.0095665C32.9613 0.00428307 32.957 0 32.9517 0Z" fill="#1877F2"/>
<path d="M22.9862 21.0463L23.7133 16.3268H19.1851V13.2656C19.1851 11.9773 19.8165 10.7145 21.8446 10.7145H23.9046V6.69657C23.9046 6.69657 22.0359 6.37769 20.2502 6.37769C16.5193 6.37769 14.083 8.63538 14.083 12.7298V16.3268H9.9375V21.0463H14.083V32.6537H19.1851V21.0463H22.9862Z" fill="white"/>
</svg>
