<svg width="33" height="27" viewBox="0 0 33 27" fill="none" xmlns="http://www.w3.org/2000/svg">
<path d="M10.2689 26.5318C22.5917 26.5318 29.3298 16.3223 29.3298 7.47086C29.3298 7.18115 29.3298 6.89145 29.3117 6.60433C30.6228 5.65564 31.7544 4.48109 32.6537 3.13566C31.4315 3.67773 30.135 4.03347 28.8073 4.19101C30.2053 3.35297 31.2513 2.03578 31.7509 0.48436C30.4356 1.26513 28.9966 1.81539 27.4959 2.11135C26.486 1.03746 25.1502 0.326374 23.6954 0.0881368C22.2406 -0.1501 20.7478 0.0977945 19.4481 0.793458C18.1483 1.48912 17.1141 2.59377 16.5055 3.93645C15.8968 5.27913 15.7477 6.78499 16.0811 8.22098C13.4175 8.08754 10.8118 7.39542 8.43305 6.18957C6.05431 4.98371 3.95577 3.29108 2.27365 1.22155C1.41608 2.69597 1.15271 4.4418 1.53716 6.10359C1.92161 7.76537 2.92498 9.21815 4.34296 10.1661C3.28416 10.1303 2.24923 9.84213 1.32436 9.32547V9.41083C1.32417 10.9558 1.8578 12.4534 2.83492 13.6502C3.81204 14.847 5.17264 15.6694 6.68645 15.9783C5.69963 16.2471 4.66431 16.286 3.66009 16.0921C4.08764 17.424 4.92094 18.5889 6.04336 19.4238C7.16577 20.2586 8.52113 20.7217 9.91974 20.748C7.5452 22.6076 4.61457 23.6152 1.59854 23.6089C1.06433 23.6092 0.530563 23.5781 0 23.5157C3.06327 25.4834 6.62816 26.5277 10.2689 26.524" fill="#1DA1F2"/>
</svg>
