<svg width="168" height="154" viewBox="0 0 168 154" fill="none" xmlns="http://www.w3.org/2000/svg">
<path fill-rule="evenodd" clip-rule="evenodd" d="M92.3973 150.124H94.7609C94.8953 149.916 94.9044 149.909 94.9648 149.824C95.116 149.611 95.287 149.414 95.4755 149.233C96.1421 148.507 97.0654 148.068 98.0495 148.01C98.0965 148.01 98.1435 148.01 98.1906 148.01C98.7802 148.045 99.3578 148.191 99.893 148.44C101.764 149.267 103.778 149.723 105.822 149.784L105.861 149.787C106.742 149.891 107.624 149.995 108.505 150.1L126.868 152.264C126.91 152.255 126.954 152.26 126.993 152.28L127.242 152.308C127.572 152.349 127.906 152.346 128.235 152.299C129.613 152.131 130.83 151.242 131.707 150.082C132.189 149.496 132.47 148.771 132.509 148.013L133.082 142.222H105.821C105.77 142.218 105.72 142.206 105.671 142.189C105.561 142.138 105.451 142.089 105.34 142.041C102.548 140.83 99.5392 140.198 96.4959 140.182C94.9796 140.18 93.463 140.18 91.9464 140.182C91.6887 140.182 91.432 140.194 91.1763 140.22C90.9119 140.249 90.6519 140.288 90.3972 140.333C89.052 140.592 87.7893 141.174 86.7179 142.028L86.6786 142.062L86.6467 142.087L86.6201 142.11L86.5751 142.147L86.558 142.153C86.5362 142.182 86.5123 142.211 86.4864 142.238C84.9631 143.844 84.0791 145.928 83.5244 148.149C83.4374 148.551 83.6931 148.948 84.0956 149.035C84.1329 149.043 84.1709 149.049 84.2092 149.051C84.5965 148.971 84.8972 148.666 84.9712 148.278C85.3703 146.444 86.3198 144.543 88.1028 144.143C88.3918 144.077 88.6629 144.378 88.3907 144.749C87.3358 146.233 87.0616 148.223 87.027 150.127H88.5967C88.6142 149.642 88.6864 149.161 88.8124 148.692C89.1279 147.378 89.6063 146.108 90.2363 144.912C90.2968 144.79 90.4275 144.718 90.5632 144.733C90.8572 144.771 90.9234 145.029 90.664 145.553C89.9134 146.977 89.4296 148.525 89.2364 150.123H91.7898C91.7751 149.684 91.815 149.246 91.9081 148.817C92.1745 147.473 92.6415 146.176 93.2937 144.97C93.3447 144.815 93.497 144.715 93.6596 144.732C94.1541 144.805 93.6932 145.615 93.4298 146.213C92.8562 147.445 92.5068 148.769 92.3973 150.124ZM86.3561 150.124H76.954L74.8374 142.222H85.582C84.238 143.779 83.4495 145.783 82.924 147.785C82.702 148.65 83.1199 149.488 83.8806 149.677C83.9481 149.697 84.018 149.709 84.0882 149.713C84.693 149.925 85.3942 149.33 85.5702 148.689C85.8776 147.459 86.2778 145.994 87.3596 145.207C86.6887 146.759 86.347 148.433 86.3561 150.124ZM102.537 104.628H98.1728C93.2033 104.613 89.0677 100.271 88.9962 95.5654C88.9444 90.0245 88.9962 84.4828 88.9962 78.9415L89.0234 78.9637C90.3018 79.9834 91.7882 80.7101 93.3777 81.0928C94.8896 81.4537 96.4687 81.3992 98.0555 81.3952H98.0915H98.1516H98.1936H98.2181H98.2292H98.2494C98.9297 81.3764 99.6071 81.2941 100.272 81.1496H100.279L100.379 81.1278L100.392 81.1251C102.509 80.653 104.443 79.5725 105.955 78.0163L105.979 78.0835L106.002 78.1466L106.006 78.1601C107.396 81.8605 110.386 85.4441 114.059 87.6857C114.572 88.0019 115.101 88.2898 115.645 88.5482C115.744 88.615 115.854 88.6651 115.969 88.697L115.987 88.7054L116.123 88.7347H118.517C118.592 88.7347 118.666 88.7373 118.741 88.7431C118.881 88.7531 119.021 88.7703 119.159 88.7948C119.954 88.9359 120.684 89.325 121.245 89.9065C122.925 91.6704 122.261 94.8051 120.237 95.8776C119.005 96.4931 117.549 96.2962 116.124 96.2962L115.996 96.3217C115.779 96.4665 115.783 96.5952 115.788 96.6241V96.6308V107.746C115.8 107.877 115.878 107.994 115.995 108.056L116.718 108.081L116.696 108.332L116.691 108.394C116.426 111.024 114.748 113.301 112.313 114.331C111.202 114.726 110.026 114.904 108.848 114.857H108.592C108.507 114.857 108.421 114.857 108.335 114.857H108.258H108.234H108.179H108.153L108.092 114.854H108.076L107.997 114.849H107.987L107.916 114.844H107.904C104.858 114.534 102.403 112.213 101.923 109.189C101.882 108.853 101.864 108.535 101.858 108.276C101.858 108.211 101.858 108.145 101.862 108.08H102.536C102.992 107.99 102.872 107.744 102.872 107.744V105.304H108.591C108.778 105.301 108.926 105.147 108.923 104.96C108.921 104.892 108.9 104.825 108.86 104.77C108.815 104.709 108.803 104.658 108.619 104.635C106.593 104.549 104.563 104.635 102.535 104.635L102.537 104.628ZM97.5673 99.1517C97.9369 99.1896 98.2988 99.6603 98.8051 99.828C99.7485 100.124 100.778 99.8989 101.513 99.237C101.615 99.1671 101.743 99.1449 101.863 99.1755C102.121 99.2797 101.964 99.7353 101.964 99.7353C101.937 99.7601 101.91 99.784 101.882 99.8082C100.631 100.883 98.7725 100.787 97.3496 99.7588C97.1961 99.658 97.1537 99.452 97.2542 99.2985C97.3224 99.1943 97.4434 99.1372 97.5673 99.1507V99.1517ZM79.2756 50.1502H77.1096V46.3667C77.0592 46.0946 76.9258 46.0674 76.9258 46.0674C74.2044 44.6879 75.7035 40.683 78.1555 40.636H78.2297C81.0597 40.6901 81.7427 44.3989 79.9211 45.7815C79.7003 45.9495 79.3348 46.0482 79.2756 46.3667V50.1502ZM78.1159 18.5531C71.7255 18.6122 65.819 24.0779 65.7979 30.948V34.3374C67.125 34.3128 68.4524 34.2947 69.7799 34.2826C69.7601 32.3003 69.622 30.3291 70.2573 28.5259C70.2707 28.4873 70.2849 28.449 70.299 28.411L70.3101 28.3805C70.3292 28.3294 70.349 28.2797 70.3692 28.2279L70.3853 28.187L70.3974 28.1581V28.1544L70.4045 28.1376L70.4236 28.0902L70.4267 28.0835C71.7568 25.0187 74.742 23.0018 78.0816 22.9118C78.1364 22.9118 78.1908 22.9118 78.2455 22.9118C78.7478 22.9168 79.2481 22.9705 79.74 23.0723C80.299 23.1647 80.846 23.3193 81.3705 23.5333C84.4336 24.8309 86.471 27.7821 86.5983 31.1063V31.1627V31.2017V31.2242C86.5983 31.2578 86.5983 31.289 86.5983 31.3213V34.3115C87.9264 34.3212 89.2546 34.3303 90.582 34.3387C90.582 31.9224 90.707 29.508 90.0239 27.2714L90.0159 27.2445L89.9907 27.1639L89.9551 27.0544C88.2422 22.1044 83.6538 18.7234 78.4186 18.5541L78.2643 18.5524L78.1159 18.5531ZM31.5102 32.9404H4.09473V0.795288H31.5106L31.5102 32.9404ZM28.8698 3.23987H6.73552C6.73552 3.23987 6.42776 3.43507 6.39954 3.57585V25.7101C6.45901 26.0095 6.59541 26.0558 6.67471 26.0555H6.68512C6.70225 26.0548 6.71905 26.0515 6.73518 26.0461H28.8695C28.8889 26.0528 28.9094 26.0558 28.9299 26.0558H28.941C29.0213 26.0518 29.148 25.9964 29.2051 25.7108V3.57585L28.9978 3.26574L28.8698 3.23987Z" fill="#FFD2BB"/>
<path fill-rule="evenodd" clip-rule="evenodd" d="M97.8828 152.955L103.052 152.924C104.167 152.879 105.122 152.116 105.415 151.041V151.038L105.426 150.992L105.428 150.983L105.437 150.942L105.44 150.93L105.448 150.89L105.45 150.877L105.459 150.824L86.6906 150.805C86.6302 150.845 86.5519 150.845 86.4914 150.805L76.6966 150.795L76.3724 150.547L74.0763 141.973C74.074 141.942 74.0726 141.913 74.0733 141.885C72.3783 135.47 70.6863 129.054 68.9019 122.664C68.8616 122.505 68.7914 122.355 68.6956 122.223C68.405 121.802 67.9323 121.545 67.4216 121.528C55.3731 121.401 43.3235 121.528 31.274 121.528C30.6608 121.556 30.1864 122.075 30.2143 122.688C30.217 122.746 30.2241 122.803 30.2355 122.86C32.7506 132.52 35.3017 142.172 37.9868 151.788C38.1921 152.441 38.7851 152.897 39.4699 152.925C40.5248 152.937 41.5798 152.947 42.6351 152.957L97.8828 152.955ZM51.6639 132.814C55.6526 132.89 59.4428 138.024 56.768 141.043C56.0931 141.771 55.1399 142.176 54.1474 142.157H54.0691C51.7603 142.161 49.0631 140.496 48.1895 137.962C47.4551 135.828 48.5927 132.87 51.5412 132.814H51.6625L51.6639 132.814ZM89.3442 138.139L89.1863 139.943H89.1839C88.4031 140.198 87.6599 140.557 86.9745 141.009L86.9389 141.033L86.9161 141.048H86.9141C86.7434 141.163 86.5767 141.283 86.4145 141.409C86.3631 141.449 86.3117 141.49 86.2609 141.531L86.2404 141.548H84.0337L84.3324 138.136L89.3442 138.139ZM133.444 138.139L133.145 141.551H122.445L122.744 138.139L133.444 138.139ZM55.8999 89.1833C54.7256 89.1147 53.7889 88.178 53.7204 87.0038C53.7012 86.0016 53.1559 84.995 52.1749 84.9765C49.2119 84.9577 46.2492 84.9765 43.2869 84.9765C42.4416 85.0054 41.7599 85.6773 41.7189 86.522C41.6715 94.0268 41.5798 101.534 41.7189 109.038C41.7676 109.867 42.4342 110.526 43.2644 110.565C52.1588 110.621 61.0551 110.733 69.9482 110.565C70.7777 110.517 71.4365 109.85 71.4745 109.02C71.5131 102.916 71.5901 96.812 71.4745 90.709C71.4261 89.8794 70.7589 89.2209 69.929 89.1829C65.2612 89.1534 60.5925 89.2706 55.9254 89.1829L55.8999 89.1833ZM142.204 99.7226C142.204 101.921 142.218 104.119 142.246 106.317C142.28 106.902 142.748 107.37 143.334 107.404C150.816 107.496 158.299 107.496 165.783 107.404C166.369 107.37 166.837 106.903 166.871 106.317C166.916 102.804 166.926 99.2912 166.902 95.7779L154.471 101.73C154.38 101.784 154.267 101.784 154.177 101.728L142.216 95.7866C142.208 97.0445 142.204 98.3024 142.204 99.5603C142.215 99.6131 142.216 99.6678 142.205 99.7209L142.204 99.7226ZM166.896 95.0417C166.89 94.225 166.881 93.4082 166.871 92.5915C166.837 92.0052 166.369 91.5371 165.783 91.5032C158.311 91.4098 150.837 91.5032 143.364 91.5032C142.766 91.523 142.281 91.9948 142.246 92.5918C142.236 93.4079 142.228 94.2243 142.221 95.0404L154.328 101.054L166.896 95.0417ZM118.509 96.9595H118.545C119.095 96.9531 119.639 96.847 120.151 96.6464C120.169 96.6397 120.158 96.6558 120.158 96.6558C119.899 98.5601 118.371 100.04 116.459 100.237V96.9609L118.509 96.9595ZM90.163 61.9895C89.6563 61.9868 89.153 62.0722 88.6756 62.2422C88.0987 62.4511 87.5689 62.7727 87.1173 63.1883C86.2364 63.9903 85.6834 65.0896 85.5648 66.2749L85.5466 66.3381C85.5466 69.0511 85.3753 71.8317 86.3264 74.2615C87.6831 77.5567 90.6283 79.9314 94.1366 80.558C94.6365 80.6447 95.1415 80.6985 95.6485 80.719C95.7157 80.721 95.7849 80.7227 95.8528 80.7233C96.564 80.7274 97.275 80.7233 97.9859 80.7233H98.0171C98.6058 80.7126 99.1927 80.6605 99.774 80.5675C101.213 80.3108 102.582 79.7564 103.794 78.9403L103.844 78.9067L103.878 78.8845C104.607 78.3839 105.271 77.7936 105.853 77.128L106.249 77.045C106.252 77.044 106.256 77.044 106.259 77.045C106.273 77.0484 106.286 77.0558 106.295 77.0665C106.36 77.1425 106.407 77.2305 106.436 77.3256C106.459 77.3857 106.483 77.46 106.51 77.5467C107.201 79.7443 108.549 81.7128 110.165 83.4434C110.847 84.1695 111.567 84.8582 112.322 85.507L112.327 85.5107L112.356 85.5359C112.508 85.6666 112.661 85.7953 112.817 85.9213C113.811 86.7437 114.903 87.4412 116.068 87.9973L116.095 88.01L116.196 88.0564C116.984 88.0564 117.773 88.043 118.561 88.0564H118.583H118.6H118.624H118.657C119.181 88.0752 119.698 88.1848 120.185 88.38L120.17 75.7105L120.162 75.5976L120.158 75.5459L120.153 75.4848L120.147 75.4176L120.143 75.3722L120.135 75.297L120.131 75.26L120.122 75.1804L120.118 75.1468L120.107 75.0651L120.103 75.0349L120.091 74.9543L120.087 74.9233L120.075 74.8461L120.069 74.8125L120.057 74.7396L120.05 74.7009L120.039 74.6354L120.03 74.5897L120.019 74.5326L120.008 74.4778L119.999 74.4315L119.985 74.3666L119.977 74.333L119.96 74.2558L119.955 74.2353L119.934 74.1435V74.1385C118.923 69.9724 115.014 66.5907 110.497 66.577H95.3075L95.2897 66.5729C94.9231 66.4839 94.9359 65.819 94.8022 65.3614C94.231 63.4084 92.2605 62.0204 90.2251 61.9875L90.163 61.9895ZM70.1182 35.0104C70.1702 35.043 70.2361 35.043 70.2882 35.0104H86.1279C86.1729 35.0292 86.2236 35.0292 86.2686 35.0104H90.7073C90.7943 35.0121 90.881 35.0215 90.9663 35.039C91.5922 35.2063 92.0774 35.7012 92.2323 36.3305V36.3402L92.2353 36.3604L92.2386 36.3809V36.3937L92.2417 36.4199V36.4289L92.2444 36.4572V36.4652L92.2464 36.4944V36.5022V36.5385C92.3549 42.4339 92.2833 48.3313 92.2464 54.2281C92.2084 55.0586 91.5489 55.7262 90.7187 55.7736C87.5884 55.832 84.4577 55.8542 81.3267 55.8562H80.5442C75.5869 55.8542 70.6292 55.8048 65.6722 55.7739C64.8416 55.7359 64.174 55.0761 64.1266 54.2459C64.0181 48.3505 64.0894 42.453 64.1266 36.5559V36.5176C64.1865 35.6881 64.8621 35.0376 65.6933 35.0088L70.1182 35.0104ZM79.6119 50.8216L79.7406 50.796L79.9476 50.4859V46.5678C80.3598 46.3309 80.7206 46.0141 81.0086 45.6361C82.6754 43.4435 80.8369 40.0669 78.2989 39.9668L78.2388 39.9648H78.148L78.057 39.9668C74.6656 40.1176 73.8368 44.5099 75.9642 46.2412C76.1107 46.3665 76.2699 46.4757 76.4393 46.5674V50.4856L76.4651 50.6139C76.5888 50.7994 76.7003 50.8233 76.7497 50.8236H76.7604C76.7652 50.8233 76.7699 50.8226 76.7746 50.8216H79.6119ZM145.957 7.19812V11.2221C145.957 11.2221 145.796 11.4573 146.293 11.5581H149.61V26.5377H138.594C138.542 26.5051 138.476 26.5051 138.424 26.5377H134.213V7.19812H145.957ZM18.2595 8.37405C16.6824 8.40361 15.615 11.0871 17.5412 11.93C17.7347 12.0137 17.9434 12.0567 18.154 12.056H18.1876C19.377 12.0352 20.5973 10.7545 19.9566 9.426C19.6414 8.79301 19.0004 8.38782 18.2935 8.37438L18.2595 8.37405Z" fill="#FFC5A7"/>
<path fill-rule="evenodd" clip-rule="evenodd" d="M51.5508 133.485C50.2684 133.51 49.0041 134.27 48.6762 135.61C48.0126 138.323 50.8936 141.557 53.8298 141.573H53.9084C54.3075 141.567 54.7036 141.499 55.0816 141.371C55.9555 141.074 56.6228 140.36 56.8596 139.467C57.5786 136.701 54.6707 133.515 51.6227 133.484L51.5508 133.485ZM47.6162 68.7846L58.9252 55.5898L70.2346 68.7846H63.7966C63.7966 68.7846 63.5594 68.6237 63.4606 69.1206V82.5073H54.3892V69.1203L54.3636 68.9919L54.0535 68.7846H47.6162ZM107.405 35.2688C107.477 35.2654 107.549 35.2627 107.622 35.2604C107.694 35.258 107.768 35.257 107.844 35.2567C107.9 35.2567 107.956 35.2567 108.012 35.2567C113.358 35.3312 118.199 40.1179 118.054 45.7291C119.338 46.1578 120.58 46.7048 121.763 47.3623C123.481 48.3719 125.008 49.6759 126.274 51.2143L126.307 51.255C126.483 50.6989 126.702 49.9161 126.702 49.9161C126.776 49.8227 126.889 49.7689 127.008 49.7703L131.653 50.1647C132.106 47.8864 132.231 45.5551 132.025 43.2412L127.358 43.0866C127.358 43.0866 127.137 43.3709 126.94 42.1963C126.701 40.7996 126.312 39.4329 125.779 38.1199C125.779 38.1199 125.609 37.9764 125.917 37.7063L129.907 35.2946C128.933 33.186 127.664 31.2266 126.138 29.4751L122.271 32.0934C122.271 32.0934 122.259 32.4529 121.41 31.6183C120.396 30.6292 119.277 29.7523 118.074 29.0031C118.074 29.0031 117.853 28.9873 117.942 28.5878L119.753 24.2917C117.726 23.1571 115.548 22.3175 113.284 21.7987L111.694 26.1896C111.694 26.1896 111.896 26.488 110.72 26.3119C109.318 26.1076 107.897 26.0556 106.484 26.1563C106.484 26.1563 106.295 26.2743 106.133 25.898L105.073 21.3579C103.491 21.5457 101.931 21.8871 100.415 22.3773C100.415 22.3773 101.351 23.3946 102.039 24.2681C104.116 26.9083 105.719 29.8884 106.777 33.0762C106.951 33.5989 107.111 34.1295 107.255 34.6677C107.306 34.8676 107.357 35.0682 107.405 35.2688ZM154.325 12.6194V31.9587H138.929V27.2083H149.945C149.953 27.2143 150.183 27.3602 150.28 26.8723V12.6194H154.325ZM18.4764 17.6591L18.0753 17.6487L13.7882 14.2775L7.07129 17.9776V25.3745H28.5343V20.3977L22.148 15.0664L18.4764 17.6591ZM146.627 10.8861H149.225L146.627 7.78503V10.8861Z" fill="#D25412"/>
<path fill-rule="evenodd" clip-rule="evenodd" d="M12.8089 152.955C13.1284 152.973 13.2833 153.6 12.8089 153.627C12.1853 153.639 11.4724 153.769 11.3467 153.4C11.294 153.214 11.4018 153.021 11.5873 152.969C11.6085 152.963 11.63 152.959 11.6522 152.957C12.0379 152.949 12.4236 152.948 12.8089 152.955ZM31.8465 33.6123H3.75867C3.26209 33.5139 3.42269 33.2764 3.42269 33.2764V0.459653C3.5208 -0.0328919 3.75497 0.121322 3.75867 0.123674H31.8465L31.9752 0.14921L32.1821 0.459317V16.5315H45.7923L45.84 16.5352C46.0769 16.5866 46.1115 16.6411 46.1279 16.8672V33.9315C47.6801 33.9429 49.2183 34.2272 50.672 34.7715C50.9129 34.8615 51.2405 34.9986 51.2405 34.9986C51.2704 34.8817 51.301 34.7647 51.3326 34.6475C54.4105 23.2991 64.6833 14.5019 76.4466 13.3532C82.7829 12.734 89.2118 14.4266 94.6113 17.8291V12.2854C94.6392 12.0032 94.6987 11.9746 94.9473 11.9495H133.542V6.8624C133.64 6.36952 133.874 6.52407 133.878 6.52642H146.293L146.421 6.55195L146.425 6.55766L146.443 6.56203L146.55 6.64636L150.203 11.006C150.216 11.0305 150.229 11.0561 150.239 11.0823L150.255 11.0934L150.281 11.2217V11.9481H154.662L154.79 11.9736L154.997 12.2834V32.294C154.899 32.7909 154.661 32.6299 154.661 32.6299H138.594C138.098 32.5312 138.258 32.294 138.258 32.294V27.2083H133.877C133.381 27.1098 133.541 26.8723 133.541 26.8723V12.6194H95.2823L95.2766 18.2581C96.8782 19.3255 98.3743 20.5428 99.7451 21.8941C101.515 21.2843 103.346 20.8724 105.207 20.6667C105.276 20.661 105.346 20.661 105.416 20.6667C105.531 20.7067 105.621 20.7988 105.658 20.915L106.721 25.4686C106.835 25.4618 106.948 25.4561 107.062 25.4511C108.422 25.397 109.784 25.4793 111.128 25.6963L112.688 21.2836C112.688 21.2836 112.44 20.9208 113.434 21.1445C115.819 21.6952 118.111 22.5885 120.24 23.7961C120.423 23.8821 120.524 24.0796 120.488 24.2778L118.674 28.5864C118.77 28.6479 118.865 28.7101 118.96 28.7729C120.092 29.5282 121.145 30.395 122.104 31.3599L125.96 28.7057C125.96 28.7057 125.984 28.279 126.645 29.0313C128.251 30.8788 129.581 32.9488 130.594 35.1773C130.69 35.3541 130.656 35.5738 130.511 35.7132L126.509 38.1323C126.551 38.2378 126.591 38.3443 126.631 38.4511C127.103 39.7275 127.446 41.0482 127.654 42.3931L132.333 42.5134C132.333 42.5134 132.602 42.1821 132.696 43.1793C132.91 45.6179 132.769 48.0745 132.277 50.4728C132.252 50.6727 132.095 50.8306 131.896 50.8575L127.237 50.4617C127.22 50.5272 127.203 50.593 127.184 50.6582C127.089 51.1128 126.953 51.558 126.778 51.9884C128.166 53.8094 129.149 55.9065 129.661 58.1388C129.782 58.6777 129.874 59.2226 129.936 59.7716H147.747C147.761 55.6283 147.786 51.4851 147.786 47.3404C147.813 46.3758 148.576 45.594 149.54 45.5436C154.107 45.4852 158.675 45.4852 163.244 45.5436C164.189 45.5957 164.945 46.351 164.997 47.2967C165.104 55.8205 164.997 64.3456 164.997 72.8704C164.968 73.834 164.206 74.6148 163.243 74.6672C158.69 74.7247 154.138 74.6672 149.583 74.6672C148.619 74.6407 147.836 73.8774 147.786 72.9138C147.734 68.7564 147.733 64.5983 147.744 60.4406H129.998C130.285 65.1076 128.681 69.6938 125.548 73.1647V99.2962L141.558 99.3012C141.565 97.073 141.578 94.8448 141.578 92.6152C141.607 91.658 142.365 90.8826 143.321 90.8308C150.814 90.7371 158.308 90.7371 165.803 90.8308C166.744 90.8806 167.496 91.6321 167.546 92.5732C167.604 97.1449 167.546 101.717 167.546 106.29C167.517 107.247 166.759 108.023 165.802 108.074C158.323 108.166 150.842 108.074 143.362 108.074C142.405 108.045 141.629 107.288 141.578 106.332C141.552 104.21 141.55 102.087 141.555 99.9658H125.21C124.938 99.9419 124.896 99.8791 124.874 99.6298V73.8696C123.747 74.9844 122.46 75.9251 121.056 76.6609C120.981 76.6999 120.915 76.7318 120.856 76.7584V88.8237C122.497 89.9687 123.443 92.2013 122.631 94.1903C122.271 95.0517 121.65 95.7785 120.855 96.2683C120.855 96.3631 120.849 96.4581 120.842 96.5522C120.608 98.8638 118.772 100.687 116.459 100.905V107.403L117.007 107.423C117.032 107.415 117.058 107.408 117.084 107.403H130.753H130.756H130.831C133.96 107.519 136.402 110.149 136.286 113.278C136.284 113.336 136.281 113.394 136.277 113.453L134.145 137.833L133.787 141.916V141.919L133.182 148.031C133.173 149.775 131.783 151.324 130.494 152.167C129.848 152.588 129.115 152.857 128.35 152.955H148.096C148.111 152.955 148.126 152.957 148.14 152.961C148.322 153.016 148.425 153.207 148.37 153.389C148.337 153.499 148.251 153.585 148.14 153.618C148.126 153.623 148.111 153.625 148.096 153.625H96.8892C85.1182 153.671 73.3476 153.649 61.5779 153.625H18.283C18.114 153.636 17.9679 153.508 17.9571 153.339C17.9568 153.331 17.9565 153.324 17.9565 153.316C17.9336 153.14 18.0579 152.979 18.234 152.957C18.2501 152.955 18.2666 152.954 18.283 152.954H37.9482C37.6646 152.684 37.4556 152.346 37.3414 151.972C34.6536 142.342 31.954 132.71 29.578 122.997C29.3922 122.015 30.0376 121.068 31.02 120.882C31.0865 120.869 31.1537 120.861 31.2212 120.856C43.2896 120.584 55.3646 120.729 67.435 120.856C68.4272 120.896 69.2822 121.566 69.5584 122.519L74.6572 141.549H83.3591L83.6893 137.772C83.6789 137.733 83.6826 137.69 83.6997 137.653L85.8225 113.395C85.8393 113.164 85.8728 112.933 85.9232 112.706C86.5908 109.675 89.2373 107.488 92.3404 107.404H102.203V105.3C99.6772 105.3 97.1557 105.548 94.8536 104.724C90.9777 103.27 88.3873 99.5915 88.3265 95.4526V78.5495H64.1313V82.8426C64.1313 82.8426 64.1717 82.9871 63.9244 83.1527L63.796 83.1783H54.0526C54.0476 83.1783 53.9048 83.2139 53.7429 82.971L53.717 82.8426V78.5495C46.4498 78.5495 39.1829 78.572 31.9157 78.5495C25.7337 78.4907 19.8376 74.1008 18.0677 68.1577C17.9897 67.8959 17.9198 67.6325 17.858 67.3668H12.2408L12.2357 94.8888C15.277 94.8995 18.317 94.9278 21.3596 94.9466C22.5668 95.0023 23.5287 95.9757 23.5696 97.1835V99.0912L29.587 96.1346L29.966 96.1924L30.0708 96.436V109.208L29.8514 109.522L29.587 109.509L23.5696 106.552C23.5696 107.823 23.7356 109.179 22.9531 110.002C22.5416 110.428 21.9798 110.677 21.3875 110.696C15.067 110.813 8.7456 110.813 2.42315 110.696C1.24757 110.629 0.309177 109.69 0.241645 108.515C0.170754 104.72 0.170754 100.923 0.241645 97.1251C0.309177 95.9495 1.24757 95.0111 2.42315 94.9436C5.47182 94.8861 8.52083 94.8764 11.5698 94.8831V67.0311C11.5937 66.7593 11.6562 66.7173 11.9058 66.6951H17.7213C16.2369 58.7997 21.4342 51.1961 29.3293 49.7118C30.1219 49.5629 30.9252 49.4799 31.7316 49.4641C31.7316 49.4641 31.5407 46.2942 32.2849 43.8503C33.9927 38.2415 39.5354 34.1832 45.458 33.9423V17.2031L32.1835 17.1998V33.2764L32.085 33.5139C32.0172 33.5697 31.9338 33.6039 31.8465 33.6123ZM16.6912 152.956C17.0117 152.98 17.1578 153.59 16.6912 153.626C15.9308 153.645 15.1702 153.626 14.4092 153.626C14.0635 153.617 13.9993 152.987 14.3917 152.954C15.1571 152.935 15.9234 152.936 16.6912 152.956ZM158.621 152.956C158.957 152.981 159.027 153.594 158.621 153.626C157.878 153.644 157.134 153.626 156.39 153.626C156.054 153.617 155.92 152.99 156.373 152.954C157.121 152.936 157.87 152.936 158.62 152.956H158.621ZM154.375 153.628H149.947C149.588 153.615 149.514 152.972 149.947 152.956C151.431 152.956 152.916 152.903 154.399 152.956C154.75 152.994 154.765 153.612 154.373 153.626L154.375 153.628ZM97.8844 152.956L103.054 152.925C104.168 152.879 105.124 152.117 105.417 151.041V151.038L105.428 150.992L105.43 150.983L105.439 150.942L105.442 150.93L105.449 150.89L105.452 150.877L105.46 150.825L86.6923 150.806C86.6318 150.845 86.5535 150.845 86.4931 150.806L76.6983 150.796L76.3741 150.547L74.0763 141.973C74.074 141.942 74.0726 141.913 74.0733 141.885C72.3783 135.47 70.6863 129.054 68.9019 122.664C68.8616 122.505 68.7914 122.355 68.6956 122.223C68.405 121.802 67.9323 121.545 67.4216 121.528C55.373 121.401 43.3235 121.528 31.274 121.528C30.6608 121.556 30.1864 122.075 30.2143 122.688C30.217 122.746 30.224 122.803 30.2355 122.86C32.7506 132.52 35.3017 142.172 37.9868 151.787C38.1921 152.441 38.7851 152.896 39.4698 152.925C40.5248 152.936 41.5798 152.947 42.6351 152.957L97.8844 152.956ZM106.159 150.5V150.504C106.189 151.161 105.971 151.805 105.549 152.309C105.387 152.534 105.196 152.736 104.981 152.91L126.468 152.892L106.159 150.497V150.5ZM92.3996 150.124H94.7632C94.8976 149.917 94.9066 149.91 94.9671 149.824C95.1183 149.612 95.2893 149.414 95.4778 149.234C96.1444 148.507 97.0676 148.069 98.0517 148.011C98.0988 148.011 98.1458 148.011 98.1928 148.011C98.7825 148.046 99.36 148.191 99.8952 148.441C101.767 149.267 103.78 149.724 105.825 149.785L105.863 149.787C106.745 149.891 107.626 149.996 108.507 150.101L126.87 152.264C126.912 152.255 126.956 152.261 126.995 152.28L127.245 152.308C127.575 152.349 127.908 152.346 128.237 152.3C129.615 152.132 130.832 151.242 131.709 150.082C132.191 149.496 132.472 148.771 132.51 148.013L133.083 142.222H105.822C105.771 142.218 105.72 142.206 105.672 142.189C105.562 142.138 105.451 142.089 105.341 142.041C102.548 140.831 99.5398 140.198 96.4965 140.182C94.9802 140.18 93.4636 140.18 91.947 140.182C91.6893 140.182 91.4326 140.194 91.1769 140.22C90.9125 140.249 90.6525 140.288 90.3978 140.333C89.0525 140.592 87.7899 141.174 86.7185 142.028L86.6792 142.062L86.6473 142.087L86.6207 142.11L86.5757 142.147L86.5586 142.153C86.5367 142.182 86.5129 142.211 86.487 142.238C84.9637 143.844 84.0797 145.928 83.525 148.149C83.438 148.551 83.6937 148.948 84.0962 149.035C84.1335 149.043 84.1714 149.049 84.2097 149.051C84.5971 148.971 84.8978 148.666 84.9717 148.278C85.3709 146.444 86.3204 144.543 88.1034 144.143C88.3923 144.077 88.6635 144.378 88.3913 144.749C87.3364 146.233 87.0622 148.223 87.0276 150.127H88.5973C88.6148 149.642 88.687 149.161 88.813 148.692C89.1285 147.378 89.6069 146.108 90.2369 144.912C90.2973 144.79 90.428 144.718 90.5638 144.733C90.8578 144.771 90.9239 145.029 90.6646 145.553C89.914 146.977 89.4302 148.525 89.237 150.123H91.7904C91.7757 149.684 91.8156 149.246 91.9087 148.817C92.1751 147.473 92.6421 146.176 93.2943 144.97C93.3453 144.815 93.4975 144.715 93.6602 144.732C94.1547 144.805 93.6937 145.616 93.4303 146.213C92.8568 147.445 92.5074 148.769 92.3979 150.124L92.3996 150.124ZM102.257 149.936C101.23 149.649 100.222 149.3 99.2374 148.891C97.9607 148.387 96.5801 148.913 95.6162 150.096L102.974 150.124C102.909 150.11 102.844 150.095 102.78 150.081C102.603 150.039 102.429 149.99 102.255 149.936L102.257 149.936ZM85.5836 142.222H74.839L76.9556 150.124H86.3577C86.3482 148.434 86.6896 146.759 87.3606 145.207C86.2787 145.995 85.8786 147.458 85.5711 148.689C85.3951 149.33 84.6952 149.925 84.0891 149.713C84.0189 149.709 83.949 149.698 83.8815 149.678C83.1208 149.488 82.7029 148.65 82.925 147.785C83.4501 145.783 84.2393 143.78 85.5819 142.222L85.5836 142.222ZM51.6655 132.815C55.6543 132.89 59.4444 138.025 56.7697 141.044C56.0947 141.771 55.1416 142.176 54.1491 142.158H54.0708C51.7619 142.161 49.0647 140.496 48.1912 137.963C47.4567 135.828 48.5943 132.87 51.5429 132.814H51.6642L51.6655 132.815ZM51.553 133.487C50.2705 133.511 49.0063 134.271 48.6783 135.611C48.0148 138.325 50.8958 141.558 53.8319 141.574H53.9105C54.3097 141.569 54.7058 141.501 55.0838 141.372C55.9576 141.075 56.6249 140.361 56.8618 139.469C57.5808 136.703 54.6729 133.516 51.6249 133.486L51.553 133.487ZM89.3459 138.14H84.3307L84.032 141.552H86.2387L86.2592 141.535C86.3099 141.494 86.36 141.453 86.4128 141.413C86.5754 141.287 86.742 141.167 86.9124 141.052H86.9144L86.9372 141.037L86.9728 141.013C87.6582 140.561 88.4014 140.202 89.1822 139.947H89.1846L89.3459 138.14ZM133.445 138.14H122.744L122.445 141.551H133.145L133.445 138.14ZM127.935 108.075H117.392C117.058 111.894 114.058 115.213 110.176 115.509H110.167H110.157L110.09 115.513H110.072H110.06L109.996 115.517H109.971H109.964L109.903 115.519H109.873H109.868H109.803H109.775H109.677H109.488C107.576 115.508 105.651 115.226 104.156 114.15C104.132 114.132 104.107 114.114 104.083 114.096C104.054 114.074 104.024 114.052 103.995 114.029H103.992L103.959 114.003L103.911 113.966L103.907 113.963L103.902 113.959L103.861 113.925L103.828 113.897L103.823 113.893L103.814 113.886L103.771 113.849L103.745 113.828L103.74 113.823L103.727 113.812L103.682 113.773L103.663 113.757L103.657 113.752L103.641 113.738L103.595 113.697L103.582 113.685L103.577 113.68L103.556 113.662L103.511 113.619L103.503 113.612L103.499 113.608L103.473 113.584L103.428 113.541L103.424 113.538L103.422 113.536C102.853 112.987 102.377 112.348 102.015 111.645L102.011 111.639L102.007 111.631L101.986 111.589L101.969 111.555L101.962 111.542L101.953 111.522L101.935 111.486L101.924 111.463L101.914 111.444L101.899 111.411L101.886 111.384L101.88 111.371L101.869 111.348L101.843 111.292L101.839 111.281L101.837 111.277C101.381 110.274 101.161 109.18 101.191 108.079L92.6479 108.067L90.047 137.794L89.8767 139.743C90.0279 139.709 90.0279 139.709 90.1828 139.676C92.1721 139.288 94.3983 139.491 96.5761 139.502C99.7484 139.53 102.881 140.208 105.782 141.493L105.889 141.541H121.77L122.1 137.765C122.086 137.721 122.09 137.673 122.112 137.633L124.234 113.386C124.25 113.154 124.284 112.924 124.334 112.697C124.547 111.675 125.004 110.719 125.665 109.912C126.278 109.141 127.053 108.514 127.934 108.074L127.935 108.075ZM124.906 113.461L122.806 137.469H133.506L135.611 113.398C135.801 110.651 133.727 108.27 130.98 108.081C130.95 108.079 130.92 108.077 130.89 108.076C130.823 108.076 130.752 108.076 130.682 108.076C127.701 108.213 125.256 110.487 124.903 113.451L124.906 113.461ZM91.9762 108.088L91.9295 108.091C89.0858 108.389 86.828 110.617 86.4931 113.457L84.3908 137.437H89.4043L91.9762 108.088ZM101.867 108.075C101.864 108.142 101.863 108.206 101.862 108.271C101.869 108.53 101.887 108.848 101.928 109.185C102.408 112.208 104.863 114.529 107.908 114.839H107.921L107.992 114.845H108.001L108.081 114.849H108.097L108.158 114.852H108.183H108.239H108.262H108.34C108.426 114.852 108.511 114.852 108.596 114.852H108.853C110.031 114.899 111.207 114.721 112.318 114.326C114.755 113.295 116.433 111.015 116.695 108.382L116.7 108.32L116.722 108.069L115.999 108.044C115.882 107.983 115.804 107.866 115.792 107.734V96.6238V96.6171C115.788 96.5872 115.784 96.4585 116 96.3147L116.129 96.2891C117.555 96.2891 119.009 96.486 120.241 95.8705C122.267 94.7981 122.932 91.6634 121.249 89.8995C120.689 89.3179 119.959 88.9289 119.163 88.7878C119.025 88.7632 118.885 88.7461 118.745 88.736C118.671 88.731 118.596 88.7283 118.522 88.7276H116.128L115.991 88.6984L115.973 88.69C115.858 88.6581 115.749 88.608 115.65 88.5412C115.106 88.2828 114.576 87.9948 114.063 87.6787C110.39 85.437 107.4 81.8535 106.011 78.153L106.006 78.1396L105.983 78.0764L105.959 78.0092C104.447 79.5655 102.514 80.646 100.396 81.118L100.384 81.1207L100.283 81.1426H100.277C99.6113 81.287 98.934 81.3693 98.2537 81.3882H98.2335H98.2224H98.1979H98.1559H98.0957H98.0598C96.474 81.3929 94.8945 81.4473 93.382 81.0858C91.7925 80.7031 90.3061 79.9764 89.0277 78.9567L89.0005 78.9345C89.0005 84.4758 88.9494 90.0174 89.0005 95.5584C89.0737 100.264 93.2079 104.606 98.1771 104.621H102.541C104.569 104.621 106.599 104.536 108.625 104.621C108.809 104.645 108.821 104.695 108.866 104.755C108.974 104.908 108.939 105.119 108.787 105.228C108.732 105.267 108.665 105.289 108.597 105.29H102.873V107.73C102.873 107.73 102.993 107.975 102.537 108.066L101.867 108.075ZM64.1169 88.4827C66.0656 88.4733 68.0163 88.4746 69.9653 88.5116C71.1398 88.5798 72.0769 89.5168 72.1451 90.6914C72.2617 96.8116 72.2617 102.933 72.1451 109.056C72.0766 110.23 71.1395 111.167 69.9653 111.235C61.0544 111.405 52.1419 111.405 43.2281 111.235C42.0522 111.168 41.1138 110.23 41.0462 109.054C40.9065 101.531 40.9065 94.0082 41.0462 86.4839C41.1148 85.3097 42.0518 84.3727 43.2261 84.3045C46.2106 84.2483 49.1961 84.285 52.1813 84.3045C52.9859 84.3404 53.7147 84.7913 54.1054 85.4958C56.7109 85.4958 59.3168 85.4797 61.9223 85.4958C63.1294 85.5516 64.0914 86.5249 64.1323 87.7328L64.1169 88.4827ZM55.8999 89.1832C54.7256 89.1147 53.7889 88.178 53.7204 87.0037C53.7012 86.0015 53.1559 84.9949 52.1749 84.9764C49.2119 84.9576 46.2492 84.9764 43.2869 84.9764C42.4416 85.0053 41.7599 85.6773 41.7189 86.5219C41.6715 94.0267 41.5798 101.533 41.7189 109.038C41.7676 109.867 42.4342 110.526 43.2644 110.565C52.1587 110.621 61.0551 110.733 69.9481 110.565C70.7777 110.517 71.4365 109.85 71.4745 109.02C71.5131 102.916 71.5901 96.8119 71.4745 90.7089C71.4261 89.8794 70.7588 89.2208 69.929 89.1829C65.2612 89.1533 60.5925 89.2706 55.9254 89.1829L55.8999 89.1832ZM11.7459 95.5584C8.64346 95.5493 5.54171 95.5584 2.43928 95.6182C1.60908 95.6656 0.949216 96.3332 0.911251 97.1637C0.887732 100.942 0.841367 104.721 0.911251 108.499C0.959631 109.329 1.62756 109.989 2.45843 110.027C8.76206 110.066 15.067 110.143 21.3697 110.027C22.1999 109.979 22.8597 109.312 22.8977 108.481V106.016L23.1167 105.701L23.3812 105.715L29.3985 108.671V96.9759L23.3812 99.9325L23.0018 99.8747L22.8977 99.6315C22.8977 97.8753 23.2367 95.6541 21.3502 95.6192C18.2481 95.5997 15.146 95.5708 12.0436 95.5607C11.9485 95.6027 11.8403 95.6021 11.7459 95.5584ZM142.206 99.7208C142.206 101.919 142.22 104.117 142.248 106.315C142.282 106.901 142.75 107.368 143.336 107.403C150.819 107.495 158.302 107.495 165.785 107.403C166.372 107.369 166.839 106.901 166.873 106.315C166.918 102.802 166.928 99.2894 166.905 95.7761L154.473 101.728C154.383 101.783 154.269 101.782 154.179 101.726L142.218 95.7848C142.21 97.0428 142.206 98.3007 142.206 99.5586C142.217 99.612 142.217 99.6674 142.205 99.7208H142.206ZM9.89162 99.3079C9.94168 99.3099 9.99107 99.317 10.0395 99.3298L16.4251 102.522C16.4251 102.522 16.7661 102.864 16.4251 103.122L10.0395 106.313L9.65913 106.257L9.55396 106.016V99.6301L9.77437 99.3146C9.80628 99.3093 9.83887 99.3069 9.87113 99.3076L9.89162 99.3079ZM10.2252 100.173V105.473L15.5246 102.824L10.2252 100.173ZM166.898 95.04C166.891 94.2232 166.883 93.4065 166.872 92.5897C166.839 92.0034 166.371 91.5354 165.784 91.5014C158.312 91.408 150.838 91.5014 143.365 91.5014C142.767 91.5213 142.283 91.993 142.247 92.59C142.237 93.4061 142.229 94.2225 142.222 95.0386L154.329 101.053L166.898 95.04ZM97.5679 99.1507C97.9375 99.1886 98.2993 99.6593 98.8057 99.827C99.7491 100.123 100.779 99.8979 101.513 99.236C101.616 99.1661 101.743 99.144 101.864 99.1745C102.122 99.2787 101.965 99.7343 101.965 99.7343C101.937 99.7591 101.91 99.783 101.883 99.8072C100.632 100.882 98.7731 100.786 97.3502 99.7578C97.1973 99.656 97.1563 99.4497 97.2578 99.2972C97.3263 99.1947 97.4456 99.1382 97.5679 99.1507ZM116.459 96.9594V100.237C118.371 100.04 119.899 98.5607 120.158 96.6567C120.158 96.6567 120.169 96.6406 120.151 96.6473C119.639 96.8479 119.095 96.9541 118.545 96.9604H116.459V96.9594ZM63.4614 88.486C63.4553 87.3733 63.0347 86.1873 61.9139 86.1678C59.4061 86.1523 56.8981 86.1678 54.3903 86.1678C54.3601 86.8105 54.5328 87.4469 54.8839 87.9861C55.1288 88.2979 55.496 88.4891 55.8918 88.5106H55.9388H59.4512C60.787 88.5045 62.1242 88.4934 63.4614 88.486ZM90.163 61.9894C89.6563 61.9867 89.153 62.0721 88.6756 62.2421C88.0987 62.4511 87.5689 62.7726 87.1173 63.1882C86.2364 63.9902 85.6834 65.0895 85.5648 66.2748L85.5466 66.338C85.5466 69.051 85.3753 71.8316 86.3264 74.2614C87.6831 77.5567 90.6283 79.9314 94.1366 80.558C94.6365 80.6446 95.1415 80.6984 95.6485 80.7189C95.7157 80.7209 95.7849 80.7226 95.8528 80.7233C96.564 80.7273 97.275 80.7233 97.9859 80.7233H98.0171C98.6058 80.7125 99.1927 80.6604 99.774 80.5674C101.213 80.3107 102.582 79.7563 103.794 78.9402L103.844 78.9066L103.878 78.8845C104.607 78.3838 105.271 77.7935 105.853 77.128L106.249 77.045C106.252 77.044 106.256 77.044 106.259 77.045C106.273 77.0483 106.286 77.0557 106.295 77.0665C106.359 77.1424 106.407 77.2304 106.436 77.3255C106.459 77.3856 106.483 77.4599 106.51 77.5466C107.201 79.7442 108.549 81.7127 110.165 83.4433C110.847 84.1694 111.567 84.8582 112.322 85.5069L112.327 85.5106L112.356 85.5358C112.508 85.6665 112.661 85.7952 112.817 85.9212C113.811 86.7437 114.903 87.4412 116.068 87.9972L116.095 88.01L116.196 88.0563C116.984 88.0563 117.773 88.0429 118.561 88.0563H118.583H118.6H118.624H118.657C119.181 88.0751 119.698 88.1847 120.185 88.3799L120.17 75.7105L120.162 75.5976L120.158 75.5458L120.153 75.4847L120.147 75.4175L120.143 75.3721L120.135 75.2969L120.131 75.2599L120.121 75.1803L120.118 75.1467L120.107 75.065L120.103 75.0348L120.091 74.9542L120.087 74.9233L120.075 74.846L120.069 74.8124L120.057 74.7395L120.05 74.7008L120.039 74.6353L120.03 74.5896L120.019 74.5325L120.008 74.4778L119.999 74.4314L119.985 74.3665L119.977 74.333L119.96 74.2557L119.955 74.2352L119.934 74.1435V74.1384C118.923 69.9723 115.014 66.5907 110.497 66.5769H95.3075L95.2897 66.5728C94.9231 66.4838 94.9359 65.8189 94.8021 65.3613C94.231 63.4083 92.2605 62.0203 90.2251 61.9874L90.163 61.9894ZM47.6166 68.7846H54.0547L54.3648 68.9919L54.3903 69.1202V82.5073H63.4617V69.1202C63.5602 68.6237 63.7977 68.7843 63.7977 68.7843H70.2357L58.9264 55.5894L47.6166 68.7846ZM64.1323 69.4566V77.8799H87.8524C87.7943 77.817 87.7365 77.7535 87.6794 77.69C87.5225 77.5133 87.3726 77.3316 87.2292 77.1448L87.2262 77.1411L87.2037 77.1118L87.1976 77.1041C86.0183 75.5741 85.2546 73.7651 84.9801 71.8528C84.9714 71.7899 84.963 71.7281 84.9553 71.6673C84.9466 71.6085 84.9382 71.549 84.9304 71.4896C84.8824 71.1959 84.8636 70.8982 84.8743 70.6009V66.2436L84.8804 66.1966C84.9694 65.5424 85.1542 64.9047 85.429 64.3043C85.4485 64.2654 85.4683 64.2264 85.4885 64.1881C85.5043 64.1578 85.5221 64.1269 85.5372 64.0967C86.8206 61.7522 90.0158 60.7443 92.4866 61.7905L92.5202 61.805L92.5497 61.8177L92.5578 61.8214L92.5649 61.8245L92.5864 61.8339L92.6129 61.846L92.6257 61.852L92.6354 61.8564L92.6522 61.8641L92.6761 61.8755L92.6932 61.8836L92.7043 61.889L92.7177 61.8954L92.7396 61.9061L92.7601 61.9162L92.7722 61.9222L92.7829 61.9276L92.8027 61.9377L92.8266 61.9498L92.8383 61.9558L92.8474 61.9605L92.8659 61.9703L92.8928 61.9844L92.9042 61.9908L92.9116 61.9945L92.9294 62.0045L92.9583 62.0203L92.9694 62.0264L92.9754 62.0297L92.9929 62.0398L93.0238 62.0573L93.0335 62.063L93.0389 62.066L93.0564 62.0764L93.0883 62.0953L93.0971 62.1006L93.1014 62.1033L93.1199 62.1147L93.1535 62.1346L93.1609 62.1393L93.1646 62.1416L93.1841 62.1541L93.2177 62.1749L93.2237 62.1789L93.2271 62.1809L93.2486 62.195L93.2822 62.2162L93.2869 62.2192L93.2896 62.2213L93.3138 62.2374L93.3447 62.2585L93.35 62.2622L93.3786 62.2821L93.4072 62.3019L93.4109 62.3046L93.4461 62.3301L93.469 62.3466L93.5285 62.3913C94.6489 63.2504 95.3925 64.5106 95.6028 65.9066C100.586 65.9066 105.57 65.8609 110.554 65.9066H110.624C115.571 65.9835 120.198 69.9719 120.792 75.1363C120.806 75.2508 120.817 75.3668 120.826 75.4827L120.831 75.5519L120.856 75.69V76.0058C126.542 72.9904 130.053 66.2903 129.276 59.8701C128.352 52.2279 121.38 45.7775 113.33 45.7519H107.712L107.393 45.5184C107.393 45.5184 107.498 44.3206 107.539 43.2737C107.953 32.6662 101.917 22.1296 92.459 17.1363C82.6196 11.9417 69.6797 13.2231 60.992 20.6096C56.4368 24.5006 53.2201 29.7247 51.7966 35.5439L51.4744 35.8002C50.8854 35.6763 50.0609 35.2355 49.2549 35.0167C42.1103 33.0808 34.749 37.3034 32.8131 44.448C32.3451 46.1753 32.2278 47.9788 32.468 49.7521L32.2738 50.1008C31.8579 50.1909 30.8167 50.1563 29.9858 50.2782C22.4078 51.394 17.1693 58.4418 18.285 66.0198C18.703 68.8585 19.9911 71.4973 21.9714 73.5733C24.5998 76.3051 28.2209 77.858 32.0118 77.8789H53.7184V69.4556H46.8872L46.863 69.4505C46.6762 69.4307 46.5412 69.263 46.561 69.0762C46.5677 69.0124 46.5926 68.9523 46.6322 68.9019L58.671 54.8553C58.7883 54.7807 58.9284 54.7501 59.0661 54.7689L59.1807 54.8553L71.2205 68.9019C71.3569 69.1407 71.3132 69.3786 70.9877 69.4508H70.9856L70.9658 69.4549L64.1323 69.4566ZM148.374 60.2988C148.374 64.5002 148.401 68.7013 148.455 72.9023C148.489 73.4947 148.961 73.9671 149.554 74.0013C154.11 74.0588 158.666 74.0588 163.224 74.0013C163.816 73.9671 164.289 73.4947 164.322 72.9023C164.43 64.3749 164.43 55.8467 164.322 47.3183C164.288 46.7263 163.816 46.2539 163.224 46.2189C158.678 46.1611 154.131 46.2189 149.585 46.2189C148.98 46.2371 148.489 46.7145 148.455 47.3186C148.402 51.5244 148.375 55.7305 148.374 59.9373C148.436 60.0495 148.436 60.1856 148.374 60.2978V60.2988ZM156.412 70.7141H156.424C156.759 70.7356 157.071 70.8935 157.287 71.1509C157.794 71.7083 157.935 72.6628 157.216 73.1789L157.211 73.1829L157.199 73.1913C157.117 73.2481 157.03 73.2968 156.939 73.3361H156.937L156.924 73.3418C156.686 73.4392 156.422 73.456 156.173 73.3902C155.465 73.2222 154.843 72.5062 155.076 71.7016V71.6965L155.079 71.6858V71.6824C155.103 71.6055 155.133 71.5309 155.17 71.4593C155.379 71.0242 155.81 70.7393 156.293 70.7178H156.304H156.315H156.323C156.348 70.7178 156.373 70.7155 156.399 70.7155L156.412 70.7141ZM156.495 72.7673C157.1 72.6282 157.207 71.3743 156.371 71.3851C155.926 71.4019 155.625 72.0144 155.78 72.4222C155.87 72.642 156.087 72.7834 156.324 72.7777L156.371 72.7797C156.403 72.7807 156.436 72.7784 156.468 72.7727L156.495 72.7673ZM163.426 49.2266L163.633 49.5364V69.5473C163.578 69.8265 163.479 69.8977 163.403 69.9068H163.39C163.358 69.9078 163.326 69.899 163.298 69.8822H149.48L149.435 69.8725C148.993 69.7687 149.144 69.5466 149.144 69.5466V49.5357L149.242 49.2985C149.31 49.2434 149.393 49.2091 149.48 49.2004H163.298L163.426 49.2266ZM162.962 49.872H149.815V69.2116H162.962V49.872ZM78.3543 17.8828C85.1203 17.991 91.2371 23.8186 91.2593 30.947V34.4234C92.0653 34.6666 92.6808 35.3201 92.8756 36.1389L92.8797 36.1557L92.8814 36.1644V36.1722V36.1816L92.8851 36.1984L92.8887 36.2189V36.2252V36.2289C92.8978 36.2793 92.9052 36.3297 92.9103 36.3828V36.3919L92.9126 36.4157V36.4332V36.4403V36.4467V36.4601V36.485V36.4987C92.9126 36.5155 92.9126 36.5323 92.9126 36.5498C92.9492 42.4543 93.0208 48.3605 92.9126 54.2639C92.8451 55.4399 91.9067 56.3783 90.7308 56.4458C86.8109 56.5194 82.8894 56.5583 78.9658 56.563H78.1813C73.998 56.563 69.8151 56.5237 65.6318 56.4454C64.4559 56.3779 63.5175 55.4395 63.45 54.2636C63.3411 48.3504 63.3411 42.4365 63.45 36.5216L63.452 36.4772V36.4645C63.4721 36.115 63.579 35.776 63.7631 35.4784C64.0658 34.97 64.5476 34.5931 65.1141 34.4221C65.1063 31.9872 64.9998 29.5578 65.6375 27.2953L65.6668 27.1945L65.6691 27.1864L65.6762 27.1626L65.701 27.0802V27.0755V27.0735L65.7165 27.0225L65.7346 26.964V26.962C65.7467 26.924 65.7592 26.8864 65.7716 26.8484C67.5775 21.63 72.4149 18.0663 77.934 17.8885C78.0425 17.8869 78.1504 17.8862 78.2589 17.8865L78.3543 17.8828ZM70.1181 35.0103H65.7004C64.8691 35.0389 64.1935 35.6897 64.1337 36.5192V36.5575C64.0967 42.4543 64.0255 48.3521 64.1337 54.2475C64.1811 55.0777 64.8486 55.7375 65.6792 55.7755C70.6362 55.8064 75.5939 55.8558 80.5513 55.8578H81.3334C84.4644 55.8558 87.5951 55.8336 90.7254 55.7752C91.5556 55.7278 92.2151 55.0602 92.2531 54.2297C92.2897 48.3332 92.3613 42.4368 92.2531 36.5401V36.5038V36.496L92.2511 36.4668V36.4588L92.2484 36.4305V36.4215L92.2454 36.3953V36.3825L92.242 36.362L92.239 36.3418V36.3321C92.0841 35.7028 91.5989 35.2079 90.973 35.0406C90.8877 35.0231 90.801 35.0137 90.714 35.012H86.2757C86.2307 35.0312 86.1799 35.0312 86.1349 35.012H70.2881C70.2357 35.0439 70.1699 35.0433 70.1181 35.0103ZM107.406 35.2687C107.478 35.2654 107.551 35.2627 107.623 35.2603C107.695 35.258 107.769 35.257 107.846 35.2566C107.901 35.2566 107.957 35.2566 108.013 35.2566C113.36 35.3312 118.2 40.1179 118.055 45.7291C119.339 46.1578 120.581 46.7048 121.764 47.3623C123.482 48.3719 125.009 49.6758 126.275 51.2143L126.309 51.2549C126.484 50.6989 126.703 49.916 126.703 49.916C126.777 49.8226 126.89 49.7689 127.009 49.7702L131.655 50.1647C132.107 47.8864 132.232 45.555 132.026 43.2412L127.359 43.0866C127.359 43.0866 127.138 43.3708 126.942 42.1963C126.702 40.7996 126.313 39.4328 125.78 38.1198C125.78 38.1198 125.61 37.9764 125.918 37.7062L129.908 35.2946C128.934 33.186 127.665 31.2266 126.139 29.4751L122.272 32.0934C122.272 32.0934 122.26 32.4529 121.411 31.6183C120.397 30.6292 119.278 29.7523 118.075 29.0031C118.075 29.0031 117.854 28.9873 117.943 28.5878L119.754 24.2916C117.727 23.157 115.549 22.3174 113.285 21.7987L111.695 26.1896C111.695 26.1896 111.897 26.4879 110.721 26.3119C109.319 26.1076 107.899 26.0555 106.485 26.1563C106.485 26.1563 106.296 26.2742 106.134 25.8979L105.074 21.3579C103.492 21.5457 101.932 21.887 100.416 22.3772C100.416 22.3772 101.352 23.3946 102.04 24.2681C104.117 26.9082 105.72 29.8884 106.778 33.0761C106.952 33.5989 107.112 34.1294 107.256 34.6677C107.307 34.8676 107.357 35.0681 107.405 35.2687H107.406ZM76.7746 50.8215C76.7698 50.8225 76.7651 50.8232 76.7604 50.8235H76.7497C76.7013 50.8235 76.5887 50.7993 76.4651 50.6139L76.4392 50.4855V46.5677C76.2699 46.476 76.1107 46.3668 75.9642 46.2414C73.8367 44.5101 74.6656 40.1179 78.057 39.967L78.148 39.965H78.2387L78.2989 39.967C80.8369 40.0678 82.6753 43.4437 81.0085 45.6363C80.7206 46.0143 80.3598 46.3311 79.9475 46.568V50.4862L79.7406 50.7963L79.6119 50.8218L76.7746 50.8215ZM79.2762 46.3668C79.3354 46.0483 79.7009 45.9488 79.9217 45.7815C81.7433 44.3993 81.0603 40.6897 78.2303 40.636H78.1561C75.7035 40.6827 74.2046 44.6879 76.9264 46.0674C76.9264 46.0674 77.0608 46.0946 77.1102 46.3668V50.1502H79.2762V46.3668ZM158.603 48.3692H154.174C153.814 48.3564 153.741 47.7134 154.174 47.6972C155.658 47.6972 157.143 47.6448 158.626 47.6972C158.973 47.7359 159.02 48.3541 158.603 48.3692ZM117.384 45.6283V45.6159C117.465 40.5033 112.977 35.7623 107.559 35.9353C108.202 38.8936 108.383 41.9335 108.096 44.9473L108.083 45.0816C109.903 45.0816 111.723 45.0655 113.543 45.0816C114.841 45.1048 116.131 45.2886 117.384 45.6283ZM78.1164 18.5531C71.7261 18.6122 65.8196 24.0779 65.7985 30.948V34.3374C67.1256 34.3129 68.453 34.2947 69.7805 34.2826C69.7607 32.3003 69.6226 30.3292 70.2579 28.526C70.2713 28.4873 70.2855 28.449 70.2996 28.4111L70.3107 28.3805C70.3298 28.3294 70.3496 28.2797 70.3698 28.2279L70.3859 28.187L70.398 28.1581V28.1544L70.4051 28.1376L70.4242 28.0902L70.4272 28.0835C71.7574 25.0187 74.7426 23.0018 78.0822 22.9118C78.1369 22.9118 78.1914 22.9118 78.2461 22.9118C78.7484 22.9168 79.2487 22.9706 79.7406 23.0724C80.2996 23.1647 80.8466 23.3193 81.3711 23.5333C84.4342 24.8309 86.4716 27.7821 86.5989 31.1063V31.1627V31.2017V31.2242C86.5989 31.2578 86.5989 31.289 86.5989 31.3213V34.3115C87.927 34.3213 89.2551 34.3303 90.5826 34.3387C90.5826 31.9224 90.7076 29.508 90.0245 27.2714L90.0165 27.2445L89.9913 27.1639L89.9557 27.0544C88.2428 22.1044 83.6544 18.7235 78.4192 18.5541L78.2649 18.5524L78.1164 18.5531ZM85.3766 28.4336C84.0478 25.1652 80.2445 23.1409 76.746 23.7332C73.401 24.4552 70.8858 27.2254 70.4887 30.6241L70.4867 30.6436L70.4803 30.7152V30.7364L70.4739 30.8197L70.4716 30.8499L70.4682 30.9074L70.4662 30.941L70.4629 31.0038V31.0283L70.4598 31.1123V31.1402V31.2044V31.2316V31.32V34.2766C75.6195 34.2346 80.7797 34.2695 85.9397 34.3068C85.9397 32.6236 86.0711 30.9369 85.6881 29.3767L85.6837 29.3595L85.6726 29.3155C85.6131 29.082 85.5412 28.8519 85.4576 28.6257L85.4441 28.5921L85.429 28.5518L85.4126 28.5102L85.3911 28.4557L85.3766 28.4336ZM31.5108 0.795296H4.09532V32.9404H31.5112L31.5108 0.795296ZM154.326 12.6194H150.281V26.8729C150.183 27.3631 149.951 27.2126 149.945 27.2089H138.93V31.9593H154.326V12.6194ZM145.957 7.19804H134.213V26.5373H138.424C138.476 26.5047 138.542 26.5047 138.594 26.5373H149.61V11.5577H146.293C145.796 11.4569 145.957 11.2217 145.957 11.2217L145.957 7.19804ZM6.73611 26.0458C6.71998 26.0511 6.70319 26.0545 6.68605 26.0552H6.67563C6.59634 26.0552 6.45994 26.0091 6.40047 25.7098V3.57585C6.42835 3.43542 6.73645 3.23988 6.73645 3.23988H28.8707L28.9991 3.26541L29.2064 3.57552V25.7098C29.1492 25.9954 29.0226 26.0508 28.9423 26.0548H28.9312C28.9107 26.0552 28.8902 26.0518 28.8707 26.0451L6.73611 26.0458ZM18.4776 17.6594L18.0764 17.649L13.7886 14.2774L7.07175 17.9776V25.3745H28.5347V20.3976L22.1485 15.0663L18.4776 17.6594ZM28.5347 3.91183H7.07175V17.2119L13.6593 13.5833C13.705 13.5652 13.7527 13.5537 13.8017 13.5497H13.8239C13.8958 13.5558 13.9657 13.5773 14.0289 13.6125L18.2958 16.9666L21.9734 14.3688C22.1011 14.3272 22.2392 14.3302 22.3648 14.3769L22.3823 14.3853L28.5361 19.5234L28.5347 3.91183ZM18.3613 7.7047C20.2616 7.78264 21.6368 10.4866 20.0486 12.0388C19.636 12.4269 19.0911 12.6429 18.5246 12.6436H18.4779C17.0426 12.6533 15.5052 11.5382 15.7901 9.81598C16.0185 8.59907 17.0772 7.71444 18.3153 7.70503L18.3613 7.7047ZM18.2605 8.37464C16.6834 8.4042 15.616 11.0877 17.5422 11.9306C17.7357 12.0143 17.9444 12.0573 18.155 12.0566H18.1886C19.378 12.0358 20.5983 10.755 19.9575 9.42659C19.6424 8.7936 19.0013 8.38841 18.2944 8.37497L18.2605 8.37464ZM146.629 10.8868H149.227L146.629 7.78567V10.8868Z" fill="#828282"/>
<path fill-rule="evenodd" clip-rule="evenodd" d="M124.903 113.46L122.802 137.467H133.502L135.608 113.397C135.797 110.65 133.723 108.27 130.975 108.081C130.947 108.079 130.918 108.077 130.89 108.076C130.823 108.076 130.752 108.076 130.682 108.076C127.701 108.213 125.256 110.487 124.903 113.451L124.903 113.46ZM91.973 108.086L91.9263 108.09C89.0825 108.387 86.8248 110.616 86.4898 113.455L84.3906 137.437H89.4041L91.973 108.086ZM11.7456 95.5584C8.64321 95.5494 5.54145 95.5584 2.43903 95.6182C1.60882 95.6656 0.948961 96.3332 0.910996 97.1637C0.887477 100.942 0.841112 104.721 0.910996 108.499C0.959376 109.329 1.6273 109.989 2.45818 110.027C8.76181 110.066 15.0668 110.143 21.3694 110.027C22.1996 109.979 22.8595 109.312 22.8974 108.481V106.016L23.1165 105.701L23.3809 105.715L29.3983 108.671V96.9759L23.3809 99.9325L23.0016 99.8747L22.8974 99.6315C22.8974 97.8753 23.2364 95.6542 21.3499 95.6192C18.2478 95.5997 15.1457 95.5709 12.0433 95.5608C11.9482 95.6028 11.84 95.6021 11.7456 95.5584ZM9.89137 99.3079C9.94143 99.31 9.99082 99.317 10.0392 99.3298L16.4248 102.522C16.4248 102.522 16.7658 102.864 16.4248 103.122L10.0392 106.313L9.65887 106.257L9.55371 106.016V99.6301L9.77411 99.3147C9.80603 99.3093 9.83862 99.3069 9.87087 99.3076L9.89137 99.3079ZM148.374 60.2978C148.374 64.4992 148.401 68.7003 148.454 72.9014C148.489 73.4937 148.961 73.9661 149.553 74.0004C154.11 74.0578 158.666 74.0578 163.224 74.0004C163.816 73.9661 164.288 73.4937 164.322 72.9014C164.43 64.3739 164.43 55.8457 164.322 47.3173C164.288 46.7253 163.816 46.2529 163.224 46.2179C158.678 46.1602 154.131 46.2179 149.585 46.2179C148.98 46.2361 148.489 46.7135 148.454 47.3176C148.402 51.5234 148.375 55.7295 148.374 59.9363C148.436 60.0488 148.436 60.1852 148.374 60.2978ZM156.412 70.7131H156.424C156.759 70.7346 157.071 70.8926 157.287 71.1499C157.794 71.7073 157.935 72.6618 157.216 73.1779L157.211 73.1819L157.199 73.1903C157.117 73.2471 157.03 73.2958 156.939 73.3351H156.937L156.924 73.3408C156.685 73.4383 156.422 73.4551 156.173 73.3892C155.465 73.2212 154.842 72.5052 155.075 71.7006V71.6955L155.078 71.6848V71.6814C155.102 71.6045 155.133 71.5299 155.17 71.4583C155.379 71.0233 155.81 70.7383 156.292 70.7168H156.304H156.315H156.322C156.347 70.7168 156.373 70.7145 156.399 70.7145L156.412 70.7131ZM163.426 49.2256L163.633 49.5354V69.5463C163.578 69.8255 163.478 69.8967 163.402 69.9058H163.39C163.357 69.9068 163.325 69.8981 163.298 69.8813H149.479L149.434 69.8715C148.993 69.7677 149.144 69.5456 149.144 69.5456V49.5347L149.242 49.2975C149.31 49.2424 149.392 49.2082 149.479 49.1994H163.298L163.426 49.2256ZM158.603 48.3692C159.02 48.3538 158.972 47.7359 158.626 47.6973C157.143 47.6442 155.658 47.6973 154.174 47.6973C153.741 47.7127 153.815 48.3558 154.174 48.3692H158.603Z" fill="#F48850"/>
<path fill-rule="evenodd" clip-rule="evenodd" d="M106.157 150.499V150.503C106.187 151.16 105.969 151.805 105.547 152.309C105.385 152.533 105.194 152.736 104.978 152.91L126.466 152.891L106.157 150.497V150.499ZM102.254 149.936C101.228 149.649 100.22 149.3 99.2353 148.891C97.9585 148.387 96.578 148.913 95.6141 150.096L102.972 150.124C102.907 150.11 102.842 150.095 102.777 150.08C102.603 150.039 102.428 149.99 102.254 149.936ZM127.932 108.073C127.051 108.516 126.276 109.147 125.664 109.921C125.003 110.729 124.547 111.684 124.334 112.706C124.283 112.933 124.25 113.163 124.233 113.395L122.112 137.642C122.09 137.682 122.085 137.73 122.1 137.774L121.77 141.55H105.889L105.781 141.502C102.881 140.217 99.748 139.539 96.5756 139.511C94.3978 139.5 92.1716 139.297 90.1823 139.685C90.0274 139.716 90.0274 139.716 89.8762 139.752L90.0466 137.803L92.6474 108.076L101.191 108.088C101.16 109.189 101.381 110.283 101.836 111.286L101.838 111.29L101.843 111.301L101.868 111.357L101.879 111.38L101.885 111.393L101.898 111.42L101.914 111.454L101.923 111.472L101.935 111.496L101.952 111.532L101.962 111.551L101.968 111.564L101.985 111.598L102.007 111.64L102.011 111.648L102.014 111.654C102.377 112.357 102.852 112.996 103.422 113.545L103.424 113.547L103.427 113.55L103.472 113.593L103.498 113.617L103.502 113.621L103.51 113.628L103.556 113.671L103.576 113.69L103.581 113.694L103.595 113.706L103.641 113.747L103.657 113.761L103.662 113.766L103.682 113.783L103.727 113.822L103.739 113.832L103.744 113.837L103.77 113.859L103.814 113.895L103.823 113.902L103.827 113.906L103.861 113.934L103.901 113.968L103.907 113.972L103.91 113.975L103.958 114.012L103.992 114.038H103.994C104.024 114.061 104.053 114.083 104.083 114.105C104.107 114.124 104.131 114.141 104.156 114.159C105.65 115.234 107.576 115.517 109.488 115.528H109.676H109.774H109.802H109.867H109.872H109.902L109.963 115.526H109.97H109.995L110.058 115.522H110.068H110.086L110.153 115.518H110.163H110.172C114.053 115.222 117.053 111.903 117.387 108.084L127.932 108.073ZM10.2248 100.173V105.473L15.5242 102.824L10.2248 100.173ZM63.4609 88.4861C63.4549 87.3733 63.0342 86.1873 61.9134 86.1678C59.4057 86.1524 56.8976 86.1678 54.3898 86.1678C54.3596 86.8105 54.5323 87.4469 54.8834 87.9861C55.1283 88.2979 55.4956 88.4891 55.8913 88.5106H55.9384H59.4507C60.7865 88.5046 62.1237 88.4935 63.4609 88.4861ZM70.9643 69.4556L70.9842 69.4515H70.9862C71.3117 69.3793 71.3557 69.1414 71.219 68.9026L59.1802 54.856L59.0657 54.7696C58.9279 54.7508 58.7878 54.7814 58.6705 54.856L46.6318 68.9026C46.5155 69.05 46.5407 69.2637 46.6882 69.38C46.7386 69.4196 46.7991 69.4442 46.8626 69.4512L46.8868 69.4562H53.7186V77.8796H32.0113C24.3453 77.8759 18.1337 71.6586 18.1371 63.9926C18.1378 62.7135 18.3152 61.4408 18.6642 60.2105C20.2245 55.0051 24.6211 51.1488 29.9854 50.2803C30.8162 50.1583 31.8574 50.1929 32.2734 50.1029L32.4676 49.7541C31.4741 42.419 36.6149 35.6672 43.9503 34.6737C45.7236 34.4335 47.5271 34.5508 49.2544 35.0188C50.0608 35.2375 50.8849 35.6783 51.4739 35.8023L51.7961 35.5459C53.2196 29.7268 56.4363 24.5026 60.9915 20.6117C69.6785 13.2252 82.6191 11.9434 92.4586 17.1383C101.916 22.1317 107.953 32.6683 107.539 43.2775C107.498 44.3244 107.392 45.5221 107.392 45.5221L107.712 45.7557H113.329C121.379 45.7812 128.352 52.2316 129.275 59.8738C130.052 66.294 126.541 72.9941 120.855 76.0095V75.6937L120.831 75.5556L120.825 75.4864C120.816 75.3705 120.805 75.2546 120.792 75.14C120.197 69.976 115.571 65.9873 110.624 65.9103H110.553C105.57 65.8646 100.587 65.9103 95.602 65.9103C95.3927 64.5137 94.6495 63.2524 93.529 62.3926L93.4695 62.348L93.4467 62.3315L93.4114 62.306L93.4077 62.3033L93.3791 62.2834L93.3506 62.2636L93.3452 62.2599L93.3143 62.2388L93.2901 62.2226L93.2874 62.2206L93.2827 62.2176L93.2491 62.1964L93.2276 62.1823L93.2243 62.1803L93.2182 62.1763L93.1846 62.1554L93.1651 62.143L93.1614 62.1407L93.154 62.1359L93.1204 62.1161L93.102 62.1047L93.0976 62.102L93.0889 62.0966L93.0569 62.0778L93.0395 62.0674L93.0341 62.0644L93.0244 62.0587L92.9934 62.0412L92.976 62.0311L92.9699 62.0278L92.9588 62.0217L92.9299 62.0059L92.9121 61.9958L92.9047 61.9921L92.8933 61.9858L92.8665 61.9717L92.848 61.9619L92.8389 61.9572L92.8271 61.9512L92.8033 61.9391L92.7835 61.929L92.7727 61.9236L92.7606 61.9176L92.7401 61.9075L92.7183 61.8967L92.7048 61.8904L92.6938 61.885L92.6766 61.8769L92.6528 61.8655L92.636 61.8578L92.6262 61.8534L92.6135 61.8473L92.5869 61.8353L92.5654 61.8258L92.5584 61.8228L92.5503 61.8191L92.5207 61.8064L92.4871 61.7919C90.0163 60.7457 86.8212 61.7536 85.5377 64.0981C85.5213 64.1283 85.5041 64.1592 85.489 64.1894C85.4689 64.2277 85.449 64.2667 85.4296 64.3057C85.1547 64.9061 84.9699 65.5438 84.8809 66.1979L84.8749 66.245V70.6003C84.8641 70.8976 84.8829 71.1953 84.931 71.4889C84.9387 71.5484 84.9471 71.6079 84.9558 71.6667C84.9646 71.7254 84.972 71.7893 84.9807 71.8521C85.2552 73.7645 86.0189 75.5734 87.1982 77.1035L87.2042 77.1112L87.2267 77.1404L87.2304 77.1451C87.3742 77.3323 87.5244 77.514 87.6806 77.6904C87.7377 77.7539 87.7955 77.8174 87.8536 77.8802H64.1309V69.4556H70.9643ZM156.495 72.7663C157.099 72.6272 157.207 71.3733 156.37 71.3841C155.925 71.4009 155.624 72.0134 155.779 72.4213C155.869 72.641 156.086 72.7824 156.324 72.7767L156.37 72.7787C156.403 72.7797 156.435 72.7774 156.468 72.7717L156.495 72.7663ZM162.962 49.871V69.2107H149.815V49.871H162.962ZM78.3539 17.8829C85.1198 17.991 91.2366 23.8186 91.2588 30.9471V34.4234C92.0648 34.6667 92.6803 35.3202 92.8752 36.1389L92.8792 36.1557L92.8809 36.1645V36.1722V36.1816L92.8846 36.1984L92.8883 36.2189V36.2253V36.229C92.8974 36.2794 92.9048 36.3298 92.9098 36.3829V36.3919L92.9121 36.4158V36.4332V36.4403V36.4467V36.4601V36.485V36.4988C92.9121 36.5156 92.9121 36.5324 92.9121 36.5498C92.9488 42.4543 93.0203 48.3605 92.9121 54.264C92.8446 55.4399 91.9062 56.3783 90.7303 56.4458C86.8104 56.5194 82.8889 56.5584 78.9653 56.5631H78.1808C73.9975 56.5631 69.8146 56.5238 65.6313 56.4455C64.4554 56.378 63.517 55.4396 63.4495 54.2636C63.3407 48.3504 63.3407 42.4365 63.4495 36.5216L63.4515 36.4773V36.4645C63.4717 36.1151 63.5785 35.7761 63.7626 35.4784C64.0654 34.9701 64.5472 34.5931 65.1136 34.4221C65.1059 31.9872 64.9994 29.5578 65.6371 27.2953L65.6663 27.1945L65.6686 27.1864L65.6757 27.1626L65.7006 27.0803V27.0756V27.0736L65.716 27.0225L65.7342 26.964V26.962C65.7463 26.924 65.7587 26.8864 65.7711 26.8485C67.577 21.63 72.4144 18.0663 77.9335 17.8886C78.0421 17.8869 78.1499 17.8862 78.2584 17.8866L78.3539 17.8829ZM85.3758 28.4326C84.047 25.1642 80.2437 23.1399 76.7452 23.7323C73.4002 24.4543 70.885 27.2244 70.4879 30.6232L70.4859 30.6427L70.4795 30.7142V30.7354L70.4731 30.8187L70.4708 30.8489L70.4674 30.9064L70.4654 30.94L70.462 31.0028V31.0274L70.459 31.1113V31.1392V31.2034V31.2306V31.319V34.2756C75.6186 34.2336 80.7789 34.2685 85.9389 34.3058C85.9389 32.6226 86.0703 30.936 85.6873 29.3757L85.6829 29.3586L85.6718 29.3145C85.6123 29.081 85.5404 28.8509 85.4568 28.6248L85.4433 28.5912L85.4282 28.5509L85.4118 28.5092L85.3903 28.4548L85.3758 28.4326ZM28.5343 3.91187V19.5238L22.3805 14.3857L22.363 14.3773C22.2374 14.3306 22.0993 14.3275 21.9716 14.3692L18.294 16.967L14.0271 13.6129C13.9639 13.5776 13.894 13.5561 13.8221 13.5501H13.8013C13.7522 13.5541 13.7045 13.5655 13.6588 13.5837L7.07129 17.2122V3.91187H28.5343ZM18.3608 7.70473C20.2611 7.78268 21.6363 10.4866 20.0481 12.0389C19.6355 12.4269 19.0906 12.6429 18.5241 12.6436H18.4774C17.0421 12.6534 15.5047 11.5382 15.7896 9.81602C16.0181 8.5991 17.0767 7.71447 18.3148 7.70506L18.3608 7.70473Z" fill="#3F3F3F"/>
</svg>
