<svg width="168" height="162" viewBox="0 0 168 162" fill="none" xmlns="http://www.w3.org/2000/svg">
<path fill-rule="evenodd" clip-rule="evenodd" d="M16.3689 126.464C17.7991 126.489 19.1209 127.023 20.161 127.894C19.1585 129.077 17.7192 129.89 16.053 130.033C14.3862 130.175 12.8297 129.618 11.6406 128.623C12.6432 127.44 14.0832 126.627 15.7493 126.485C15.9576 126.467 16.1646 126.461 16.3689 126.464ZM153.715 125.613C153.919 125.609 154.126 125.616 154.334 125.634C156.001 125.776 157.44 126.59 158.442 127.772C157.253 128.768 155.697 129.324 154.031 129.182C152.365 129.04 150.925 128.227 149.922 127.044C150.962 126.172 152.284 125.637 153.715 125.613ZM24.6682 120.159C25.0949 121.65 24.9702 123.299 24.1629 124.763C23.3555 126.228 22.0281 127.214 20.5394 127.649C20.1127 126.158 20.2373 124.51 21.0447 123.045C21.8517 121.58 23.1791 120.594 24.6682 120.159ZM145.416 119.308C146.904 119.743 148.232 120.729 149.039 122.194C149.846 123.659 149.971 125.308 149.544 126.798C148.055 126.363 146.728 125.377 145.921 123.912C145.113 122.448 144.988 120.799 145.416 119.308ZM158.33 120.257C159.76 120.305 161.073 120.862 162.099 121.751C161.078 122.917 159.624 123.706 157.955 123.821C156.289 123.935 154.744 123.355 153.572 122.342C153.632 122.276 153.693 122.21 153.753 122.145C154.762 121.088 156.138 120.377 157.711 120.268C157.919 120.253 158.126 120.25 158.33 120.257ZM152.892 113.558C154.037 114.605 154.795 116.074 154.875 117.745C154.955 119.416 154.34 120.95 153.3 122.101C152.156 121.054 151.398 119.585 151.318 117.914C151.239 116.254 151.845 114.727 152.892 113.558ZM142.44 113.41C143.871 113.443 145.189 113.986 146.225 114.864C145.215 116.041 143.77 116.845 142.102 116.977C140.435 117.109 138.882 116.543 137.699 115.54C138.709 114.362 140.153 113.559 141.821 113.427C142.03 113.41 142.236 113.405 142.44 113.41ZM132.957 107.981C134.458 108.37 135.816 109.314 136.668 110.753C137.52 112.192 137.695 113.836 137.315 115.34C135.814 114.95 134.456 114.006 133.604 112.567C132.752 111.129 132.576 109.484 132.957 107.981ZM145.09 107.196C145.294 107.192 145.501 107.199 145.709 107.217C147.375 107.359 148.816 108.172 149.819 109.355C148.63 110.35 147.072 110.907 145.405 110.764C143.739 110.622 142.299 109.81 141.297 108.627C142.337 107.755 143.659 107.22 145.09 107.196ZM136.79 100.891C138.279 101.325 139.606 102.312 140.414 103.777C141.221 105.242 141.346 106.891 140.919 108.381C139.43 107.947 138.103 106.96 137.295 105.496C136.488 104.031 136.364 102.382 136.79 100.891ZM149.33 105.403C147.664 105.518 146.119 104.938 144.948 103.925C145.044 103.819 145.145 103.714 145.244 103.608C146.241 102.617 147.573 101.955 149.086 101.851C149.294 101.836 149.501 101.833 149.705 101.839C151.135 101.887 152.449 102.444 153.474 103.333C152.453 104.499 151 105.288 149.331 105.403H149.33ZM144.268 95.1407C145.412 96.1873 146.17 97.6569 146.25 99.3277C146.329 100.998 145.715 102.533 144.675 103.683C143.53 102.637 142.773 101.167 142.693 99.4973V99.4967C142.613 97.8259 143.228 96.2914 144.268 95.1407ZM37.7697 61.1236L36.2487 61.3214C36.1654 61.3322 36.1029 61.4041 36.1029 61.4878C36.1029 61.4975 36.1036 61.5072 36.1052 61.5166C36.3774 63.0494 36.0559 64.5102 34.8077 65.9321C34.7842 65.959 34.7697 65.9926 34.7664 66.0278C33.4883 74.3477 32.1646 79.6266 29.7354 82.0107C27.8959 83.7379 25.0499 83.7867 23.1526 82.1229C21.255 80.4588 20.9311 77.6295 22.404 75.58C22.777 75.0613 23.0783 74.6417 23.2484 74.4048C23.3481 74.2664 23.452 74.1313 23.5605 73.9996V73.9989C25.1742 72.0321 26.1529 69.6218 26.3669 67.0872C26.459 65.9983 26.5547 64.8674 26.6303 63.9737C26.7197 62.917 27.2186 61.937 28.0213 61.2438C28.6304 60.7177 29.2234 60.206 29.2234 60.206C29.2294 60.2003 29.2352 60.1946 29.2402 60.1882C29.2402 60.1882 29.3544 60.0562 29.5352 59.8458C30.8028 58.3749 32.6259 57.5212 34.5419 57.4701C34.8158 57.4631 35.0909 57.4718 35.3671 57.4977C36.2447 57.5807 37.2009 57.671 38.1369 57.7594C39.3585 57.8746 40.4615 58.5372 41.1362 59.5616C41.8112 60.5863 41.9845 61.861 41.6086 63.0285C41.2702 64.0781 41.1197 64.5472 40.9931 64.9396C40.8946 64.3741 40.7905 63.7751 40.7045 63.2829C40.4632 61.8953 39.1677 60.9415 37.771 61.1232L37.7697 61.1236Z" fill="#D25412"/>
<path fill-rule="evenodd" clip-rule="evenodd" d="M35.8103 102.946C35.8197 103.119 35.9252 105.011 36.0237 106.77C36.1198 108.477 36.6294 110.133 37.5097 111.598L38.7921 113.732L37.1576 130.609C37.1573 130.615 37.1569 130.62 37.1569 130.625C37.1569 130.769 37.1495 130.914 37.1348 131.06V131.06C37.1082 131.325 37.0581 131.58 36.9873 131.826C36.9859 131.832 36.9849 131.837 36.9839 131.842L34.8968 142.678L33.1171 144.805C33.1171 144.805 31.8989 146.261 30.9511 147.395C30.2862 148.189 30.3917 149.377 31.1863 150.042C31.7389 150.504 32.4562 151.104 33.1598 151.692L32.345 155.925L26.031 155.288L27.2943 142.739C27.2993 142.721 27.3013 142.702 27.3003 142.684L28.5223 130.553C28.5236 130.539 28.5233 130.525 28.5216 130.511L26.1063 113.987C25.5986 110.514 25.9158 106.971 27.0299 103.644L35.8103 102.946ZM47.9764 101.976L56.767 126.271C56.7697 126.279 56.773 126.286 56.7767 126.293C57.572 127.795 57.4322 129.693 56.2741 131.078C56.1038 131.282 55.9186 131.466 55.7214 131.63C55.7177 131.633 55.714 131.637 55.7103 131.64L38.35 148.964L33.4817 144.892L47.621 127.989C47.6667 127.934 47.6727 127.856 47.6361 127.795L37.7976 111.425C36.9456 110.006 36.452 108.403 36.359 106.751C36.2602 104.988 36.154 103.085 36.145 102.919L47.9764 101.976ZM107.544 139.844H95.8215C95.1038 139.844 94.5239 139.264 94.5239 138.547V126.824C94.5239 126.107 95.1038 125.527 95.8215 125.527H107.544C108.262 125.527 108.841 126.107 108.841 126.824V138.547C108.841 139.264 108.262 139.844 107.544 139.844ZM107.544 84.0473C108.262 84.0473 108.841 84.6265 108.841 85.3442V97.0665C108.841 97.7841 108.262 98.3637 107.544 98.364H95.8218C95.1042 98.364 94.5246 97.7841 94.5246 97.0665V85.3442C94.5246 84.6265 95.1042 84.0473 95.8218 84.0473H107.544ZM65.2447 62.6193H73.8142C74.5322 62.6193 75.1121 63.1985 75.1121 63.9161V75.6384C75.1121 76.3561 74.5322 76.936 73.8142 76.936H62.0923C61.3743 76.936 60.7954 76.3564 60.7954 75.6384V73.3078L61.0252 73.1492L62.437 72.1755C62.4551 72.1627 62.4706 72.1463 62.4823 72.1275L62.483 72.1268C63.2027 71.6097 63.7402 70.8323 63.9126 69.8925L65.2447 62.6193ZM90.6793 55.5073H78.9574C78.2394 55.5073 77.6595 54.928 77.6595 54.2104V42.4881C77.6595 41.7805 78.2233 41.207 78.9574 41.1906H90.6793C91.3966 41.1906 91.9765 41.7705 91.9765 42.4881V54.2104C91.9765 54.928 91.397 55.5073 90.6793 55.5073Z" fill="#3F3F3F"/>
<path fill-rule="evenodd" clip-rule="evenodd" d="M62.0915 40.855C61.1918 40.855 60.459 41.5888 60.459 42.4882V48.3077C60.0955 48.2008 59.6879 48.2643 59.3701 48.5166C58.8514 48.9282 58.7637 49.6875 59.1756 50.2063L60.5995 52.0017L57.2776 67.0207L55.3427 68.2104V30.3677C55.3427 29.4176 56.1014 28.6499 57.0777 28.6334H68.6656C68.7567 31.6925 71.2533 34.1519 74.3339 34.1519H95.3013C98.3819 34.1519 100.879 31.6925 100.97 28.6334H112.557C113.517 28.6334 114.292 29.4075 114.292 30.3677V144.844C114.292 145.804 113.517 146.579 112.557 146.579H57.0774C56.1175 146.579 55.3424 145.804 55.3424 144.844V132.48L55.9462 131.878C56.1548 131.704 56.351 131.509 56.5311 131.294C57.7739 129.807 57.9288 127.768 57.0787 126.15L55.3424 121.351V77.0715L60.4587 73.5397V75.6382C60.4587 76.5379 61.1914 77.2714 62.0912 77.2714H73.8132C74.7129 77.2714 75.4467 76.5379 75.4467 75.6382V63.9159C75.4467 63.0165 74.7129 62.2834 73.8132 62.2834H65.3055C65.7497 59.8589 65.962 58.7015 66.4861 55.8426H73.8132C74.7129 55.8426 75.4467 55.1095 75.4467 54.2101V42.4878C75.4467 41.5884 74.7129 40.8546 73.8132 40.8546L62.0915 40.855ZM90.6786 125.191H78.9567C78.0569 125.191 77.3231 125.925 77.3231 126.825V138.547C77.3231 139.446 78.0569 140.179 78.9567 140.179H90.6786C91.578 140.179 92.3115 139.447 92.3115 138.547V126.825C92.3115 125.925 91.578 125.191 90.6786 125.191ZM73.8135 125.191H62.0915C61.1918 125.191 60.459 125.925 60.459 126.825V138.547C60.459 139.446 61.1918 140.179 62.0915 140.179H73.8135C74.7132 140.179 75.447 139.446 75.447 138.547V126.825C75.447 125.925 74.7132 125.191 73.8135 125.191ZM107.543 125.191H95.8208C94.9213 125.191 94.1876 125.925 94.1876 126.825V138.547C94.1876 139.447 94.9213 140.179 95.8208 140.179H107.543C108.443 140.179 109.176 139.447 109.176 138.547V126.825C109.176 125.925 108.443 125.191 107.543 125.191ZM15.4782 97.4576L21.5157 99.6526L15.1641 115.326C15.1449 115.373 15.1483 115.426 15.1725 115.47L16.3165 117.547C16.548 117.968 16.3954 118.494 15.9741 118.726C15.5535 118.958 15.028 118.805 14.7962 118.384L14.4639 117.781C14.4343 117.727 14.3779 117.694 14.3174 117.694C14.2492 117.694 14.1874 117.736 14.1622 117.799L13.3756 119.74C13.1206 120.369 12.4164 120.682 11.7784 120.45C11.0399 120.182 10.1032 119.841 9.29519 119.548C8.39275 119.219 7.92977 118.226 8.25768 117.324C10.1368 112.154 15.3945 97.6871 15.4782 97.4576ZM90.6786 83.7117H78.9567C78.0569 83.7117 77.3231 84.4448 77.3231 85.3443V97.0666C77.3231 97.966 78.0569 98.6997 78.9567 98.6997H90.6786C91.578 98.6997 92.3115 97.966 92.3115 97.0666V85.3443C92.3115 84.4448 91.578 83.7117 90.6786 83.7117ZM73.8135 83.7117H62.0915C61.1918 83.7117 60.459 84.4448 60.459 85.3443V97.0666C60.459 97.966 61.1918 98.6997 62.0915 98.6997H73.8135C74.7132 98.6997 75.447 97.966 75.447 97.0666V85.3443C75.447 84.4452 74.7132 83.7117 73.8135 83.7117ZM107.543 83.7117H95.8208C94.9213 83.7117 94.1876 84.4445 94.1876 85.3443V97.0666C94.1876 97.966 94.9213 98.6997 95.8208 98.6997H107.543C108.443 98.6997 109.176 97.966 109.176 97.0666V85.3443C109.176 84.4448 108.443 83.7117 107.543 83.7117ZM90.6786 62.2837H78.9567C78.0569 62.2837 77.3231 63.0168 77.3231 63.9162V75.6385C77.3231 76.5383 78.0569 77.2717 78.9567 77.2717H90.6786C91.578 77.2717 92.3115 76.5383 92.3115 75.6385V63.9162C92.3115 63.0168 91.578 62.2837 90.6786 62.2837ZM107.543 62.2837H95.8208C94.9213 62.2837 94.1876 63.0168 94.1876 63.9162V75.6385C94.1876 76.5383 94.9213 77.2717 95.8208 77.2717H107.543C108.443 77.2717 109.176 76.5383 109.176 75.6385V63.9162C109.176 63.0168 108.443 62.2837 107.543 62.2837ZM38.0418 61.4384C39.1734 61.4024 40.1753 62.2017 40.3739 63.3404C40.684 65.1237 41.109 67.5707 41.4171 69.3416C41.569 70.2131 41.3489 71.1085 40.8103 71.8094C40.2721 72.5105 39.4647 72.9544 38.5838 73.033C36.3825 73.2295 35.7223 73.1566 35.7223 73.1566C35.7152 73.1556 35.7081 73.1553 35.7011 73.1553C35.6087 73.1553 35.5334 73.2309 35.5334 73.3229C35.5334 73.4093 35.6003 73.4822 35.686 73.4899C35.686 73.4899 36.3616 73.5474 38.2579 73.3935L38.568 76.1374L32.9367 76.5924C33.7719 73.876 34.4341 70.3949 35.0923 66.1149C36.323 64.6927 36.6771 63.175 36.4483 61.6339C36.5736 61.6174 37.0857 61.5509 37.8134 61.4562C37.8903 61.4468 37.9666 61.4407 38.0418 61.4384ZM63.1808 46.3583C63.2628 46.357 63.3454 46.364 63.4291 46.3795C64.2018 46.5209 65.1822 46.701 66.0279 46.8559C66.9723 47.0286 67.5942 47.93 67.4215 48.8745C66.4223 54.3294 63.5813 69.8318 63.5813 69.8318C63.4217 70.7057 62.9221 71.4307 62.2451 71.8987C62.2404 71.9018 62.236 71.9048 62.232 71.9085L60.9815 72.7716L57.6049 67.0979L60.9448 51.9967C60.9556 51.9473 60.9435 51.8956 60.9119 51.8566L59.4386 49.9986C59.1396 49.622 59.2025 49.0787 59.5787 48.78C59.955 48.481 60.4993 48.5439 60.7977 48.9202L61.225 49.4587C61.257 49.4994 61.3053 49.5229 61.3571 49.5229C61.4354 49.5229 61.5036 49.4678 61.5207 49.3912L61.9726 47.3464C62.1013 46.7659 62.6086 46.367 63.1808 46.3583ZM78.9567 40.855C78.0569 40.855 77.3231 41.5884 77.3231 42.4882V54.2105C77.3231 55.1099 78.0569 55.843 78.9567 55.843H90.6786C91.578 55.843 92.3115 55.1099 92.3115 54.2105V42.4882C92.3115 41.5884 91.578 40.855 90.6786 40.855H78.9567ZM95.8208 40.855C94.9213 40.855 94.1876 41.5884 94.1876 42.4882V54.2105C94.1876 55.1099 94.9213 55.843 95.8208 55.843H107.543C108.443 55.843 109.176 55.1099 109.176 54.2105V42.4882C109.176 41.5884 108.443 40.855 107.543 40.855H95.8208Z" fill="#FFD2BB"/>
<path fill-rule="evenodd" clip-rule="evenodd" d="M49.6369 142.528H45.2722L49.6369 138.172V142.528ZM26.9775 142.528H10.6543C10.7443 137.038 15.2233 132.611 20.7353 132.611C21.5131 132.611 22.2694 132.7 22.9971 132.867C23.0116 132.873 23.0267 132.877 23.0425 132.878C23.1104 132.898 24.42 133.277 25.31 134.315C25.3419 134.352 25.3886 134.374 25.4377 134.374C25.5301 134.374 25.6053 134.298 25.6053 134.206C25.6053 134.166 25.5912 134.128 25.565 134.097C24.7412 133.136 23.6456 132.722 23.275 132.601C24.0323 130.272 25.6158 128.315 27.6787 127.073L28.1853 130.54L26.9775 142.528ZM159.101 142.528H129.5V115.282C133.111 116.816 135.651 120.391 135.652 124.561L135.61 125.382C135.252 125.425 133.753 125.665 132.696 126.852C132.665 126.884 132.648 126.926 132.648 126.97C132.648 127.062 132.724 127.138 132.815 127.138C132.867 127.138 132.915 127.114 132.946 127.075C134.032 125.854 135.764 125.698 135.779 125.697C135.783 125.697 135.787 125.696 135.791 125.696C136.151 125.653 136.517 125.633 136.889 125.633C141.363 125.633 145.153 128.554 146.47 132.59C146.472 132.596 146.473 132.603 146.475 132.608C146.068 132.727 144.75 133.176 143.804 134.345C143.779 134.375 143.765 134.414 143.765 134.453C143.765 134.545 143.841 134.621 143.932 134.621C143.984 134.621 144.033 134.597 144.065 134.556C145.097 133.281 146.726 132.883 146.73 132.882C146.731 132.882 146.732 132.882 146.732 132.882C146.732 132.882 146.733 132.882 146.733 132.882C147.462 132.702 148.23 132.611 149.02 132.611C154.532 132.611 159.011 137.038 159.101 142.528ZM41.0332 119.98C41.5885 119.98 42.1291 120.041 42.6506 120.154L47.285 127.865L35.3393 142.146L37.3115 131.905C37.3861 131.644 37.4395 131.373 37.4674 131.094C37.4829 130.942 37.4899 130.791 37.4903 130.642L38.4794 120.423C39.2783 120.138 40.1364 119.98 41.0332 119.98ZM90.6777 139.844H78.9557C78.2377 139.844 77.6578 139.264 77.6578 138.547V126.824C77.6578 126.107 78.2377 125.527 78.9557 125.527H90.6777C91.3953 125.527 91.9749 126.107 91.9749 126.824V138.547C91.9749 139.264 91.3953 139.844 90.6777 139.844ZM21.6106 80.5817C21.9096 81.2493 22.3477 81.8648 22.9299 82.3755C23.7978 83.1365 24.8534 83.5598 25.9309 83.6522L26.5817 87.7128L21.6442 99.3421L15.5912 97.1424L21.6106 80.5817ZM73.8126 98.364H62.0906C61.373 98.364 60.7937 97.7841 60.7937 97.0665V85.3442C60.7937 84.6262 61.3726 84.0473 62.0906 84.0473H73.8126C74.5306 84.0473 75.1105 84.6262 75.1105 85.3442V97.0665C75.1105 97.7841 74.5306 98.364 73.8126 98.364ZM57.3684 67.3583L60.7037 72.962L47.073 82.3715C45.3894 83.5336 43.0836 83.1109 41.9215 81.4274C40.7593 79.7438 41.182 77.4373 42.8656 76.2751C42.9754 76.1995 43.0887 76.1303 43.2039 76.0675C43.2063 76.0661 43.2086 76.0645 43.211 76.0631L57.3684 67.3583ZM90.6777 62.6193C91.3957 62.6193 91.9752 63.1985 91.9752 63.9161V75.6384C91.9752 76.3561 91.3957 76.936 90.6777 76.936H78.9557C78.2377 76.936 77.6578 76.3561 77.6578 75.6384V63.9161C77.6578 63.1985 78.2377 62.6193 78.9557 62.6193H90.6777ZM107.542 55.5073H95.8198C95.1022 55.5073 94.5223 54.928 94.5223 54.2104V42.4881C94.5223 41.7805 95.0861 41.207 95.8198 41.1906H107.542C108.26 41.1906 108.84 41.7705 108.84 42.4881V54.2104C108.84 54.928 108.26 55.5073 107.542 55.5073Z" fill="#F48850"/>
<path fill-rule="evenodd" clip-rule="evenodd" d="M121.723 151.948H114.996C117.893 151.027 119.997 148.313 119.997 145.113V30.0982C119.997 26.899 117.893 24.185 114.996 23.2644H121.723C123.697 23.2644 125.59 24.0482 126.986 25.4442C128.381 26.8399 129.165 28.7321 129.165 30.706V142.669C129.162 142.687 129.162 142.705 129.165 142.724V144.506C129.165 146.48 128.381 148.372 126.986 149.768C125.59 151.164 123.697 151.948 121.723 151.948ZM42.4669 76.1602C40.8125 77.4682 40.4315 79.8583 41.6464 81.6182C42.5072 82.865 43.9485 83.4755 45.3597 83.3414L47.9007 101.647L27.1392 103.3L28.6363 98.5149C28.6437 98.49 28.6457 98.4638 28.6414 98.4379L26.2754 83.6676C27.6018 83.6945 28.9343 83.2248 29.9675 82.2545C29.9685 82.2535 29.9695 82.2528 29.9701 82.2518C31.1541 81.0907 32.0636 79.3204 32.8287 76.9377L42.4669 76.1602ZM124.92 60.2385H124.92C123.842 60.2385 122.964 61.1158 122.964 62.1939V71.8452C122.964 72.9234 123.842 73.801 124.92 73.801H124.92C125.999 73.801 126.876 72.9234 126.876 71.8452V62.1939C126.876 61.1158 125.999 60.2385 124.92 60.2385ZM124.92 44.8799H124.92C123.842 44.8799 122.964 45.7578 122.964 46.8357V56.4866C122.964 57.5645 123.842 58.4424 124.92 58.4424H124.92C125.999 58.4424 126.876 57.5645 126.876 56.4866V46.8357C126.876 45.7578 125.999 44.8799 124.92 44.8799ZM92.9739 30.0193H76.9222C76.5375 30.0193 76.2297 29.7115 76.2297 29.3268V29.3261C76.2297 28.9414 76.5378 28.6337 76.9222 28.6337H92.9739C93.3586 28.6337 93.6667 28.9418 93.6667 29.3261V29.3268C93.6667 29.7115 93.3582 30.0193 92.9739 30.0193Z" fill="#DDDDDD"/>
<path fill-rule="evenodd" clip-rule="evenodd" d="M25.9952 155.622L32.3962 156.267C32.4611 156.343 34.4255 158.64 35.0505 159.371C35.1385 159.474 35.1808 159.609 35.167 159.743C35.1664 159.748 35.166 159.753 35.1657 159.758L35.1664 159.744C35.0794 160.608 34.312 161.236 33.4465 161.149C31.6467 160.968 28.8453 160.685 27.0552 160.504C26.2048 160.419 25.5883 159.664 25.674 158.814C25.8147 157.417 25.9777 155.796 25.9952 155.622ZM33.2651 145.149L38.1986 149.275C38.2093 149.373 38.5456 152.379 38.6525 153.335C38.6676 153.47 38.6273 153.604 38.5403 153.708C38.5399 153.708 38.5399 153.709 38.5396 153.709C37.9822 154.376 36.9944 154.463 36.3275 153.905C34.9396 152.745 32.7802 150.939 31.4004 149.784C30.7446 149.236 30.6582 148.265 31.2065 147.61C32.1073 146.532 33.1535 145.281 33.2651 145.149ZM57.0765 28.2981C55.9352 28.2981 55.0062 29.2267 55.0062 30.3681V68.417L49.9726 71.512V30.0983C49.9726 26.3249 53.0334 23.2645 56.8074 23.2645H112.825C116.599 23.2645 119.66 26.3249 119.66 30.0983V145.113C119.66 148.887 116.599 151.948 112.825 151.948H56.8074C53.0334 151.948 49.9726 148.887 49.9726 145.113V137.837L55.0062 132.815V144.843C55.0062 145.985 55.9356 146.914 57.0765 146.914H112.556C113.697 146.914 114.626 145.985 114.626 144.843V30.3677C114.626 29.2264 113.697 28.2978 112.556 28.2978H100.818C100.726 28.2978 100.65 28.3737 100.65 28.4654C100.65 31.422 98.2571 33.8162 95.3002 33.8162H74.3327C71.3758 33.8162 68.9826 31.4227 68.9826 28.4654C68.9826 28.3733 68.9067 28.2978 68.815 28.2978L57.0765 28.2981ZM73.8126 139.844H62.0907C61.3727 139.844 60.7938 139.264 60.7938 138.547V126.824C60.7938 126.107 61.3727 125.527 62.0907 125.527H73.8126C74.5306 125.527 75.1105 126.107 75.1105 126.824V138.547C75.1105 139.264 74.5306 139.844 73.8126 139.844ZM55.0062 77.3029V120.423L49.9726 106.51V80.7776L55.0062 77.3029ZM90.6778 84.0474C91.3957 84.0474 91.9753 84.6266 91.9753 85.3442V97.0665C91.9753 97.7842 91.3957 98.3641 90.6778 98.3641H78.9558C78.2378 98.3641 77.6579 97.7842 77.6579 97.0665V85.3442C77.6579 84.6266 78.2378 84.0474 78.9558 84.0474H90.6778ZM107.542 62.6193C108.276 62.6358 108.84 63.2086 108.84 63.9162V75.6385C108.84 76.3561 108.26 76.936 107.542 76.936H95.8203C95.1026 76.936 94.523 76.3561 94.523 75.6385V63.9162C94.523 63.1985 95.1026 62.6193 95.8203 62.6193H107.542ZM124.919 73.4654H124.918C124.022 73.4654 123.298 72.7423 123.298 71.8453V62.194C123.298 61.2969 124.022 60.5742 124.918 60.5742H124.919C125.816 60.5742 126.539 61.2969 126.539 62.194V71.8453C126.539 72.7423 125.816 73.4654 124.919 73.4654ZM124.919 58.1068H124.918C124.022 58.1068 123.298 57.3834 123.298 56.4867V46.8357C123.298 45.939 124.022 45.2156 124.918 45.2156H124.919C125.816 45.2156 126.539 45.939 126.539 46.8357V56.4867C126.539 57.3834 125.816 58.1068 124.919 58.1068ZM73.8126 55.5073H66.5468C67.078 52.6085 67.4374 50.6457 67.7509 48.9349C67.9565 47.8121 67.2103 46.7312 66.0875 46.5256C65.2418 46.3707 64.2618 46.1913 63.4887 46.0499C62.6464 45.896 61.8293 46.4376 61.6445 47.2738L61.2682 48.9745L61.0599 48.7118C61.0599 48.7115 61.0599 48.7115 61.0599 48.7111C60.983 48.614 60.8909 48.5378 60.7938 48.4713V42.4888C60.7938 41.7708 61.373 41.1913 62.0907 41.1913H73.8126C74.5306 41.1913 75.1105 41.7712 75.1105 42.4888V54.2111C75.1105 54.9281 74.5306 55.5073 73.8126 55.5073ZM156.073 48.094H150.752C150.844 46.6949 151.971 45.5805 153.412 45.5674C154.842 45.5674 155.981 46.6875 156.073 48.094ZM147.368 48.094H129.5V39.976C130.15 39.8178 130.827 39.7301 131.525 39.7301C134.952 39.7301 137.908 41.754 139.264 44.6686C139.292 44.7278 139.352 44.7654 139.416 44.7654C139.457 44.7654 139.497 44.7503 139.528 44.7231C140.362 43.9836 141.457 43.5354 142.658 43.5354C145.211 43.5357 147.277 45.5634 147.368 48.094ZM92.9725 28.2981H76.9208C76.355 28.2981 75.8927 28.7604 75.8927 29.3262V29.3269C75.8927 29.8926 76.355 30.3546 76.9208 30.3546H92.9725C93.5383 30.3546 94.0009 29.8926 94.0009 29.3269V29.3262C94.0009 28.7604 93.5383 28.2981 92.9725 28.2981ZM69.2739 11.0073H44.9161C45.0079 6.73129 48.4889 3.28784 52.7864 3.28784C56.2537 3.28784 59.1989 5.52848 60.2536 8.63897C60.2767 8.70651 60.3409 8.7522 60.4121 8.7522C60.4699 8.7522 60.5237 8.72263 60.5543 8.67358C61.3878 7.33773 62.8725 6.44772 64.5645 6.44772C67.1169 6.44772 69.1829 8.47468 69.2739 11.0073ZM40.7634 11.0073H34.0113C34.103 9.21619 35.5457 7.78156 37.3875 7.76442C39.2109 7.76442 40.6697 9.20375 40.7634 11.0073Z" fill="#A0A0A0"/>
<path d="M96.735 0.0960693C96.5529 0.0990931 96.4047 0.24961 96.4047 0.431711C96.4047 0.433727 96.4047 0.435408 96.4047 0.437087V2.9072C96.4047 2.90888 96.4047 2.91056 96.4047 2.91224C96.4047 3.09602 96.5559 3.24789 96.7404 3.24789C96.9242 3.24789 97.076 3.09636 97.076 2.91224C97.076 2.91056 97.076 2.90888 97.076 2.9072V0.437087C97.076 0.435408 97.076 0.433727 97.076 0.431711C97.076 0.247931 96.9245 0.0960693 96.7404 0.0960693C96.7384 0.0960693 96.7367 0.0960693 96.735 0.0960693ZM92.5017 1.85223C92.3179 1.85256 92.1667 2.00376 92.1667 2.18787C92.1667 2.27859 92.2033 2.36493 92.2682 2.42843L94.0153 4.17586C94.0784 4.24171 94.1658 4.279 94.2572 4.279C94.4413 4.279 94.5928 4.12781 94.5928 3.94336C94.5928 3.85197 94.5555 3.76462 94.4897 3.70146L92.7429 1.95403C92.6797 1.88851 92.5924 1.85189 92.5017 1.85223ZM100.969 1.85223C100.882 1.85492 100.799 1.8912 100.739 1.95403L98.9911 3.70146C98.9249 3.76462 98.8876 3.85197 98.8876 3.94336C98.8876 4.12748 99.0391 4.279 99.2233 4.279C99.3146 4.279 99.402 4.24171 99.4655 4.17586L101.213 2.42843C101.278 2.36493 101.315 2.27859 101.315 2.18754C101.315 2.00376 101.163 1.85189 100.979 1.85189C100.976 1.85189 100.972 1.85223 100.969 1.85223ZM52.7863 2.78591C48.1592 2.78591 44.3956 6.54887 44.3956 11.1766C44.3956 11.3608 44.5471 11.5123 44.7312 11.5123H69.4586C69.6424 11.5123 69.7942 11.3608 69.7942 11.1766C69.7942 11.1763 69.7942 11.1763 69.7942 11.176C69.7932 8.29092 67.4464 5.94579 64.5647 5.94579C62.9097 5.94579 61.4603 6.74374 60.5024 7.94755C59.2351 4.92207 56.2657 2.78591 52.7863 2.78591ZM52.7863 3.4572C56.1814 3.4572 59.0621 5.65013 60.0945 8.6941C60.1405 8.82983 60.2686 8.92156 60.4124 8.92156C60.5279 8.92156 60.6355 8.86175 60.6966 8.76398C61.5009 7.47584 62.9319 6.61708 64.5651 6.61708C66.969 6.61708 68.914 8.47941 69.0893 10.8413H60.8411H45.1015C45.2802 6.73601 48.6373 3.4572 52.7863 3.4572ZM90.7512 6.0906C90.7495 6.0906 90.7482 6.0906 90.7465 6.0906C90.5624 6.0906 90.4109 6.24179 90.4109 6.42624C90.4109 6.61002 90.5621 6.76189 90.7465 6.76189C90.7482 6.76189 90.7495 6.76189 90.7512 6.76189H93.222C93.2237 6.76189 93.2254 6.76189 93.2267 6.76189C93.4108 6.76189 93.5627 6.61036 93.5627 6.42624C93.5627 6.24213 93.4112 6.0906 93.2267 6.0906C93.2254 6.0906 93.2237 6.0906 93.222 6.0906H90.7512ZM100.258 6.0906C100.257 6.0906 100.255 6.0906 100.254 6.0906C100.07 6.0906 99.9181 6.24179 99.9181 6.42624C99.9181 6.61002 100.069 6.76189 100.254 6.76189C100.255 6.76189 100.257 6.76189 100.258 6.76189H102.729C102.731 6.76189 102.733 6.76189 102.734 6.76189C102.918 6.76189 103.07 6.61036 103.07 6.42624C103.07 6.24213 102.918 6.0906 102.734 6.0906C102.733 6.0906 102.731 6.0906 102.729 6.0906H100.258ZM37.3877 7.26249C35.2314 7.26249 33.4739 9.02 33.4739 11.1766C33.4743 11.3608 33.6255 11.5123 33.8096 11.5123H40.9656C41.1494 11.5123 41.3012 11.3608 41.3012 11.1766C41.3012 11.1763 41.3012 11.1763 41.3012 11.176C41.2989 9.01765 39.5427 7.26249 37.3877 7.26249ZM37.3877 7.93344C39.0606 7.93344 40.3853 9.21151 40.5621 10.8407H34.2131C34.3878 9.21386 35.7139 7.93344 37.3877 7.93344ZM99.2249 8.57449C99.2246 8.57449 99.2246 8.57449 99.2243 8.57449C99.0405 8.57449 98.8886 8.72568 98.8886 8.91013C98.8886 9.00118 98.9256 9.08787 98.9911 9.15137L100.739 10.8988C100.802 10.9646 100.889 11.0019 100.98 11.0019C101.165 11.0019 101.316 10.8507 101.316 10.6663C101.316 10.5749 101.279 10.4876 101.213 10.4244L99.4655 8.67696C99.4023 8.61178 99.3157 8.57482 99.2249 8.57449ZM94.2457 8.57516C94.1584 8.57785 94.0761 8.61413 94.0153 8.67696L92.2682 10.4244C92.2023 10.4876 92.165 10.5749 92.165 10.6663C92.165 10.8504 92.3162 11.0019 92.5007 11.0019C92.5921 11.0019 92.6794 10.9646 92.7429 10.8988L94.4897 9.15137C94.5545 9.0882 94.5915 9.00152 94.5915 8.9108C94.5915 8.72669 94.4399 8.57516 94.2558 8.57516C94.2525 8.57516 94.2491 8.57516 94.2457 8.57516ZM96.735 9.60393C96.5529 9.60695 96.4047 9.75747 96.4047 9.93957C96.4047 9.94159 96.4047 9.94327 96.4047 9.94495V12.4151C96.4047 12.4167 96.4047 12.4184 96.4047 12.4201C96.4047 12.6039 96.5559 12.7557 96.7404 12.7557C96.9242 12.7557 97.076 12.6042 97.076 12.4201C97.076 12.4184 97.076 12.4167 97.076 12.4151V9.94495C97.076 9.94327 97.076 9.94159 97.076 9.93957C97.076 9.75579 96.9245 9.60393 96.7404 9.60393C96.7384 9.60393 96.7367 9.60393 96.735 9.60393ZM56.8073 22.7622C52.7608 22.7622 49.4692 26.0534 49.4692 30.0996V71.6259L42.9818 75.614L39.0502 75.9315L38.7767 73.5151C39.7389 73.3888 40.6152 72.8899 41.2082 72.1171C41.8324 71.3044 42.0881 70.2672 41.912 69.2573C41.7276 68.1969 41.5055 66.9215 41.2868 65.6643C41.3083 65.5968 41.6469 64.5472 42.0857 63.1848C42.5081 61.8725 42.3129 60.4378 41.5542 59.2858C40.7956 58.134 39.5548 57.3892 38.182 57.2598C37.246 57.1714 36.2898 57.0814 35.4122 56.9984C33.0409 56.7753 30.7065 57.7141 29.1519 59.5186C29.1519 59.5186 29.1519 59.5189 29.1519 59.5193C28.9822 59.7161 28.8882 59.8247 28.8751 59.8398C28.8596 59.8532 28.2911 60.3454 27.6901 60.8645C26.788 61.6437 26.2265 62.7457 26.1264 63.9334C26.0508 64.8271 25.9557 65.957 25.8637 67.0459C25.6584 69.479 24.7183 71.7932 23.1691 73.6814C23.0539 73.8219 22.9434 73.966 22.8375 74.1132C22.6675 74.35 22.3668 74.769 21.9939 75.2877C20.9591 76.7277 20.7346 78.5212 21.2477 80.1077L15.0603 97.1301C15.0603 97.1301 9.6769 111.942 7.78266 117.155C7.36201 118.312 7.96341 119.602 9.12153 120.023C9.92956 120.317 10.8666 120.657 11.6047 120.926C12.4931 121.249 13.4856 120.806 13.8407 119.931L14.3635 118.64C14.7307 119.29 15.5609 119.529 16.2157 119.169C16.8756 118.805 17.1182 117.966 16.755 117.307L15.6886 115.369L22.0463 99.6822L26.6075 88.9399L28.1295 98.4424L26.582 103.389C26.582 103.389 26.582 103.39 26.582 103.39C25.4165 106.82 25.0815 110.477 25.6056 114.062L27.4421 126.629C25.4437 127.825 23.8878 129.668 23.0277 131.862C22.4424 130.655 21.7439 129.381 20.9083 128.072C22.427 127.568 23.7699 126.518 24.6017 125.009C25.5079 123.365 25.6369 121.497 25.1097 119.837C25.0641 119.693 24.9276 119.597 24.7771 119.603C24.7526 119.603 24.7281 119.607 24.7046 119.613C23.0183 120.054 21.5081 121.16 20.6023 122.804C19.9662 123.958 19.7206 125.221 19.8087 126.446C19.3722 125.838 18.9096 125.226 18.4073 124.614C18.3438 124.533 18.247 124.486 18.1446 124.486C17.9608 124.486 17.8086 124.638 17.8086 124.822C17.8086 124.902 17.8368 124.978 17.8882 125.039C18.3173 125.563 18.713 126.084 19.093 126.605C18.0713 126.117 16.9125 125.882 15.705 125.985C13.835 126.145 12.2095 127.076 11.1219 128.437C11.0107 128.576 11.0282 128.78 11.1613 128.898C12.4642 130.055 14.2237 130.696 16.0938 130.536C17.7898 130.391 19.2792 129.608 20.3543 128.45C21.1993 129.775 21.9008 131.065 22.4861 132.283C21.9156 132.18 21.334 132.11 20.7343 132.11C15.0065 132.11 10.3327 136.677 10.1543 142.363H1.03957C1.03789 142.363 1.03654 142.363 1.03486 142.363C0.850745 142.363 0.699219 142.514 0.699219 142.699C0.699219 142.882 0.850409 143.034 1.03486 143.034C1.03654 143.034 1.03789 143.034 1.03957 143.034H26.7581L25.5116 155.407C25.5116 155.407 25.3211 157.296 25.1726 158.766C25.0597 159.887 25.8835 160.894 27.0043 161.007C28.7948 161.188 31.5958 161.47 33.396 161.652C34.5024 161.763 35.4918 160.971 35.648 159.88V159.879C35.6504 159.863 35.6544 159.847 35.6564 159.829C35.6568 159.828 35.6568 159.828 35.6571 159.827C35.6585 159.816 35.6659 159.807 35.6672 159.796C35.6672 159.795 35.6672 159.794 35.6672 159.793C35.6672 159.791 35.6642 159.789 35.6645 159.786V159.785C35.6884 159.518 35.6074 159.25 35.4324 159.046C34.8215 158.332 32.9884 156.189 32.8389 156.014L33.5636 152.252C34.4412 152.986 35.3168 153.719 36.0042 154.294C36.8441 154.997 38.0745 154.898 38.8207 154.117C38.8271 154.114 38.8335 154.111 38.8398 154.107C38.8402 154.107 38.8405 154.107 38.8412 154.107C38.8419 154.106 38.8429 154.105 38.8439 154.105C38.8439 154.105 38.8466 154.103 38.8472 154.103C38.8603 154.095 38.8731 154.085 38.8852 154.075C38.8855 154.075 38.8859 154.074 38.8865 154.074C38.8872 154.073 38.8909 154.07 38.8909 154.07C38.8912 154.07 38.906 154.056 38.906 154.056C38.9134 154.049 38.9201 154.041 38.9265 154.034C39.1012 153.825 39.1836 153.553 39.1533 153.282C39.0485 152.348 38.735 149.544 38.7095 149.316L45.0054 143.034H49.4695V145.116C49.4695 149.162 52.7611 152.453 56.8073 152.453H121.722C123.829 152.453 125.85 151.616 127.34 150.126C128.83 148.636 129.668 146.615 129.668 144.507V143.033H166.715C166.717 143.033 166.719 143.033 166.72 143.033C166.904 143.033 167.056 142.882 167.056 142.698C167.056 142.514 166.904 142.362 166.72 142.362C166.719 142.362 166.717 142.362 166.715 142.362H159.6C159.422 136.677 154.748 132.109 149.02 132.109C148.365 132.109 147.733 132.196 147.113 132.319C147.777 130.823 148.626 129.231 149.707 127.576C150.783 128.747 152.281 129.539 153.988 129.685C155.858 129.845 157.617 129.203 158.92 128.046C159.053 127.928 159.07 127.724 158.959 127.586C157.871 126.224 156.247 125.294 154.377 125.134C153.162 125.03 151.996 125.269 150.97 125.762C151.682 124.799 152.473 123.821 153.356 122.83C154.61 123.864 156.244 124.445 157.99 124.325C159.862 124.195 161.502 123.291 162.612 121.948C162.725 121.811 162.711 121.607 162.58 121.488C161.297 120.309 159.548 119.639 157.675 119.768C157.089 119.808 156.525 119.925 155.993 120.107C156.323 119.793 156.661 119.478 157.01 119.163C157.083 119.099 157.124 119.007 157.124 118.911C157.124 118.729 156.978 118.579 156.796 118.575C156.709 118.573 156.625 118.605 156.561 118.665C156.037 119.138 155.541 119.61 155.059 120.081C155.301 119.341 155.416 118.545 155.377 117.723C155.287 115.848 154.418 114.189 153.098 113.051C153.039 112.999 152.962 112.97 152.884 112.969C152.791 112.968 152.702 113.006 152.637 113.073C151.432 114.331 150.725 116.065 150.815 117.94C150.898 119.697 151.673 121.259 152.855 122.386C151.893 123.464 151.038 124.529 150.273 125.577C150.358 124.357 150.112 123.101 149.479 121.953C148.573 120.309 147.063 119.203 145.377 118.762C145.344 118.754 145.311 118.75 145.277 118.751C145.136 118.757 145.014 118.851 144.972 118.985C144.444 120.646 144.573 122.514 145.479 124.158C146.305 125.657 147.637 126.704 149.144 127.211C148.128 128.767 147.309 130.271 146.657 131.695C145.071 127.848 141.301 125.132 136.889 125.132C136.66 125.132 136.434 125.151 136.207 125.169C136.146 124.654 135.903 121.961 137.065 117.827C137.218 117.281 137.398 116.712 137.604 116.124C138.853 117.088 140.449 117.614 142.142 117.48C144.013 117.332 145.644 116.411 146.74 115.057C146.852 114.918 146.835 114.714 146.703 114.596C145.407 113.431 143.652 112.779 141.781 112.927C140.483 113.03 139.307 113.511 138.338 114.244C139.022 112.649 139.918 110.941 141.082 109.159C142.158 110.33 143.655 111.122 145.362 111.268C147.232 111.428 148.991 110.786 150.294 109.629C150.427 109.511 150.444 109.308 150.334 109.17C149.246 107.808 147.621 106.877 145.751 106.718C144.537 106.613 143.372 106.852 142.346 107.345C143.058 106.383 143.848 105.404 144.731 104.414C145.985 105.447 147.618 106.028 149.363 105.908C151.236 105.779 152.876 104.875 153.986 103.532C154.1 103.395 154.086 103.191 153.955 103.071C152.671 101.893 150.922 101.222 149.05 101.352C148.467 101.392 147.906 101.507 147.378 101.687C147.706 101.374 148.037 101.061 148.384 100.747C148.457 100.683 148.499 100.591 148.499 100.494C148.499 100.313 148.352 100.162 148.17 100.159C148.083 100.157 147.999 100.189 147.935 100.249C147.41 100.722 146.914 101.195 146.432 101.666C146.675 100.926 146.79 100.13 146.751 99.3062C146.661 97.4311 145.792 95.7727 144.473 94.6344C144.413 94.5827 144.337 94.5538 144.258 94.5531C144.165 94.5518 144.076 94.589 144.011 94.6562C142.806 95.9145 142.099 97.6488 142.189 99.5236C142.273 101.281 143.047 102.842 144.23 103.97C143.269 105.047 142.412 106.113 141.648 107.16C141.732 105.94 141.486 104.684 140.854 103.536C140.853 103.536 140.853 103.536 140.853 103.536C139.947 101.892 138.437 100.786 136.751 100.346C136.718 100.337 136.685 100.334 136.651 100.335C136.511 100.341 136.389 100.435 136.346 100.568C135.818 102.229 135.947 104.097 136.854 105.741C136.854 105.741 136.854 105.741 136.854 105.742C137.68 107.242 139.012 108.288 140.52 108.795C139.481 110.386 138.652 111.921 137.992 113.373C137.921 112.389 137.635 111.405 137.099 110.5V110.499C136.143 108.884 134.598 107.825 132.9 107.436C132.878 107.431 132.856 107.428 132.834 107.428C132.681 107.424 132.545 107.525 132.503 107.672C132.027 109.348 132.213 111.211 133.17 112.826C134.058 114.326 135.455 115.339 137.009 115.788C136.781 116.43 136.585 117.051 136.417 117.645C136.027 119.035 135.796 120.283 135.659 121.359C134.718 118.399 132.506 116.005 129.667 114.809V48.5986H147.552C147.736 48.5983 147.887 48.4471 147.887 48.263C147.887 45.3799 145.54 43.0335 142.657 43.0335C141.477 43.0335 140.417 43.4726 139.541 44.1358C138.04 41.2272 135.018 39.2282 131.524 39.2282C130.887 39.2282 130.267 39.2977 129.667 39.4234V30.7071C129.667 28.6002 128.83 26.5796 127.34 25.0895C125.849 23.5995 123.828 22.7619 121.721 22.7619H112.825L56.8073 22.7622ZM56.8073 23.4331H112.825C116.508 23.4331 119.492 26.4166 119.492 30.0996V145.115C119.492 148.798 116.508 151.781 112.825 151.781H56.8073C53.124 151.781 50.1401 148.798 50.1401 145.115V137.909L54.8381 133.221V144.845C54.8381 146.077 55.8444 147.083 57.0764 147.083H112.556C113.788 147.083 114.794 146.077 114.794 144.845V30.3688C114.794 29.1367 113.788 28.1311 112.556 28.1311H100.818C100.634 28.1311 100.482 28.2827 100.482 28.4668C100.482 31.3333 98.1656 33.6499 95.3 33.6499H74.3326C71.4664 33.6499 69.1505 31.333 69.1505 28.4668C69.1505 28.283 68.999 28.1311 68.8148 28.1311H57.0761C55.8441 28.1311 54.8378 29.1367 54.8378 30.3688V68.3246L50.1398 71.213V30.0996C50.1405 26.417 53.1243 23.4331 56.8073 23.4331ZM115.885 23.4331H121.722C123.651 23.4331 125.501 24.1995 126.866 25.5639C128.23 26.9283 128.996 28.7776 128.996 30.7067V142.641C128.99 142.677 128.99 142.714 128.996 142.75V144.507C128.996 146.436 128.23 148.286 126.866 149.65C125.501 151.015 123.651 151.781 121.722 151.781H115.885C118.408 150.619 120.163 148.068 120.163 145.114V30.0996C120.163 27.1454 118.407 24.5953 115.885 23.4331ZM76.9207 28.1311C76.2642 28.1311 75.7246 28.6707 75.7246 29.3276V29.3282C75.7246 29.9847 76.2642 30.5236 76.9207 30.5236H92.9724C93.6292 30.5236 94.1688 29.9847 94.1688 29.3282V29.3276C94.1688 28.6707 93.6292 28.1311 92.9724 28.1311H76.9207ZM57.0764 28.8024H68.5135C68.6912 31.8726 71.2188 34.3212 74.333 34.3212H95.3004C98.4142 34.3212 100.942 31.8729 101.12 28.8024H112.556C113.425 28.8024 114.123 29.4996 114.123 30.3688V144.845C114.123 145.715 113.425 146.412 112.556 146.412H57.0764C56.2072 146.412 55.5094 145.715 55.5094 144.845V132.551L56.0641 131.998C56.2758 131.82 56.4754 131.622 56.6585 131.403C57.9416 129.868 58.1059 127.763 57.234 126.088L55.5094 121.322V77.1602L60.2904 73.8602V75.6399C60.2904 76.63 61.1004 77.4407 62.0906 77.4407H73.8125C74.803 77.4407 75.6137 76.63 75.6137 75.6399V63.9176C75.6137 62.9274 74.803 62.1174 73.8125 62.1174H65.5061C65.9332 59.7854 66.1274 58.728 66.6249 56.012H73.8125C74.803 56.012 75.6137 55.2019 75.6137 54.2118V42.4895C75.6137 41.4994 74.803 40.6887 73.8125 40.6887H62.0906C61.1001 40.6887 60.2904 41.4994 60.2904 42.4895V48.1061C59.9359 48.06 59.565 48.1484 59.2653 48.3866C58.6754 48.8543 58.5749 49.7221 59.0432 50.3121L60.4174 52.0451L57.1288 66.9168L55.5098 67.9123V30.3688C55.5094 29.4996 56.2076 28.8024 57.0764 28.8024ZM76.9207 28.8024H92.9724C93.2664 28.8024 93.4975 29.0336 93.4975 29.3276V29.3282C93.4975 29.6219 93.2664 29.8524 92.9724 29.8524H76.9207C76.627 29.8524 76.3959 29.6219 76.3959 29.3282V29.3276C76.3959 29.0336 76.627 28.8024 76.9207 28.8024ZM32.515 32.1525C32.3313 32.1551 32.1821 32.3087 32.1848 32.4925V34.9636C32.1848 34.9649 32.1848 34.9666 32.1848 34.9683C32.1848 35.1521 32.336 35.3039 32.5204 35.3039C32.7042 35.3039 32.8561 35.1524 32.8561 34.9683C32.8561 34.9666 32.8561 34.9649 32.8561 34.9636V32.4925C32.8561 32.4911 32.8561 32.4894 32.8561 32.4881C32.8561 32.304 32.7045 32.1525 32.5204 32.1525C32.5184 32.1525 32.5167 32.1525 32.515 32.1525ZM28.2821 33.9079C28.0979 33.9079 27.9464 34.0595 27.9464 34.2436C27.9464 34.3343 27.983 34.421 28.0482 34.4842L29.7956 36.2316C29.8585 36.2944 29.9438 36.33 30.0328 36.33C30.2166 36.33 30.3685 36.1785 30.3685 35.994C30.3685 35.9047 30.3329 35.8197 30.27 35.7565L28.5226 34.0097C28.4591 33.9446 28.3724 33.9079 28.2821 33.9079ZM36.749 33.9079C36.662 33.9106 36.5794 33.9473 36.5186 34.0097L34.7711 35.7565C34.708 35.8197 34.6724 35.9047 34.6724 35.994C34.6724 36.1782 34.8239 36.33 35.0083 36.33C35.0974 36.33 35.1824 36.2944 35.2455 36.2316L36.993 34.4842C37.0578 34.421 37.0948 34.3343 37.0948 34.2436C37.0948 34.0595 36.9432 33.9079 36.7591 33.9079C36.7558 33.9079 36.7524 33.9079 36.749 33.9079ZM26.5313 38.1467C26.5296 38.1467 26.5282 38.1467 26.5266 38.1467C26.3424 38.1467 26.1909 38.2978 26.1909 38.4823C26.1909 38.6668 26.3421 38.8179 26.5266 38.8179C26.5282 38.8179 26.5296 38.8179 26.5313 38.8179H29.0014C29.0031 38.8179 29.0047 38.8179 29.0061 38.8179C29.1902 38.8179 29.3421 38.6668 29.3421 38.4823C29.3421 38.2978 29.1905 38.1467 29.0061 38.1467C29.0047 38.1467 29.0031 38.1467 29.0014 38.1467H26.5313ZM36.0388 38.1467C36.0371 38.1467 36.0358 38.1467 36.0341 38.1467C35.85 38.1467 35.6984 38.2978 35.6984 38.4823C35.6984 38.6668 35.8496 38.8179 36.0341 38.8179C36.0358 38.8179 36.0371 38.8179 36.0388 38.8179H38.5096C38.5113 38.8179 38.5129 38.8179 38.5143 38.8179C38.6984 38.8179 38.8503 38.6668 38.8503 38.4823C38.8503 38.2978 38.6987 38.1467 38.5143 38.1467C38.5129 38.1467 38.5113 38.1467 38.5096 38.1467H36.0388ZM131.525 39.8995C134.885 39.8995 137.782 41.8837 139.112 44.7406C139.167 44.8588 139.286 44.9344 139.416 44.9344C139.498 44.9344 139.578 44.9045 139.639 44.8501C140.443 44.1365 141.498 43.7044 142.658 43.7044C145.063 43.7044 147.009 45.5674 147.184 47.9273H129.668V40.1108C130.265 39.9754 130.886 39.8995 131.525 39.8995ZM30.0258 40.6312C29.9384 40.6339 29.8561 40.6705 29.7953 40.733L28.0479 42.4798C27.9817 42.5433 27.9444 42.6303 27.9444 42.7217C27.9444 42.9058 28.0959 43.0577 28.28 43.0577C28.3714 43.0577 28.4588 43.0204 28.5223 42.9542L30.2697 41.2074C30.3345 41.1443 30.3715 41.0576 30.3715 40.9669C30.3715 40.7827 30.22 40.6312 30.0359 40.6312C30.0325 40.6312 30.0291 40.6312 30.0258 40.6312ZM35.005 40.6312C34.8209 40.6312 34.6693 40.7827 34.6693 40.9669C34.6693 41.0576 34.706 41.1443 34.7711 41.2074L36.5186 42.9542C36.5817 43.0204 36.6691 43.0577 36.7605 43.0577C36.9446 43.0577 37.0961 42.9061 37.0961 42.7217C37.0961 42.6303 37.0588 42.5433 36.993 42.4798L35.2455 40.733C35.1827 40.6682 35.0957 40.6312 35.005 40.6312ZM78.9557 40.6883C77.9652 40.6883 77.1545 41.499 77.1545 42.4892V54.2115C77.1545 55.2016 77.9656 56.0116 78.9557 56.0116H90.6776C91.6678 56.0116 92.4778 55.2016 92.4778 54.2115V42.4892C92.4778 41.499 91.6678 40.6883 90.6776 40.6883H78.9557ZM95.8198 40.6883C94.8297 40.6883 94.019 41.499 94.019 42.4892V54.2115C94.019 55.2016 94.8297 56.0116 95.8198 56.0116H107.542C108.532 56.0116 109.343 55.2016 109.343 54.2115V42.4892C109.343 41.499 108.532 40.6883 107.542 40.6883H95.8198ZM62.0906 41.3593H73.8125C74.4398 41.3593 74.9428 41.8622 74.9428 42.4892V54.2115C74.9428 54.8387 74.4398 55.3407 73.8125 55.3407H66.7482C67.2609 52.5417 67.612 50.6259 67.9161 48.9668C67.9161 48.9668 67.9161 48.9665 67.9161 48.9662C68.1378 47.7543 67.3295 46.5837 66.1179 46.3613C65.2723 46.2064 64.2922 46.027 63.5192 45.8856C62.5895 45.7159 61.6847 46.316 61.4804 47.2386L61.1797 48.5979C61.1142 48.5173 61.0403 48.4484 60.9617 48.3869V42.4892C60.9614 41.8622 61.4636 41.3593 62.0906 41.3593ZM78.9557 41.3593H90.6776C91.3046 41.3593 91.8069 41.8622 91.8069 42.4892V54.2115C91.8069 54.8387 91.3046 55.3407 90.6776 55.3407H78.9557C78.3284 55.3407 77.8255 54.8387 77.8255 54.2115V42.4892C77.8255 41.8626 78.3284 41.3593 78.9557 41.3593ZM95.8198 41.3593H107.542C108.169 41.3593 108.672 41.8622 108.672 42.4892V54.2115C108.672 54.8387 108.169 55.3407 107.542 55.3407H95.8198C95.1929 55.3407 94.6899 54.8387 94.6899 54.2115V42.4892C94.6899 41.8626 95.1929 41.3593 95.8198 41.3593ZM32.515 41.6603C32.3313 41.663 32.1821 41.8165 32.1848 42.0003V44.4715C32.1848 44.4728 32.1848 44.4745 32.1848 44.4762C32.1848 44.6599 32.336 44.8118 32.5204 44.8118C32.7042 44.8118 32.8561 44.6603 32.8561 44.4762C32.8561 44.4745 32.8561 44.4728 32.8561 44.4715V42.0003C32.8561 41.999 32.8561 41.9973 32.8561 41.996C32.8561 41.8118 32.7045 41.6603 32.5204 41.6603C32.5184 41.6603 32.5167 41.6603 32.515 41.6603ZM124.918 44.713C123.749 44.713 122.795 45.6682 122.795 46.8367V56.4874C122.795 57.6563 123.75 58.6108 124.918 58.6108H124.919C126.088 58.6108 127.042 57.6559 127.042 56.4874V46.8367C127.042 45.6679 126.088 44.713 124.919 44.713H124.918ZM153.412 45.0651C151.652 45.0651 150.216 46.5008 150.215 48.263C150.215 48.4468 150.366 48.5983 150.55 48.5986H156.275C156.459 48.5983 156.61 48.4471 156.61 48.263C156.61 46.5014 155.173 45.0651 153.412 45.0651ZM124.918 45.3843H124.919C125.725 45.3843 126.371 46.0311 126.371 46.8371V56.4877C126.371 57.2937 125.725 57.9402 124.919 57.9402H124.918C124.112 57.9402 123.466 57.2937 123.466 56.4877V46.8371C123.466 46.0311 124.112 45.3843 124.918 45.3843ZM153.412 45.7364C154.691 45.7364 155.701 46.6963 155.872 47.9277H150.953C151.125 46.6953 152.134 45.7364 153.412 45.7364ZM63.1825 46.5276C63.2534 46.5266 63.3253 46.5327 63.3979 46.5458C64.1706 46.6872 65.1513 46.8673 65.9967 47.0222C66.8521 47.1788 67.4118 47.9902 67.2549 48.8456C66.2557 54.3005 63.4157 69.8029 63.4157 69.8029C63.2641 70.6321 62.7911 71.3178 62.149 71.7613C62.143 71.7654 62.1373 71.7694 62.1319 71.7737L61.0326 72.532L57.782 67.0704L61.1075 52.034C61.1293 51.9352 61.1055 51.8321 61.0427 51.7528L59.5691 49.8948C59.5687 49.8948 59.5687 49.8948 59.5684 49.8948C59.3261 49.5894 59.3765 49.154 59.6819 48.9117C59.9873 48.6695 60.4228 48.7199 60.665 49.0253L61.0927 49.5639C61.1566 49.6442 61.2533 49.6912 61.3558 49.6912C61.5123 49.6912 61.6491 49.5814 61.6834 49.4285L62.1353 47.3834C62.2475 46.8787 62.6853 46.5344 63.1825 46.5276ZM34.5444 57.6395C34.8115 57.6324 35.0802 57.6408 35.3497 57.6663C36.2273 57.7493 37.1835 57.8394 38.1195 57.9277C39.2904 58.0383 40.3474 58.6733 40.9945 59.6557C41.6416 60.6377 41.8079 61.8597 41.447 62.9792C41.2236 63.6733 41.189 63.7805 41.0398 64.2428C40.9837 63.9192 40.9192 63.549 40.8685 63.2557C40.6118 61.7811 39.2316 60.7651 37.7472 60.9586C36.9359 61.0644 36.2263 61.1562 36.2263 61.1562C36.06 61.178 35.934 61.3211 35.934 61.4891C35.934 61.5089 35.9356 61.5284 35.939 61.5476C36.2038 63.0393 35.9 64.4336 34.6808 65.8232C34.6357 65.8746 34.6072 65.9388 34.5995 66.0067C33.3227 74.3168 31.9808 79.5708 29.6182 81.8911C27.8406 83.5589 25.0953 83.6062 23.2622 81.9989C21.4284 80.3909 21.116 77.6601 22.5395 75.6795C22.9124 75.1607 23.2135 74.7418 23.3835 74.5049C23.4813 74.3688 23.5824 74.2365 23.6882 74.1075C23.6886 74.1075 23.6889 74.1075 23.6889 74.1075C25.3244 72.1144 26.3159 69.6719 26.5329 67.103C26.625 66.0141 26.7208 64.8835 26.7964 63.9898C26.882 62.9768 27.3601 62.0371 28.1295 61.3725C28.7386 60.8464 29.3317 60.3337 29.3317 60.3337C29.3441 60.3229 29.3555 60.3115 29.3663 60.2991C29.3663 60.2991 29.4805 60.167 29.6612 59.9567C30.8976 58.5217 32.6753 57.6889 34.5444 57.6395ZM124.918 60.0723C123.749 60.0723 122.795 61.0265 122.795 62.195V71.8467C122.795 73.0155 123.75 73.97 124.918 73.97H124.919C126.088 73.97 127.042 73.0152 127.042 71.8467V62.195C127.042 61.0261 126.088 60.0723 124.919 60.0723H124.918ZM124.918 60.7432H124.919C125.725 60.7432 126.371 61.3887 126.371 62.195V71.8467C126.371 72.653 125.725 73.2991 124.919 73.2991H124.918C124.112 73.2991 123.466 72.653 123.466 71.8467V62.195C123.466 61.3887 124.112 60.7432 124.918 60.7432ZM38.0459 61.6064C39.0959 61.5728 40.0232 62.3129 40.2069 63.3702C40.5171 65.1536 40.9427 67.6009 41.2508 69.3718C41.3943 70.197 41.186 71.0443 40.676 71.7086C40.1663 72.3728 39.4019 72.7928 38.5677 72.8674C36.3734 73.0629 35.7388 72.9907 35.7388 72.9907C35.727 72.9893 35.7149 72.9886 35.7028 72.9886C35.5187 72.9886 35.3668 73.1402 35.3668 73.3246C35.3668 73.4953 35.4972 73.6404 35.6669 73.6586C35.6669 73.6586 36.3361 73.7107 38.1081 73.5739L38.3806 75.9859L33.1769 76.4059C33.9776 73.7221 34.6129 70.3227 35.2492 66.1891C36.4369 64.7978 36.8058 63.2923 36.6251 61.7811C36.8364 61.7535 37.1895 61.7075 37.8346 61.6238C37.9055 61.6141 37.9764 61.6087 38.0459 61.6064ZM78.9557 62.117C77.9656 62.117 77.1545 62.9271 77.1545 63.9172V75.6395C77.1545 76.6297 77.9656 77.4404 78.9557 77.4404H90.6776C91.6678 77.4404 92.4778 76.6297 92.4778 75.6395V63.9172C92.4778 62.9271 91.6678 62.117 90.6776 62.117H78.9557ZM95.8198 62.117C94.8297 62.117 94.019 62.9271 94.019 63.9172V75.6395C94.019 76.6297 94.8297 77.4404 95.8198 77.4404H107.542C108.532 77.4404 109.343 76.6297 109.343 75.6395V63.9172C109.343 62.9271 108.532 62.117 107.542 62.117H95.8198ZM65.3832 62.7883H73.8122C74.4395 62.7883 74.9424 63.2903 74.9424 63.9176V75.6399C74.9424 76.2668 74.4395 76.7697 73.8122 76.7697H62.0906C61.4633 76.7697 60.9614 76.2668 60.9614 75.6399V73.3975L61.1182 73.2887L62.53 72.314C62.5657 72.2895 62.5962 72.2582 62.6201 72.2223C63.3495 71.6807 63.8995 70.8864 64.0759 69.9235C64.0759 69.9235 64.9094 65.374 65.3832 62.7883ZM78.9557 62.7883H90.6776C91.3046 62.7883 91.8069 63.2903 91.8069 63.9176V75.6399C91.8069 76.2668 91.3046 76.7697 90.6776 76.7697H78.9557C78.3284 76.7697 77.8255 76.2668 77.8255 75.6399V63.9176C77.8255 63.2903 78.3284 62.7883 78.9557 62.7883ZM95.8198 62.7883H107.542C108.169 62.7883 108.672 63.2903 108.672 63.9176V75.6399C108.672 76.2668 108.169 76.7697 107.542 76.7697H95.8198C95.1929 76.7697 94.6899 76.2668 94.6899 75.6399V63.9176C94.6899 63.2903 95.1929 62.7883 95.8198 62.7883ZM57.3116 67.5925L60.4799 72.9144L46.9786 82.2351C45.3696 83.3455 43.1703 82.942 42.0595 81.333C40.9491 79.7243 41.3526 77.5257 42.9616 76.415C43.0665 76.3427 43.1743 76.2762 43.2842 76.2164C43.2892 76.2137 43.2942 76.2103 43.2993 76.2073L57.3116 67.5925ZM142.933 68.971C142.749 68.9737 142.6 69.1269 142.603 69.311V71.7818C142.603 71.7835 142.602 71.7852 142.602 71.7869C142.602 71.9706 142.754 72.1225 142.938 72.1225C143.122 72.1225 143.274 71.971 143.274 71.7869C143.274 71.7852 143.274 71.7835 143.274 71.7818V69.311C143.274 69.3097 143.274 69.308 143.274 69.3063C143.274 69.1225 143.123 68.9707 142.938 68.9707C142.936 68.9707 142.935 68.9707 142.933 68.971ZM138.7 70.7258C138.516 70.7262 138.365 70.8774 138.365 71.0615C138.365 71.1522 138.401 71.2389 138.466 71.302L140.213 73.0495C140.276 73.1153 140.364 73.1526 140.455 73.1526C140.639 73.1526 140.791 73.0014 140.791 72.817C140.791 72.7256 140.754 72.6382 140.688 72.5751L138.941 70.8276C138.877 70.7624 138.79 70.7255 138.7 70.7258ZM147.167 70.7258C147.079 70.7285 146.997 70.7648 146.936 70.8276L145.19 72.5751C145.123 72.6382 145.086 72.7256 145.086 72.817C145.086 73.0011 145.238 73.1526 145.422 73.1526C145.513 73.1526 145.6 73.1153 145.664 73.0495L147.411 71.302C147.476 71.2389 147.512 71.1522 147.512 71.0615C147.512 70.8774 147.361 70.7258 147.177 70.7258C147.173 70.7258 147.17 70.7258 147.167 70.7258ZM136.949 74.9645C136.947 74.9645 136.946 74.9645 136.944 74.9645C136.76 74.9645 136.609 75.1157 136.609 75.3002C136.609 75.484 136.76 75.6358 136.944 75.6358C136.946 75.6358 136.947 75.6358 136.949 75.6358H139.42C139.421 75.6358 139.423 75.6358 139.424 75.6358C139.609 75.6358 139.76 75.4843 139.76 75.3002C139.76 75.1161 139.609 74.9645 139.424 74.9645C139.423 74.9645 139.421 74.9645 139.42 74.9645H136.949ZM146.457 74.9645C146.455 74.9645 146.454 74.9645 146.452 74.9645C146.268 74.9645 146.117 75.1157 146.117 75.3002C146.117 75.484 146.268 75.6358 146.452 75.6358C146.454 75.6358 146.455 75.6358 146.457 75.6358H148.927C148.929 75.6358 148.931 75.6358 148.932 75.6358C149.116 75.6358 149.268 75.4843 149.268 75.3002C149.268 75.1161 149.116 74.9645 148.932 74.9645C148.931 74.9645 148.929 74.9645 148.927 74.9645H146.457ZM41.9792 76.3689C40.5866 77.7777 40.3417 80.0267 41.5068 81.7147C42.37 82.9649 43.7959 83.5975 45.2134 83.5175L47.7083 101.495L27.3719 103.114L28.7948 98.5657C28.8102 98.5163 28.8139 98.4639 28.8058 98.4132L26.4711 83.8414C27.773 83.8199 29.0672 83.3307 30.0805 82.3786C30.0822 82.3766 30.0842 82.3749 30.0859 82.3732C31.283 81.1993 32.1962 79.4431 32.9592 77.097L41.9792 76.3689ZM140.444 77.4491C140.356 77.4518 140.274 77.4884 140.213 77.5509L138.466 79.2983C138.4 79.3615 138.363 79.4488 138.363 79.5402C138.363 79.7243 138.514 79.8759 138.699 79.8759C138.79 79.8759 138.877 79.8386 138.941 79.7727L140.688 78.0253C140.753 77.9621 140.79 77.8755 140.79 77.7847C140.79 77.6006 140.638 77.4491 140.454 77.4491C140.451 77.4491 140.447 77.4491 140.444 77.4491ZM145.423 77.4491C145.239 77.4494 145.088 77.6006 145.088 77.7847C145.088 77.8755 145.125 77.9621 145.19 78.0253L146.937 79.7727C147 79.8386 147.087 79.8759 147.178 79.8759C147.363 79.8759 147.514 79.7247 147.514 79.5402C147.514 79.4488 147.477 79.3615 147.411 79.2983L145.664 77.5509C145.601 77.4857 145.513 77.4491 145.423 77.4491ZM54.8385 77.6235V119.468L50.1405 106.483V80.8663L54.8385 77.6235ZM142.933 78.4782C142.749 78.4809 142.6 78.6341 142.603 78.8182V81.289C142.603 81.2907 142.602 81.2924 142.602 81.294C142.602 81.4778 142.754 81.6297 142.938 81.6297C143.122 81.6297 143.274 81.4782 143.274 81.294C143.274 81.2924 143.274 81.2907 143.274 81.289V78.8182C143.274 78.8169 143.274 78.8152 143.274 78.8138C143.274 78.6297 143.123 78.4779 142.938 78.4779C142.936 78.4779 142.935 78.4779 142.933 78.4782ZM21.634 81.0105C21.9314 81.5611 22.3248 82.0691 22.8197 82.5032C23.6798 83.2572 24.7193 83.6865 25.7854 83.8041L26.409 87.6921L21.5517 99.1315L15.8072 97.0444C15.8068 97.044 21.634 81.0105 21.634 81.0105ZM49.4692 81.33V104.628L48.4176 101.721L45.8783 83.4292C46.3947 83.3156 46.898 83.105 47.3589 82.7868L49.4692 81.33ZM62.0906 83.5451C61.1004 83.5451 60.2904 84.3551 60.2904 85.3453V97.0676C60.2904 98.0577 61.1001 98.8687 62.0906 98.8687H73.8125C74.803 98.8687 75.6137 98.058 75.6137 97.0676V85.3453C75.6137 84.3551 74.803 83.5451 73.8125 83.5451H62.0906ZM78.9557 83.5451C77.9656 83.5451 77.1545 84.3551 77.1545 85.3453V97.0676C77.1545 98.0577 77.9652 98.8687 78.9557 98.8687H90.6776C91.6678 98.8687 92.4778 98.058 92.4778 97.0676V85.3453C92.4778 84.3551 91.6678 83.5451 90.6776 83.5451H78.9557ZM95.8198 83.5451C94.8297 83.5451 94.019 84.3551 94.019 85.3453V97.0676C94.019 98.0577 94.8297 98.8687 95.8198 98.8687H107.542C108.532 98.8687 109.343 98.058 109.343 97.0676V85.3453C109.343 84.3551 108.532 83.5451 107.542 83.5451H95.8198ZM62.0906 84.216H73.8125C74.4398 84.216 74.9428 84.718 74.9428 85.3453V97.0676C74.9428 97.6948 74.4398 98.1975 73.8125 98.1975H62.0906C61.4633 98.1975 60.9614 97.6948 60.9614 97.0676V85.3453C60.9614 84.7183 61.4636 84.216 62.0906 84.216ZM78.9557 84.216H90.6776C91.3046 84.216 91.8069 84.7183 91.8069 85.3453V97.0676C91.8069 97.6948 91.3046 98.1975 90.6776 98.1975H78.9557C78.3284 98.1975 77.8255 97.6948 77.8255 97.0676V85.3453C77.8255 84.7183 78.3284 84.216 78.9557 84.216ZM95.8198 84.216H107.542C108.169 84.216 108.672 84.7183 108.672 85.3453V97.0676C108.672 97.6948 108.169 98.1975 107.542 98.1975H95.8198C95.1929 98.1975 94.6899 97.6948 94.6899 97.0676V85.3453C94.6899 84.7187 95.1929 84.216 95.8198 84.216ZM144.279 95.3971C145.317 96.4057 146.007 97.7761 146.081 99.3368C146.155 100.897 145.599 102.327 144.662 103.43C143.624 102.421 142.934 101.05 142.859 99.49C142.785 97.9297 143.341 96.5001 144.279 95.3971ZM15.5774 97.6747L21.2947 99.7524L15.0072 115.265C14.9692 115.358 14.9756 115.464 15.0243 115.552L16.168 117.63C16.3558 117.971 16.2345 118.392 15.8928 118.58C15.5515 118.768 15.1305 118.647 14.9424 118.305L14.6107 117.702C14.5516 117.595 14.4391 117.528 14.3164 117.528C14.18 117.528 14.0571 117.612 14.0056 117.738L13.2191 119.679C13.2188 119.679 13.2188 119.679 13.2185 119.679C12.9967 120.226 12.3899 120.496 11.8349 120.294C11.0964 120.026 10.1597 119.685 9.35168 119.392C8.53458 119.095 8.11729 118.201 8.41429 117.384C10.279 112.254 15.4127 98.1276 15.5774 97.6747ZM136.912 101.116C138.289 101.564 139.512 102.491 140.266 103.859C141.02 105.227 141.151 106.755 140.795 108.158C139.418 107.71 138.195 106.783 137.441 105.415H137.442C136.688 104.048 136.557 102.519 136.912 101.116ZM149.675 102.008C151.01 102.049 152.236 102.552 153.218 103.352C152.232 104.411 150.876 105.129 149.318 105.237C147.76 105.344 146.318 104.819 145.196 103.905C145.2 103.901 145.204 103.897 145.208 103.892C146.193 102.84 147.544 102.126 149.096 102.019C149.291 102.006 149.484 102.002 149.675 102.008ZM47.8609 102.156L56.6074 126.33C56.6128 126.345 56.6192 126.359 56.6266 126.373C57.3906 127.816 57.2582 129.64 56.1441 130.972C55.9805 131.167 55.8021 131.344 55.6126 131.502C55.6048 131.508 55.5974 131.515 55.5904 131.522L38.3382 148.737L33.7172 144.872L47.7476 128.097C47.839 127.988 47.8511 127.831 47.7775 127.709L37.9394 111.339C37.1015 109.944 36.6163 108.367 36.525 106.743V106.742C36.4302 105.055 36.3371 103.384 36.32 103.075L47.8609 102.156ZM35.6501 103.128C35.6682 103.45 35.7613 105.1 35.855 106.781C35.9524 108.514 36.4705 110.197 37.3646 111.685L38.6184 113.771L36.9889 130.594C36.9879 130.605 36.9876 130.616 36.9876 130.626C36.9876 130.765 36.9809 130.904 36.9668 131.044C36.9668 131.044 36.9668 131.044 36.9668 131.044C36.9412 131.298 36.8925 131.544 36.8246 131.781C36.8216 131.791 36.8193 131.801 36.8173 131.81L34.7386 142.604L32.9958 144.687C32.9925 144.691 32.9894 144.694 32.9864 144.698V144.698C32.9861 144.699 31.7682 146.155 30.8204 147.288C30.0977 148.152 30.2129 149.448 31.0774 150.171C31.6089 150.616 32.3014 151.195 32.9753 151.759L32.2073 155.743L26.2131 155.139L27.4569 142.788C27.467 142.751 27.471 142.713 27.4687 142.675L28.6879 130.571C28.6906 130.544 28.6899 130.516 28.6859 130.489L26.2706 113.964C25.7723 110.553 26.076 107.076 27.1535 103.804L35.6501 103.128ZM145.116 107.365C145.306 107.362 145.499 107.368 145.694 107.385C147.25 107.518 148.593 108.259 149.563 109.334C148.425 110.23 146.975 110.732 145.419 110.598C143.863 110.465 142.519 109.725 141.55 108.649C142.545 107.866 143.78 107.383 145.116 107.365ZM133.086 108.202C134.476 108.608 135.726 109.496 136.522 110.84C137.319 112.184 137.496 113.708 137.184 115.122C135.794 114.716 134.544 113.828 133.747 112.484V112.483C132.952 111.139 132.773 109.615 133.086 108.202ZM142.412 113.578C143.747 113.605 144.979 114.095 145.97 114.885C144.994 115.954 143.646 116.687 142.089 116.81C140.532 116.934 139.085 116.423 137.953 115.521C138.928 114.451 140.277 113.719 141.834 113.595C142.029 113.58 142.221 113.574 142.412 113.578ZM152.903 113.814C153.942 114.823 154.632 116.193 154.706 117.754C154.781 119.314 154.225 120.744 153.287 121.847C152.249 120.838 151.559 119.468 151.485 117.907C151.41 116.347 151.966 114.917 152.903 113.814ZM39.199 114.737L42.0908 119.55C41.744 119.504 41.3919 119.478 41.0331 119.478C40.2244 119.478 39.4446 119.602 38.7061 119.823L39.199 114.737ZM129.668 115.54C133.093 117.101 135.481 120.549 135.484 124.559L135.449 125.236C134.875 125.331 133.535 125.657 132.57 126.742C132.515 126.804 132.485 126.883 132.485 126.965C132.485 127.149 132.636 127.301 132.821 127.301C132.917 127.301 133.008 127.26 133.071 127.188C134.107 126.025 135.793 125.866 135.797 125.865C135.801 125.865 135.805 125.864 135.81 125.864C135.814 125.863 135.819 125.863 135.823 125.862C135.826 125.862 135.829 125.862 135.831 125.862C136.178 125.822 136.53 125.802 136.888 125.802C141.236 125.802 144.923 128.607 146.26 132.501C145.685 132.697 144.52 133.195 143.673 134.241C143.625 134.3 143.598 134.375 143.598 134.452C143.598 134.636 143.75 134.788 143.934 134.788C144.035 134.788 144.131 134.742 144.195 134.663C145.179 133.448 146.744 133.053 146.764 133.048C146.767 133.048 146.77 133.047 146.773 133.046C147.488 132.87 148.243 132.78 149.02 132.78C154.384 132.78 158.751 137.04 158.928 142.362H129.667L129.668 115.54ZM145.538 119.533C146.914 119.981 148.137 120.908 148.891 122.276C149.645 123.643 149.776 125.173 149.419 126.576C148.043 126.127 146.82 125.201 146.066 123.833C145.312 122.465 145.181 120.936 145.538 119.533ZM41.0331 120.149C41.5519 120.149 42.0572 120.205 42.546 120.306L47.0801 127.85L35.6269 141.542L37.4768 131.938C37.552 131.672 37.6065 131.396 37.6347 131.111L37.634 131.112C37.6495 130.96 37.6559 130.809 37.6569 130.659L37.6575 130.651L38.6359 120.55C39.3885 120.294 40.1932 120.149 41.0331 120.149ZM24.544 120.383C24.9001 121.787 24.7691 123.316 24.0151 124.684C23.2612 126.052 22.0379 126.978 20.6614 127.427C20.3053 126.023 20.4363 124.495 21.1902 123.126C21.9442 121.759 23.1671 120.832 24.544 120.383ZM158.3 120.425C159.635 120.467 160.862 120.969 161.844 121.769C160.858 122.829 159.501 123.547 157.943 123.654C156.385 123.761 154.943 123.236 153.82 122.322C154.807 121.262 156.163 120.544 157.721 120.437C157.916 120.423 158.109 120.42 158.3 120.425ZM62.0906 125.025C61.1004 125.025 60.2904 125.836 60.2904 126.826V138.548C60.2904 139.538 61.1004 140.348 62.0906 140.348H73.8125C74.803 140.348 75.6137 139.538 75.6137 138.548V126.826C75.6137 125.836 74.803 125.025 73.8125 125.025H62.0906ZM78.9557 125.025C77.9656 125.025 77.1545 125.836 77.1545 126.826V138.548C77.1545 139.538 77.9656 140.348 78.9557 140.348H90.6776C91.6678 140.348 92.4778 139.538 92.4778 138.548V126.826C92.4778 125.835 91.6678 125.025 90.6776 125.025H78.9557ZM95.8198 125.025C94.8297 125.025 94.019 125.835 94.019 126.826V138.548C94.019 139.538 94.8297 140.348 95.8198 140.348H107.542C108.532 140.348 109.343 139.538 109.343 138.548V126.826C109.343 125.835 108.532 125.025 107.542 125.025H95.8198ZM62.0906 125.696H73.8125C74.4398 125.696 74.9428 126.199 74.9428 126.826V138.548C74.9428 139.175 74.4398 139.677 73.8125 139.677H62.0906C61.4633 139.677 60.9614 139.175 60.9614 138.548V126.826C60.9614 126.199 61.4636 125.696 62.0906 125.696ZM78.9557 125.696H90.6776C91.3046 125.696 91.8069 126.199 91.8069 126.826V138.548C91.8069 139.175 91.3046 139.677 90.6776 139.677H78.9557C78.3284 139.677 77.8255 139.175 77.8255 138.548V126.826C77.8255 126.199 78.3288 125.696 78.9557 125.696ZM95.8198 125.696H107.542C108.169 125.696 108.672 126.199 108.672 126.826V138.548C108.672 139.175 108.169 139.677 107.542 139.677H95.8198C95.1929 139.677 94.6899 139.175 94.6899 138.548V126.826C94.6899 126.199 95.1929 125.696 95.8198 125.696ZM153.741 125.782C153.932 125.779 154.125 125.785 154.319 125.802C155.875 125.936 157.219 126.676 158.188 127.751C157.05 128.647 155.6 129.149 154.044 129.015C152.488 128.882 151.144 128.143 150.175 127.067C151.17 126.283 152.405 125.801 153.741 125.782ZM16.341 126.633C17.6766 126.652 18.9109 127.134 19.9064 127.918C18.9375 128.993 17.5936 129.733 16.0376 129.867C14.4807 130 13.031 129.498 11.8934 128.602C12.8623 127.526 14.2069 126.787 15.7628 126.654C15.9574 126.637 16.1502 126.63 16.341 126.633ZM27.5483 127.349L28.0156 130.545L26.8253 142.362H10.8259C11.003 137.04 15.3701 132.78 20.7346 132.78C21.4919 132.78 22.2277 132.866 22.936 133.027C22.9642 133.039 22.9938 133.047 23.024 133.05C23.1597 133.091 24.3585 133.465 25.182 134.426C25.2458 134.502 25.3399 134.546 25.4393 134.546C25.6235 134.546 25.775 134.395 25.775 134.21C25.775 134.129 25.7454 134.05 25.6913 133.989C24.9528 133.127 23.9856 132.686 23.4853 132.5C24.2214 130.358 25.6695 128.546 27.5483 127.349ZM49.4692 138.578V142.362H45.678L49.4692 138.578ZM33.2861 145.387L38.0399 149.364C38.0614 149.557 38.3812 152.415 38.4861 153.355C38.4961 153.444 38.4693 153.533 38.4118 153.602C38.4118 153.602 38.4115 153.603 38.4111 153.603C37.9119 154.2 37.0323 154.278 36.4352 153.778C35.0473 152.618 32.8877 150.812 31.5078 149.657C30.9215 149.167 30.8452 148.305 31.3354 147.719C32.1892 146.698 33.0808 145.632 33.2861 145.387ZM26.1459 155.807L32.3121 156.428C32.4381 156.575 34.3075 158.762 34.9227 159.481C34.9227 159.481 34.9227 159.482 34.9227 159.482C34.9808 159.55 35.009 159.638 34.9999 159.727C34.9989 159.737 34.9983 159.747 34.9979 159.757L34.9993 159.728C34.9213 160.503 34.2383 161.061 33.4632 160.982C31.6633 160.801 28.862 160.519 27.0715 160.339C26.3119 160.262 25.7642 159.592 25.8405 158.832C25.9739 157.508 26.114 156.124 26.1459 155.807Z" fill="#828282"/>
</svg>
