<svg width="173" height="175" viewBox="0 0 173 175" fill="none" xmlns="http://www.w3.org/2000/svg">
<path fill-rule="evenodd" clip-rule="evenodd" d="M164.394 117.48V122.769C164.396 123.131 164.325 123.49 164.184 123.824C164.046 124.159 163.842 124.463 163.585 124.719C163.328 124.973 163.024 125.177 162.691 125.318C162.356 125.456 161.997 125.526 161.635 125.527H157.564C157.202 125.525 156.843 125.453 156.508 125.318C156.175 125.174 155.872 124.971 155.614 124.719L155.595 124.7C155.348 124.447 155.151 124.15 155.014 123.824C154.879 123.489 154.807 123.131 154.805 122.769V120.6C154.806 120.238 154.877 119.879 155.014 119.544C155.154 119.207 155.357 118.9 155.614 118.64L156.774 117.48H164.394ZM36.7663 91.1887C36.6285 91.1891 36.4914 91.2079 36.3587 91.2448L7.75553 98.9021C6.92936 99.1339 6.4395 99.983 6.65218 100.814L11.5413 119.049C11.6445 119.451 11.9052 119.794 12.2644 120.001L12.2832 120.01C12.5167 120.14 12.7791 120.208 13.0462 120.209H13.0509C13.1873 120.208 13.3227 120.189 13.4541 120.152L42.0576 112.486C42.4544 112.379 42.7927 112.119 42.9983 111.763C43.204 111.406 43.2621 110.983 43.1603 110.583L38.2708 92.3485C38.1643 91.946 37.9002 91.603 37.5384 91.397L37.5289 91.388C37.2975 91.2586 37.0367 91.1901 36.7713 91.1887H36.7663ZM11.0659 110.155C11.0175 109.979 11.1217 109.796 11.2984 109.748C11.3001 109.747 11.3021 109.747 11.3038 109.746C11.4822 109.7 11.6646 109.806 11.7127 109.984L12.0073 111.087C12.0722 111.261 11.9838 111.455 11.8098 111.519C11.6357 111.584 11.4426 111.496 11.3777 111.322C11.37 111.301 11.3643 111.28 11.3609 111.258L11.0659 110.155ZM16.7732 98.246C16.9543 98.1986 17.1397 98.3071 17.1868 98.4882C17.2342 98.6693 17.1256 98.8547 16.9445 98.9021L10.7995 100.548C10.6019 100.598 10.4175 100.689 10.2576 100.815C10.0939 100.941 9.95485 101.095 9.847 101.271C9.74284 101.449 9.678 101.646 9.65683 101.851C9.6266 102.055 9.6397 102.262 9.6948 102.46L11.3784 108.757C11.4268 108.934 11.323 109.116 11.1462 109.165C11.1445 109.165 11.1425 109.166 11.1409 109.166C10.9621 109.213 10.7797 109.106 10.7316 108.928L9.04804 102.631C8.97211 102.349 8.95262 102.055 8.99093 101.766C9.03057 101.475 9.12431 101.194 9.26676 100.938C9.41829 100.685 9.61517 100.463 9.847 100.281C10.0802 100.106 10.3449 99.9769 10.6268 99.9013L16.7732 98.246ZM60.5959 101.87C60.2791 101.783 60.0093 101.574 59.8446 101.29C59.6756 101.007 59.631 100.666 59.721 100.349L65.4662 78.9087C65.5506 78.5878 65.7596 78.3137 66.0468 78.1474C66.3334 77.978 66.6771 77.9334 66.9976 78.0241L88.4384 83.7693C88.758 83.8513 89.0298 84.0613 89.19 84.3495C89.359 84.6365 89.4037 84.9802 89.3133 85.301L83.5775 106.74C83.4888 107.059 83.2765 107.33 82.9879 107.492C82.7046 107.661 82.3643 107.706 82.0471 107.616L60.6063 101.87L60.5959 101.87ZM79.4813 102.563C79.5091 102.563 79.5367 102.567 79.5636 102.574L81.6083 103.126C81.783 103.177 81.8845 103.359 81.8371 103.535L81.2945 105.58C81.2539 105.725 81.1225 105.826 80.972 105.828H80.97C80.9414 105.829 80.9132 105.825 80.8856 105.818L78.8405 105.266C78.6632 105.221 78.556 105.04 78.6013 104.863C78.6017 104.861 78.6023 104.859 78.6027 104.857L79.1543 102.812C79.1957 102.666 79.3281 102.565 79.4792 102.563H79.4813ZM75.4001 101.469C75.428 101.469 75.4559 101.473 75.4828 101.48L77.5181 102.032C77.6955 102.077 77.8027 102.258 77.7574 102.435C77.757 102.437 77.7563 102.439 77.756 102.441L77.2137 104.486C77.1704 104.631 77.0387 104.731 76.8878 104.735H76.8858C76.8586 104.735 76.8311 104.731 76.8048 104.724L74.7597 104.172C74.582 104.127 74.4752 103.945 74.5205 103.768C74.5209 103.766 74.5215 103.765 74.5219 103.763L75.0641 101.718C75.1088 101.571 75.2442 101.47 75.3978 101.469H75.4001ZM71.3136 100.375C71.3402 100.375 71.3667 100.379 71.3922 100.386L73.4377 100.938C73.6151 100.984 73.7222 101.165 73.6765 101.342C73.6762 101.344 73.6759 101.345 73.6752 101.347L73.1235 103.392C73.0825 103.537 72.9515 103.638 72.801 103.641H72.7986C72.7704 103.641 72.7419 103.637 72.7146 103.63L70.679 103.078C70.5016 103.033 70.3947 102.852 70.4401 102.674C70.4404 102.673 70.4411 102.671 70.4414 102.669L70.9833 100.624C71.027 100.479 71.1597 100.378 71.3116 100.375H71.3136ZM67.2254 99.2808C67.2547 99.2811 67.2836 99.2851 67.3118 99.2922L69.3569 99.8442C69.5336 99.8936 69.6391 100.075 69.5947 100.253L69.0431 102.3C69.0017 102.445 68.8707 102.545 68.7202 102.548H68.7182C68.6896 102.548 68.6614 102.545 68.6338 102.538L66.5887 101.986C66.412 101.936 66.3065 101.755 66.3512 101.577L66.9029 99.5317C66.9402 99.3853 67.0719 99.2824 67.2231 99.2824L67.2254 99.2808ZM63.1446 98.1868C63.1739 98.1872 63.2028 98.1912 63.231 98.1986L65.2667 98.7503C65.4444 98.7956 65.5512 98.9767 65.5059 99.1541C65.5056 99.1558 65.5049 99.1575 65.5045 99.1591L64.9623 101.204C64.9186 101.349 64.7872 101.449 64.6364 101.453H64.6344C64.6068 101.453 64.5796 101.45 64.5531 101.442L62.5083 100.89C62.3306 100.845 62.2234 100.664 62.2687 100.487C62.2691 100.485 62.2697 100.483 62.2701 100.482L62.8218 98.4361C62.8594 98.2896 62.9914 98.1872 63.1426 98.1868H63.1446ZM20.7495 97.1809C20.9326 97.1379 21.1157 97.2515 21.1584 97.4346C21.199 97.6076 21.0993 97.783 20.9299 97.8367L18.6375 98.4459C18.4548 98.4771 18.2811 98.3541 18.2498 98.1714C18.2223 98.0111 18.3137 97.8542 18.4665 97.7988L20.7495 97.1809ZM72.2329 86.4225C72.3088 86.4229 72.384 86.4323 72.4576 86.4508L72.4862 86.4602C72.6471 86.5011 72.7949 86.5831 72.9146 86.6984L79.697 93.3565C79.8176 93.466 79.9032 93.6081 79.9442 93.7657C79.9899 93.9236 79.9933 94.0912 79.9536 94.2508C79.9076 94.4091 79.8226 94.5529 79.7064 94.6695C79.5871 94.785 79.4393 94.867 79.2783 94.9073L70.0799 97.2756C70.0006 97.2945 69.9193 97.3039 69.8377 97.3042H69.834C69.7533 97.3045 69.6734 97.2948 69.5951 97.2756C69.4436 97.2357 69.3031 97.1607 69.1859 97.0569L69.1667 97.0378C69.0484 96.9212 68.9604 96.7777 68.91 96.6195C68.8623 96.4579 68.8623 96.2862 68.91 96.1246L71.3264 87.1073C71.3724 86.949 71.4574 86.8052 71.5737 86.6886C71.7494 86.5179 71.9849 86.4225 72.2298 86.4225H72.2329ZM20.1787 88.0208C21.6472 87.5894 23.1907 87.4758 24.7063 87.6878C25.6746 87.8585 26.3862 88.1999 26.7017 88.7021L14.8531 91.8768C14.8746 91.2885 15.3211 90.6246 16.0703 89.999C17.2846 89.0623 18.6805 88.3883 20.1693 88.0204L20.1787 88.0208ZM84.4037 84.195C84.4329 84.195 84.4625 84.1987 84.4907 84.2064L86.5264 84.7487C86.7038 84.794 86.811 84.9745 86.7656 85.1519C86.7653 85.1539 86.7646 85.1556 86.7643 85.1576L86.222 87.2027C86.1813 87.3498 86.0473 87.4516 85.8947 87.452H85.8927C85.8625 87.452 85.8326 87.4483 85.8034 87.4405L83.768 86.8889C83.5899 86.8432 83.4831 86.6617 83.5288 86.484C83.5291 86.4827 83.5295 86.4813 83.5298 86.4796L84.0721 84.4443C84.1127 84.2961 84.2481 84.194 84.4017 84.195H84.4037ZM80.3141 83.101C80.3434 83.101 80.3723 83.1047 80.4005 83.1121L82.4456 83.6547C82.6233 83.7001 82.7302 83.8812 82.6848 84.0586C82.6845 84.0603 82.6838 84.0619 82.6835 84.0636L82.1315 86.1087C82.0945 86.2545 81.9638 86.357 81.8133 86.358H81.8113C81.7814 86.358 81.7518 86.3543 81.7229 86.3466L79.6869 85.7949C79.5091 85.7492 79.4023 85.5685 79.448 85.3907C79.4483 85.3891 79.449 85.3874 79.4493 85.3857L79.9913 83.3503C80.0289 83.2039 80.1609 83.1014 80.3121 83.101H80.3141ZM76.2337 82.0068C76.2626 82.0071 76.2915 82.0108 76.3197 82.0179L78.3648 82.5605C78.5415 82.6098 78.647 82.7913 78.6027 82.9693L78.0507 85.0144C78.0134 85.1603 77.8823 85.2627 77.7318 85.2637H77.7298C77.7002 85.2637 77.6707 85.2597 77.6418 85.2523L75.5963 84.7006C75.4186 84.6549 75.3118 84.4742 75.3575 84.2965C75.3578 84.2948 75.3585 84.2931 75.3588 84.2914L75.9105 82.2561C75.9478 82.1096 76.0798 82.0068 76.231 82.0068H76.2337ZM72.1529 80.9125C72.1818 80.9128 72.2107 80.9168 72.2389 80.9239L74.2746 81.4662C74.4523 81.5119 74.5595 81.693 74.5138 81.8707C74.5135 81.8724 74.5131 81.8737 74.5125 81.8754L73.9702 83.9208C73.9312 84.0667 73.7995 84.1685 73.6483 84.1698H73.6463C73.6174 84.1701 73.5889 84.1661 73.561 84.1584L71.5162 83.6067C71.3385 83.5613 71.2316 83.3806 71.277 83.2028C71.2773 83.2012 71.278 83.1992 71.2783 83.1975L71.83 81.1527C71.871 81.0096 72.002 80.9115 72.1509 80.9125H72.1529ZM68.0593 79.8152C68.0896 79.8155 68.1198 79.8205 68.1487 79.8303L70.1941 80.3722C70.3719 80.4179 70.4787 80.5994 70.433 80.7771C70.4327 80.7784 70.4323 80.7801 70.4317 80.7815L69.88 82.8269C69.8427 82.9727 69.712 83.0748 69.5615 83.0762H69.5595C69.5296 83.0762 69.4997 83.0722 69.4708 83.0644L67.4354 82.5127C67.2577 82.4671 67.1505 82.286 67.1962 82.1082C67.1965 82.1065 67.1969 82.1052 67.1975 82.1035L67.7398 80.0581C67.7805 79.916 67.9095 79.8169 68.0573 79.8145L68.0593 79.8152ZM115.919 70.3372C116.049 70.3392 116.177 70.3621 116.3 70.4044H116.319C116.507 70.4733 116.678 70.5801 116.823 70.7182C117.071 70.9652 117.211 71.3005 117.213 71.6506V77.471C117.213 77.724 117.141 77.9717 117.004 78.1843C116.867 78.3963 116.672 78.5647 116.442 78.6695C116.381 78.6917 116.33 78.7357 116.3 78.7931L115.71 79.7063H110.212V75.5499C110.21 74.8975 110.296 74.248 110.469 73.6187C110.642 72.9888 110.898 72.3843 111.23 71.8209C111.239 71.8018 111.249 71.7927 111.258 71.7735C111.334 71.6116 111.943 70.3376 112.59 70.3372H115.919ZM128.675 68.7581C125.115 68.7514 122.231 65.8674 122.224 62.3073V50.2188C124.773 51.1317 127.496 51.4535 130.187 51.1596C132.702 50.8404 135.114 49.9631 137.245 48.5917C136.809 50.6462 136.103 56.0504 139.452 60.2629L139.509 60.3301L139.512 60.3338C139.573 60.4101 139.666 60.4544 139.764 60.4541H141.353C141.546 60.4544 141.738 60.4789 141.924 60.527C142.022 60.5528 142.117 60.5854 142.21 60.6251C142.484 60.7356 142.734 60.9006 142.942 61.1102C142.963 61.1344 142.985 61.1569 143.009 61.1774C143.04 61.211 143.07 61.2446 143.099 61.2809L143.132 61.3276C143.138 61.3343 143.144 61.3414 143.15 61.3478C143.626 61.9895 143.731 62.8338 143.427 63.5726C143.317 63.8441 143.152 64.09 142.942 64.2957C142.507 64.7126 141.932 64.9501 141.33 64.9612H139.767C139.584 64.9599 139.435 65.107 139.433 65.2898C139.433 65.2912 139.433 65.2928 139.433 65.2942V72.7233C139.433 72.7774 139.433 72.8312 139.43 72.8846C139.427 72.9004 139.425 72.9162 139.424 72.9323C139.373 73.8542 138.984 74.7251 138.33 75.3772C138.273 75.4347 138.214 75.4905 138.154 75.5452C137.488 76.1335 136.635 76.4655 135.746 76.4813H135.663C134.668 76.4792 133.715 76.0821 133.013 75.3776C132.973 75.3379 132.933 75.2969 132.896 75.2549C132.63 74.9613 132.411 74.628 132.248 74.2672C132.03 73.7817 131.918 73.2555 131.919 72.7237V69.0907C131.915 68.9046 131.762 68.7558 131.576 68.7578L128.675 68.7581ZM130.827 62.2331C131.016 62.2338 131.168 62.3866 131.167 62.5751C131.164 64.3551 129.722 65.7975 127.942 65.8008H127.932C126.148 65.8025 124.701 64.3588 124.697 62.5754C124.695 62.3893 124.844 62.2364 125.03 62.2331H130.826H130.827Z" fill="#FFC5A7"/>
<path fill-rule="evenodd" clip-rule="evenodd" d="M144.931 83.9679L151.105 92.0438L151.276 93.1284H126.839C126.705 92.0055 126.546 90.8121 126.382 89.5949V89.5804C126.367 89.4699 126.351 89.36 126.336 89.2505C126.316 89.107 126.297 88.9632 126.278 88.8194C126.04 87.1453 125.802 85.5 125.572 83.9679H144.931ZM82.9493 77.7567C83.035 77.8403 83.1348 77.9079 83.2443 77.9562C83.3565 78.0016 83.4755 78.0275 83.5964 78.0325C83.7177 78.0312 83.8377 78.005 83.9485 77.9562C84.0597 77.9112 84.1602 77.843 84.2432 77.7567L84.2815 77.7281C84.4512 77.5544 84.5496 77.3236 84.5573 77.081C84.5577 76.8388 84.4619 76.6063 84.2909 76.4346C82.6691 74.7567 81.384 72.7839 80.5048 70.6222C78.7546 66.2733 78.7546 61.4164 80.5048 57.0675C81.3837 54.9058 82.6691 52.9329 84.2909 51.255C84.4569 51.0806 84.5489 50.8488 84.5476 50.6079C84.5483 50.368 84.4522 50.1379 84.2815 49.9696C84.2717 49.9602 84.2623 49.941 84.2432 49.9316C84.1575 49.8476 84.0577 49.7794 83.9485 49.73C83.8383 49.68 83.7174 49.6568 83.5964 49.6628C83.4758 49.6605 83.3559 49.6833 83.2443 49.73C83.1335 49.7771 83.0333 49.8456 82.9493 49.9316C81.1559 51.7875 79.7354 53.9704 78.7644 56.3616C75.7987 63.6919 77.44 72.082 82.9493 77.7547V77.7567ZM86.5443 74.1516C86.63 74.235 86.7301 74.3025 86.8393 74.3512C86.9502 74.4003 87.0701 74.4261 87.1914 74.4275C87.3124 74.4302 87.4323 74.4073 87.5435 74.3603C87.6557 74.3119 87.7589 74.2444 87.8479 74.1607L87.8765 74.1321L87.8859 74.1227C88.0528 73.9517 88.1483 73.7233 88.1523 73.4844C88.1536 73.2462 88.0616 73.0167 87.8953 72.846V72.8366C86.7519 71.6341 85.8451 70.2271 85.2222 68.6893C83.9794 65.5812 83.9794 62.1139 85.2222 59.0057C85.8354 57.4599 86.7432 56.0481 87.8953 54.849V54.8392C88.0616 54.6686 88.1536 54.4391 88.1523 54.2009C88.1452 53.9657 88.0502 53.7416 87.8859 53.5729C87.8667 53.5545 87.8573 53.5447 87.8479 53.5353V53.5259C87.7589 53.4416 87.6557 53.3734 87.5435 53.3243C87.4306 53.283 87.3117 53.2605 87.1914 53.2571C86.9482 53.2618 86.7163 53.3609 86.5443 53.533C85.229 54.9152 84.1894 56.5359 83.4819 58.3079C82.7709 60.0687 82.4098 61.9509 82.4182 63.8499C82.4168 65.7461 82.7787 67.6252 83.4839 69.3858C84.1935 71.1537 85.232 72.7711 86.545 74.1516H86.5443ZM103.79 71.4215V56.6203L97.8638 54.4136V73.6285L103.79 71.4215ZM31.0601 59.6169C31.2973 58.7349 31.1777 57.7952 30.7275 57.0009C30.2803 56.2685 25.4103 47.8119 25.4103 47.8025C24.9561 47.0079 24.2021 46.4287 23.3172 46.1952C22.4315 45.9563 21.4871 46.0793 20.6922 46.5375L4.2739 56.0121C2.63063 56.9673 2.06216 59.0672 2.9992 60.7209C3.44639 61.4627 8.30766 69.919 8.30766 69.9284C9.26487 71.5683 11.3587 72.1395 13.0161 71.2128L29.4626 61.7194C30.2528 61.2581 30.8276 60.5018 31.0601 59.6169ZM90.7723 56.8588C90.653 56.8686 90.5364 56.8974 90.4262 56.9438C90.3136 56.9912 90.2129 57.0627 90.1312 57.1535C86.6414 60.9322 86.6414 66.7581 90.1312 70.5368C90.2166 70.6232 90.3163 70.6941 90.4262 70.7461C90.5381 70.7935 90.657 70.8224 90.778 70.8318C90.9013 70.8288 91.0236 70.8063 91.1398 70.7646C91.2531 70.7139 91.3562 70.643 91.4442 70.5556C91.4536 70.5459 91.4728 70.5365 91.4822 70.5173L91.501 70.4985C91.6646 70.3379 91.757 70.1189 91.758 69.8897C91.7651 69.6539 91.6794 69.4251 91.5198 69.2514H91.5104C88.6919 66.197 88.6919 61.4903 91.5104 58.4359C91.67 58.2622 91.7557 58.0334 91.7486 57.7975C91.7486 57.5637 91.6522 57.3399 91.4822 57.1793C91.4724 57.1625 91.4603 57.1471 91.4459 57.134V57.132C91.3612 57.0402 91.2574 56.9687 91.1415 56.9223C91.0252 56.881 90.903 56.8581 90.7796 56.8551L90.7723 56.8588ZM140.318 65.6383C140.568 65.6446 140.816 65.651 141.061 65.6467C140.703 66.4379 140.364 67.125 140.099 67.6736V65.6383H140.318ZM117.108 60.9201C117.304 60.9194 117.498 60.9581 117.679 61.034C117.856 61.1083 118.017 61.2144 118.155 61.3478C118.291 61.4852 118.4 61.6465 118.478 61.8239V61.8333C118.548 62.0124 118.583 62.2029 118.583 62.3947V65.6477C118.583 65.8395 118.547 66.0297 118.478 66.2088C118.405 66.3885 118.295 66.5508 118.155 66.6845C118.017 66.8206 117.856 66.9304 117.679 67.0081C117.498 67.084 117.304 67.1226 117.108 67.1219H114.578V60.9201H117.108ZM20.7587 56.4301L16.3927 63.2407C16.3617 63.2827 16.3228 63.3183 16.2784 63.3456C16.1195 63.4379 15.9159 63.3842 15.8235 63.2253C15.8228 63.2243 15.8222 63.2233 15.8218 63.2222L12.0925 56.7631C12.0666 56.716 12.0505 56.6643 12.0451 56.6109C12.0417 56.4261 12.1842 56.2712 12.3686 56.2591L20.4446 55.9167C20.5175 55.9093 20.591 55.9258 20.6535 55.9641C20.8061 56.0672 20.8521 56.2715 20.7587 56.4301ZM139.928 59.7785C135.999 54.7559 138.092 47.955 138.092 47.9359C138.145 47.7578 138.043 47.571 137.865 47.5186C137.806 47.5011 137.743 47.5005 137.684 47.5163C137.646 47.5263 137.611 47.5425 137.578 47.5646C135.373 49.1384 132.814 50.1439 130.127 50.492L130.113 50.4937C127.487 50.7729 124.832 50.451 122.349 49.553C122.241 49.5153 122.134 49.4767 122.027 49.4377C122.01 49.429 121.99 49.4223 121.971 49.4179C119.33 48.4264 117.994 45.4822 118.985 42.8418C119.079 42.5905 119.193 42.3469 119.326 42.1134C119.814 41.2523 120.546 40.5541 121.428 40.1062C122.738 39.4101 124.118 38.8581 125.547 38.46C127.11 38.0161 128.727 37.789 130.352 37.7846C139.521 37.7846 141.072 43.121 141.072 43.1398C141.119 43.2816 141.255 43.3746 141.405 43.3683C141.799 43.3763 142.191 43.4274 142.575 43.5205C143.722 43.7939 144.671 44.5953 145.133 45.6798C145.656 46.7926 145.847 48.2195 145.828 49.7787C145.765 51.6454 145.494 53.499 145.019 55.3052C144.81 56.1788 144.515 57.1226 144.182 58.0831C143.906 58.8915 143.602 59.7096 143.288 60.5085L143.269 60.4921C142.901 60.1763 142.462 59.9552 141.99 59.8477C141.782 59.8006 141.571 59.7768 141.358 59.7761H139.93L139.928 59.7785ZM78.3192 2.67084C78.5094 2.67319 78.6992 2.68797 78.8877 2.71485C79.4955 2.78776 80.0818 2.98531 80.6096 3.29509C83.3871 5.0069 86.374 6.55777 89.1898 8.24136C89.721 8.5545 90.1887 8.96405 90.569 9.44921C90.9426 9.94041 91.2174 10.4995 91.3774 11.0955C91.5363 11.6939 91.5783 12.3175 91.501 12.9316C91.4163 13.5364 91.2198 14.1203 90.9211 14.6532C89.1992 17.4307 87.6581 20.4082 85.9651 23.2237C85.6597 23.7602 85.2481 24.2289 84.7556 24.6012C83.7627 25.3578 82.5122 25.6928 81.2741 25.5335C80.6637 25.4542 80.075 25.2536 79.5428 24.9439C76.7368 23.2599 73.7405 21.7286 70.9818 20.007C70.4489 19.6929 69.9812 19.2793 69.6043 18.7891C69.2283 18.2992 68.9538 17.7398 68.7959 17.1428C68.4697 15.9393 68.6377 14.6552 69.2619 13.576C70.0011 12.3443 70.718 11.0921 71.43 9.83793L72.0401 8.7628C72.752 7.50826 73.4673 6.25674 74.2082 5.02471C74.5136 4.48748 74.9252 4.01845 75.4177 3.64551C75.9072 3.26687 76.4666 2.98901 77.064 2.82741C77.4554 2.72191 77.8589 2.66882 78.2641 2.66882L78.3192 2.67084ZM82.7689 9.47777C85.3271 10.9709 86.1905 14.255 84.6974 16.8132C83.2161 19.3512 79.9682 20.2247 77.4138 18.7716L77.404 18.7619C74.8499 17.2621 73.9955 13.9758 75.4953 11.4217C76.9776 8.89719 80.2108 8.02835 82.7592 9.46903L82.7689 9.47777ZM89.2755 10.5529C89.598 10.7457 89.8332 11.0562 89.9316 11.4187C90.1299 12.1743 89.6854 12.9494 88.9328 13.1594C88.5666 13.2548 88.1775 13.2038 87.8486 13.0166L87.8294 12.9975C87.1672 12.5997 86.9471 11.7439 87.3349 11.076L87.3443 11.0478C87.7458 10.3842 88.6045 10.1642 89.2755 10.5529Z" fill="#E46D2F"/>
<path fill-rule="evenodd" clip-rule="evenodd" d="M139.433 167.809V169.348L135.372 172.089C135.096 172.272 134.871 172.521 134.715 172.812C134.559 173.105 134.477 173.432 134.478 173.764C134.478 173.952 134.524 174.138 134.61 174.306H121.809C121.666 174.305 121.529 174.246 121.428 174.144C121.328 174.043 121.27 173.906 121.267 173.764C121.271 173.316 121.49 172.898 121.856 172.641L129.038 167.809H139.433ZM153.321 167.809V172.736C153.323 173.152 153.154 173.551 152.855 173.84L152.845 173.859C152.554 174.145 152.161 174.306 151.752 174.306H135.694C135.551 174.305 135.414 174.246 135.314 174.144C135.209 174.045 135.151 173.907 135.152 173.764C135.152 173.541 135.207 173.321 135.314 173.125C135.414 172.93 135.561 172.763 135.742 172.64L142.924 167.808L153.321 167.809ZM53.1852 159.752L75.8815 146.644C76.2323 146.439 76.4886 146.105 76.5948 145.712C76.6953 145.324 76.6445 144.913 76.4523 144.561L63.3441 121.865C63.3441 121.855 63.3351 121.846 63.3253 121.827C62.8986 121.116 61.9854 120.872 61.2611 121.275L61.204 121.304L38.5459 134.393C38.1901 134.594 37.9297 134.93 37.8232 135.325C37.7231 135.712 37.7738 136.124 37.9657 136.476L51.0833 159.181C51.2849 159.537 51.6205 159.797 52.0156 159.904C52.4104 160.006 52.8294 159.951 53.1852 159.752ZM39.9919 135.658L61.6132 123.177C61.7738 123.088 61.976 123.143 62.0698 123.301L72.0483 140.594C72.1411 140.751 72.089 140.954 71.9321 141.047C71.9297 141.048 71.927 141.05 71.9247 141.051L50.3132 153.531C50.1556 153.624 49.9524 153.571 49.8596 153.413C49.8586 153.411 49.8573 153.409 49.8563 153.407L39.8686 136.115C39.7843 135.953 39.8381 135.754 39.9919 135.658ZM57.1138 134.107L56.9048 142.402C56.9044 142.451 56.8947 142.499 56.8762 142.544C56.8047 142.714 56.6101 142.795 56.4394 142.725L52.4635 141.023L51.474 149.203L67.6736 139.852L57.1138 134.107ZM48.5527 135.315C47.8471 135.127 47.0962 135.223 46.4602 135.581L46.4414 135.591C45.8007 135.959 45.3347 136.569 45.1472 137.284C44.9496 137.989 45.0457 138.744 45.4136 139.377L45.423 139.396C46.1921 140.728 47.8948 141.184 49.2267 140.415C49.864 140.047 50.33 139.441 50.5219 138.73C50.714 138.022 50.6183 137.266 50.2554 136.628L50.246 136.609C49.8798 135.966 49.269 135.5 48.5527 135.315ZM14.6188 92.6325L4.24517 95.4124C3.31518 95.6594 2.52361 96.2695 2.04753 97.1057C1.56171 97.9326 1.43135 98.9207 1.68602 99.8453L7.71684 122.379C8.23223 124.309 10.2142 125.455 12.1437 124.94C12.1457 124.939 12.1477 124.939 12.1497 124.938L45.5662 115.978C47.4954 115.463 48.6417 113.481 48.1267 111.552C48.126 111.549 48.1257 111.547 48.125 111.545L42.0938 89.0201C41.8415 88.0931 41.233 87.3036 40.4012 86.8228C39.573 86.3413 38.5865 86.2113 37.6616 86.4613L22.8584 90.4258L14.6702 92.6238C14.6534 92.6282 14.636 92.6312 14.6188 92.6325ZM36.7702 90.5196C37.1492 90.5212 37.5218 90.6203 37.8514 90.8075L37.88 90.8172C38.393 91.1142 38.766 91.6038 38.9165 92.1773C40.5241 98.1701 42.3791 104.391 43.7962 110.403C44.1181 111.587 43.4199 112.809 42.2363 113.133C32.9525 115.922 23.0405 118.279 13.6237 120.8C13.4375 120.851 13.2457 120.878 13.0525 120.879H13.0458C12.6624 120.877 12.2858 120.778 11.9512 120.59L11.9324 120.571C11.4193 120.279 11.0454 119.792 10.8952 119.221C9.28754 113.218 7.43461 107.007 6.00603 100.995C5.85719 100.423 5.93917 99.8147 6.23416 99.302C6.52613 98.7924 7.00859 98.4191 7.57539 98.2652C16.8595 95.4783 26.7712 93.119 36.1789 90.5982C36.3698 90.5458 36.567 90.5192 36.7649 90.5196H36.7702Z" fill="#3F3F3F"/>
<path d="M172.535 174.972H169.568C169.385 174.973 169.236 174.826 169.235 174.643C169.235 174.642 169.235 174.64 169.235 174.639C169.23 174.46 169.372 174.311 169.551 174.306C169.557 174.306 169.562 174.306 169.568 174.306H172.535C172.715 174.302 172.864 174.444 172.868 174.623C172.868 174.629 172.868 174.634 172.868 174.639C172.869 174.822 172.722 174.971 172.539 174.972C172.538 174.972 172.536 174.972 172.535 174.972ZM159.6 174.972H14.5183C14.3321 174.974 14.1793 174.825 14.1759 174.639C14.1759 174.455 14.3254 174.306 14.5095 174.306C14.5126 174.306 14.5156 174.306 14.5183 174.306H120.725C120.642 174.138 120.598 173.952 120.599 173.764C120.588 173.091 120.922 172.46 121.483 172.09L128.548 167.322L123.358 147.062C122.765 144.763 122.461 142.398 122.454 140.023C122.452 137.647 122.743 135.28 123.32 132.975L126.889 118.745C126.071 118.577 125.62 118.461 125.612 118.459C125.437 118.42 125.326 118.246 125.365 118.07C125.365 118.07 125.365 118.069 125.365 118.069C125.441 117.575 127.163 106.236 126.849 99.901C126.811 99.1209 126.725 98.1506 126.621 97.066C126.518 96.0285 126.378 94.8435 126.229 93.5658C126.22 93.5409 126.215 93.5154 126.212 93.4895C126.1 92.569 125.976 91.6272 125.852 90.6811C125.691 90.965 125.526 91.2476 125.365 91.5301C124.737 92.6241 123.777 94.3268 122.912 95.8579C122.37 96.8188 121.837 97.7508 121.428 98.4929L120.601 99.9484L120.582 99.9672C120.138 100.653 119.55 101.234 118.86 101.67C117.424 102.581 115.659 102.811 114.037 102.298C113.211 102.043 112.452 101.604 111.82 101.014L111.391 100.614C110.213 99.5059 109.542 97.9614 109.537 96.3433V75.5496C109.536 74.836 109.632 74.1258 109.822 73.438C110.012 72.7553 110.29 72.1001 110.649 71.4893C110.735 71.3082 111.373 70.0053 112.257 69.7197V68.6473L104.256 71.9637C104.238 71.9711 104.218 71.9768 104.198 71.9809L97.8641 74.3364C97.8645 74.8142 97.6726 75.2721 97.3316 75.6071C96.6207 76.319 95.4676 76.3197 94.756 75.6091C94.4143 75.2681 94.2221 74.8054 94.2215 74.3226V53.7194C94.2218 53.2376 94.4133 52.776 94.754 52.4353V52.4256C95.4666 51.7153 96.619 51.7153 97.3316 52.4256C97.6686 52.7626 97.8598 53.2185 97.8641 53.6952L104.201 56.0609C104.226 56.0686 104.251 56.0773 104.276 56.0877L114.3 60.2445H117.108C117.676 60.2525 118.221 60.477 118.63 60.8724C118.829 61.0753 118.987 61.3149 119.096 61.578C119.202 61.8377 119.257 62.1155 119.258 62.3961V65.649C119.256 65.9296 119.201 66.2071 119.096 66.4671C118.984 66.7252 118.827 66.9607 118.63 67.1613C118.431 67.3608 118.195 67.5194 117.935 67.6269C117.672 67.7324 117.391 67.7872 117.108 67.7885H116.755V69.8622C117.438 70.1978 117.872 70.8899 117.877 71.6506V77.4711C117.879 78.2109 117.468 78.8899 116.812 79.2309L116.508 79.7064H117.012C117.17 79.7047 117.306 79.8172 117.335 79.9728L118.182 83.9867L123.551 74.8841C123.59 74.8078 123.659 74.7507 123.741 74.7265C123.755 74.7218 123.77 74.7178 123.785 74.7147L131.243 72.6965V69.4241H128.675C124.747 69.4261 121.561 66.2437 121.559 62.3158C121.559 62.3134 121.559 62.3111 121.559 62.3087V49.9749C120.597 49.5741 119.759 48.9223 119.134 48.0877C117.23 45.5242 117.764 41.9027 120.327 39.9987C120.575 39.8146 120.838 39.6503 121.112 39.5079C122.47 38.7966 123.898 38.2295 125.374 37.8149C126.993 37.36 128.667 37.1265 130.349 37.1204C138.881 37.1204 141.201 41.639 141.63 42.7138C142.003 42.7299 142.373 42.784 142.734 42.8754C144.074 43.1956 145.185 44.1296 145.73 45.3952C146.301 46.6047 146.52 48.1348 146.491 49.7898C146.432 51.7072 146.158 53.6119 145.673 55.4679C145.444 56.3713 145.15 57.3228 144.817 58.3025C144.503 59.2167 144.147 60.148 143.781 61.0797C144.102 61.5615 144.274 62.1273 144.275 62.7065C144.275 63.0892 144.198 63.4678 144.046 63.8196C143.903 64.1754 143.69 64.499 143.418 64.7708C142.992 65.2038 142.437 65.4871 141.836 65.5788C140.959 67.4788 140.265 68.8569 140.099 69.1738V72.6679L146.948 73.6937C147.187 73.7266 147.421 73.7938 147.642 73.8933C147.842 73.9863 148.031 74.1016 148.205 74.237C148.315 74.2793 148.422 74.3263 148.527 74.3784C149.109 74.6721 149.619 75.091 150.02 75.6057L162.376 91.7764C163.246 92.9059 163.921 94.1726 164.374 95.5242C164.833 96.8789 165.068 98.2994 165.069 99.7297V122.769C165.063 123.678 164.701 124.549 164.061 125.194C163.418 125.837 162.544 126.197 161.635 126.193H157.563C157.113 126.193 156.667 126.106 156.251 125.936C155.837 125.76 155.459 125.509 155.137 125.194L155.119 125.175C154.813 124.858 154.567 124.487 154.396 124.081C154.226 123.664 154.139 123.219 154.139 122.769V120.6C154.137 120.15 154.224 119.703 154.396 119.287C154.566 118.87 154.818 118.492 155.137 118.174L156.298 117.004V103.049C156.302 101.694 156.08 100.347 155.642 99.0641C155.208 97.7833 154.569 96.5819 153.749 95.5068L151.961 93.166L151.998 93.4042C152.001 93.4186 152.002 93.4334 152.002 93.4482C152.079 93.932 152.834 98.9112 153.197 101.556C153.968 107.279 153.968 113.079 153.197 118.802C153.175 118.941 153.069 119.051 152.931 119.078C152.5 119.164 152.071 119.245 151.642 119.319L148.66 133.955C148.258 135.945 148.073 137.974 148.108 140.004C148.138 142.037 148.393 144.06 148.869 146.036L153.974 167.377C153.982 167.406 153.987 167.436 153.987 167.467V172.736C153.99 173.325 153.757 173.89 153.34 174.306H159.599C159.783 174.301 159.936 174.446 159.941 174.63C159.941 174.633 159.941 174.636 159.941 174.639C159.938 174.825 159.785 174.974 159.599 174.972H159.6ZM12.3794 174.972H6.9181C6.73499 174.97 6.58683 174.822 6.58515 174.639C6.58414 174.456 6.7313 174.307 6.91407 174.306C6.91541 174.306 6.91676 174.306 6.9181 174.306H12.3781C12.5622 174.301 12.7154 174.446 12.7205 174.63C12.7205 174.633 12.7205 174.636 12.7205 174.639C12.7171 174.825 12.5642 174.974 12.3781 174.972H12.3794ZM167.315 174.972H161.853C161.67 174.97 161.522 174.822 161.52 174.639C161.519 174.456 161.666 174.307 161.849 174.306C161.851 174.306 161.852 174.306 161.853 174.306H167.313C167.496 174.305 167.645 174.452 167.646 174.635C167.646 174.636 167.646 174.638 167.646 174.639C167.645 174.822 167.496 174.97 167.313 174.972H167.315ZM4.67242 174.972H1.69599C1.51288 174.97 1.36471 174.822 1.36303 174.639C1.36169 174.457 1.50851 174.308 1.69128 174.306C1.69296 174.306 1.69431 174.306 1.69599 174.306H4.67242C4.85519 174.305 5.00437 174.452 5.00538 174.635C5.00538 174.636 5.00538 174.638 5.00538 174.639C5.0037 174.822 4.85553 174.97 4.67242 174.972ZM139.433 169.348V167.809H129.036L121.854 172.641C121.488 172.898 121.269 173.316 121.265 173.764C121.268 173.906 121.326 174.043 121.426 174.144C121.527 174.246 121.664 174.304 121.807 174.306H134.608C134.521 174.138 134.476 173.952 134.475 173.764C134.475 173.432 134.557 173.105 134.713 172.812C134.869 172.521 135.094 172.272 135.37 172.089L139.433 169.348ZM153.321 167.809H142.925L135.742 172.641C135.561 172.764 135.414 172.931 135.314 173.126C135.207 173.322 135.152 173.541 135.152 173.765C135.151 173.908 135.21 174.046 135.314 174.145C135.414 174.247 135.551 174.306 135.694 174.307H151.751C152.16 174.307 152.553 174.146 152.845 173.86L152.854 173.841C153.153 173.552 153.322 173.153 153.321 172.737L153.321 167.809ZM142.436 167.321L137.302 146.548C136.987 145.272 136.761 143.975 136.627 142.667C136.484 141.363 136.437 140.05 136.484 138.738L136.836 128.037L135.305 133.954C134.138 138.439 134.112 143.144 135.228 147.642L140.086 167.374C140.089 167.385 140.092 167.396 140.093 167.407C140.1 167.438 140.101 167.469 140.099 167.501V168.892L142.436 167.321ZM133.789 119.79C131.135 119.521 128.976 119.158 127.542 118.878L123.965 133.137C122.824 137.655 122.837 142.389 124.004 146.901L129.187 167.133H139.337L134.571 147.805C134.012 145.51 133.734 143.156 133.744 140.794C133.758 138.432 134.065 136.08 134.657 133.793L136.942 124.947C136.979 124.794 137.117 124.687 137.275 124.69C137.458 124.694 137.602 124.845 137.598 125.028C137.598 125.03 137.598 125.031 137.598 125.033L137.149 138.759C137.111 140.041 137.159 141.325 137.292 142.602C137.425 143.877 137.644 145.142 137.948 146.387L143.075 167.133H153.225L148.221 146.197C147.239 142.138 147.168 137.912 148.012 133.822L150.94 119.436C145.262 120.288 139.498 120.407 133.789 119.79ZM76.1855 147.243L53.5183 160.323C53.012 160.617 52.4106 160.699 51.8442 160.552C51.2807 160.397 50.7996 160.028 50.5029 159.524L37.3856 136.8C37.1028 136.3 37.0275 135.709 37.1763 135.154C37.3289 134.588 37.6981 134.107 38.2038 133.812C45.8325 129.713 53.3094 124.909 60.9092 120.704C61.9628 120.099 63.3074 120.461 63.9152 121.513L77.0137 144.191C77.0231 144.21 77.0328 144.22 77.0328 144.239C77.6184 145.279 77.2683 146.596 76.2433 147.207C76.2241 147.215 76.2053 147.234 76.1861 147.243H76.1855ZM53.1854 159.752L75.8817 146.644C76.2325 146.439 76.4889 146.104 76.595 145.712C76.6955 145.324 76.6447 144.913 76.4526 144.561L63.3444 121.865C63.3444 121.855 63.3353 121.846 63.3255 121.827C62.8989 121.116 61.9857 120.872 61.2613 121.275L61.2042 121.304L38.5461 134.393C38.1903 134.594 37.9299 134.93 37.8234 135.325C37.7233 135.712 37.774 136.124 37.9659 136.476L51.0835 159.181C51.2851 159.537 51.6207 159.797 52.0158 159.904C52.4106 160.006 52.8296 159.951 53.1854 159.752ZM39.9922 135.658L61.6134 123.177C61.774 123.088 61.9763 123.143 62.07 123.301L72.0486 140.594C72.1413 140.751 72.0892 140.954 71.9323 141.047C71.93 141.048 71.9273 141.05 71.9249 141.051L50.3134 153.531C50.1559 153.624 49.9526 153.571 49.8599 153.413C49.8589 153.411 49.8575 153.409 49.8565 153.407L39.8689 136.114C39.7845 135.953 39.8383 135.754 39.9922 135.658ZM61.6517 123.929L40.6194 136.067L50.2647 152.789L71.3057 140.642L61.6517 123.929ZM56.2485 141.917L56.4575 133.546C56.4585 133.366 56.6046 133.221 56.7847 133.222C56.7898 133.222 56.7951 133.222 56.8002 133.222C56.8566 133.22 56.9127 133.233 56.9621 133.261L68.5097 139.558C68.6727 139.653 68.7267 139.863 68.631 140.026C68.6014 140.076 68.5598 140.118 68.5097 140.147L51.226 150.126C51.0654 150.215 50.8628 150.16 50.7694 150.002C50.7341 149.938 50.7206 149.865 50.7314 149.793L51.8438 140.501C51.8697 140.32 52.0316 140.191 52.2134 140.206C52.253 140.213 52.2917 140.226 52.3273 140.244L56.2485 141.917ZM57.114 134.107L56.905 142.402C56.9047 142.451 56.8949 142.499 56.8764 142.544C56.8049 142.714 56.6103 142.795 56.4397 142.725L52.4637 141.022L51.4742 149.203L67.6738 139.852L57.114 134.107ZM46.1275 135.001C47.7785 134.066 49.8743 134.634 50.8265 136.276L50.8362 136.295C51.7844 137.95 51.2115 140.06 49.5565 141.008C47.9014 141.956 45.7912 141.384 44.843 139.729L44.834 139.71C43.8986 138.059 44.4671 135.963 46.1083 135.011L46.1275 135.001ZM48.5529 135.315C47.8474 135.127 47.0964 135.223 46.4604 135.581L46.4416 135.591C45.8009 135.959 45.3349 136.569 45.1474 137.284C44.9499 137.989 45.046 138.744 45.4139 139.377L45.4233 139.396C46.1923 140.727 47.8951 141.184 49.2269 140.415C49.8642 140.046 50.3302 139.441 50.5221 138.73C50.7143 138.021 50.6185 137.266 50.2556 136.628L50.2462 136.609C49.88 135.966 49.2692 135.5 48.5529 135.315ZM23.4476 86.904L29.4428 76.5304C29.5305 76.3714 29.7307 76.3136 29.8896 76.4013C29.893 76.4034 29.8964 76.405 29.8997 76.407C30.0576 76.5008 30.1124 76.703 30.0234 76.8636L24.1988 86.943C24.4139 86.9625 24.6215 86.989 24.8201 87.0236C26.0632 87.2437 26.9922 87.7578 27.3695 88.5248L37.4824 85.8158C38.5834 85.5188 39.7577 85.6727 40.7451 86.2435C41.7258 86.8184 42.4428 87.7537 42.7428 88.85L48.7716 111.371C49.3851 113.657 48.0295 116.007 45.7438 116.621C45.7418 116.621 45.7394 116.622 45.7374 116.622L12.321 125.583C10.0346 126.196 7.68413 124.839 7.07131 122.553C7.07097 122.552 7.07064 122.55 7.0703 122.549L1.03948 100.024C0.422964 97.7363 1.77763 95.3821 4.06497 94.7659C4.068 94.7653 4.07068 94.7642 4.07371 94.7636L14.183 92.0549C14.1222 91.2015 14.6664 90.2974 15.6408 89.484C15.7963 89.353 15.9633 89.2243 16.1414 89.0983L6.06203 83.2822C5.89303 83.2052 5.81845 83.0063 5.89538 82.8373C5.97232 82.6683 6.17122 82.5938 6.34022 82.6707C6.35937 82.6794 6.37785 82.6898 6.39498 82.7023L16.7724 88.6901C17.7796 88.1075 18.8615 87.6643 19.988 87.3727H19.9971C21.1206 87.0606 22.2814 86.903 23.4476 86.904ZM164.393 117.48H156.774L155.613 118.64C155.357 118.9 155.154 119.207 155.014 119.544C154.876 119.879 154.805 120.238 154.804 120.6V122.769C154.807 123.131 154.878 123.489 155.014 123.824C155.151 124.15 155.347 124.447 155.594 124.7L155.613 124.719C155.872 124.971 156.175 125.174 156.507 125.318C156.843 125.454 157.201 125.525 157.563 125.527H161.634C161.996 125.526 162.355 125.456 162.691 125.318C163.024 125.177 163.327 124.973 163.584 124.719C163.841 124.463 164.045 124.159 164.184 123.824C164.324 123.49 164.396 123.131 164.393 122.769V117.48ZM14.6194 92.6325L4.24539 95.4124C3.3154 95.6593 2.52384 96.2694 2.04776 97.1057C1.56193 97.9325 1.43157 98.9206 1.68624 99.8453L7.71706 122.379C8.23245 124.309 10.2144 125.455 12.1439 124.94C12.1459 124.939 12.1479 124.939 12.15 124.938L45.5664 115.978C47.4956 115.463 48.6419 113.481 48.1269 111.552C48.1262 111.549 48.1259 111.547 48.1252 111.545L42.0941 89.02C41.8417 88.0931 41.2333 87.3035 40.4014 86.8227C39.5732 86.3413 38.5868 86.2112 37.6618 86.4612L22.8586 90.4258L14.6705 92.6237C14.6537 92.6281 14.6365 92.6311 14.6194 92.6325ZM36.7708 90.5195C37.1498 90.5212 37.5224 90.6203 37.852 90.8074L37.8805 90.8172C38.3936 91.1142 38.7665 91.6037 38.917 92.1772C40.5247 98.1701 42.3796 104.391 43.7968 110.403C44.1187 111.587 43.4205 112.809 42.2368 113.133C32.9531 115.921 23.041 118.279 13.6242 120.8C13.4381 120.851 13.2463 120.878 13.0531 120.879H13.0464C12.663 120.877 12.2864 120.778 11.9517 120.59L11.9329 120.571C11.4199 120.278 11.0459 119.792 10.8958 119.22C9.2881 113.218 7.43517 107.007 6.00659 100.995C5.85775 100.422 5.93973 99.8147 6.23472 99.302C6.52669 98.7923 7.00915 98.419 7.57595 98.2651C16.86 95.4782 26.7718 93.119 36.1795 90.5981C36.3703 90.5457 36.5675 90.5192 36.7654 90.5195H36.7708ZM36.7658 91.1888C36.628 91.1891 36.4909 91.2079 36.3582 91.2449L7.75503 98.9022C6.92885 99.134 6.439 99.983 6.65167 100.814L11.5408 119.049C11.644 119.451 11.9047 119.794 12.2639 120.001L12.2827 120.01C12.5162 120.14 12.7786 120.208 13.0457 120.209H13.0504C13.1868 120.208 13.3222 120.189 13.4536 120.152L42.0571 112.486C42.4539 112.379 42.7922 112.119 42.9978 111.763C43.2035 111.406 43.2616 110.983 43.1598 110.583L38.2703 92.3486C38.1638 91.9461 37.8997 91.603 37.5378 91.3971L37.5284 91.388C37.297 91.2586 37.0362 91.1901 36.7708 91.1888H36.7658ZM151.381 93.7943H126.924C127.067 94.9168 127.191 96.0013 127.286 97.0093C127.4 98.1032 127.476 99.0735 127.514 99.8728C127.809 105.789 126.344 115.996 126.069 117.879C128.076 118.345 140.062 120.903 152.57 118.459C153.298 112.876 153.286 107.222 152.532 101.642C152.217 99.3399 151.552 94.9551 151.381 93.7943ZM146.652 74.6079H146.643C146.151 74.6099 145.663 74.7067 145.207 74.8935C144.295 75.2728 143.57 75.9975 143.191 76.9093C143.006 77.3656 142.909 77.8534 142.906 78.346V78.8977C142.907 79.3186 142.978 79.7363 143.115 80.1341V80.1529C143.25 80.5473 143.45 80.9169 143.705 81.2468L145.37 83.4253L145.376 83.435L154.282 95.0969C156.024 97.3825 156.969 100.175 156.974 103.049V116.804H164.393V99.7297C164.404 97.0019 163.507 94.3483 161.843 92.187L149.487 76.016C149.154 75.5779 148.724 75.2227 148.231 74.9791C148.146 74.9382 148.06 74.9005 147.973 74.8659C147.95 74.8615 147.927 74.8548 147.906 74.8458C147.797 74.8044 147.684 74.7655 147.57 74.7329C147.272 74.6516 146.964 74.6096 146.656 74.6082H146.649L146.652 74.6079ZM11.0654 110.155C11.017 109.979 11.1212 109.796 11.2979 109.748C11.2996 109.747 11.3016 109.747 11.3033 109.746C11.4817 109.7 11.6641 109.806 11.7122 109.984L12.0068 111.087C12.0717 111.261 11.9833 111.455 11.8093 111.519C11.6352 111.584 11.4421 111.496 11.3772 111.322C11.3695 111.301 11.3638 111.28 11.3604 111.258L11.0654 110.155ZM16.7727 98.246C16.9538 98.1986 17.1392 98.3071 17.1863 98.4882C17.2337 98.6693 17.1251 98.8548 16.944 98.9022L10.799 100.548C10.6014 100.598 10.417 100.689 10.2571 100.815C10.0934 100.941 9.95434 101.095 9.84649 101.271C9.74234 101.449 9.67749 101.646 9.65633 101.851C9.62609 102.055 9.63919 102.262 9.69429 102.46L11.3779 108.757C11.4263 108.934 11.3224 109.116 11.1457 109.165C11.144 109.165 11.142 109.166 11.1403 109.166C10.9616 109.213 10.7792 109.106 10.7311 108.928L9.04754 102.631C8.9716 102.349 8.95212 102.055 8.99042 101.766C9.03007 101.475 9.1238 101.194 9.26626 100.938C9.41778 100.685 9.61467 100.463 9.84649 100.281C10.0797 100.106 10.3444 99.977 10.6263 99.9014L16.7727 98.246ZM66.6716 77.3071C66.8395 77.3071 67.0065 77.3296 67.1685 77.3743L88.6281 83.1196C89.1116 83.256 89.5218 83.5772 89.7704 84.0139C90.0268 84.4467 90.0987 84.9641 89.97 85.4503L84.2248 106.91C84.086 107.399 83.7618 107.816 83.321 108.07C82.8819 108.329 82.3564 108.398 81.8655 108.261L60.4059 102.515C59.9204 102.383 59.5088 102.06 59.2636 101.621C59.0116 101.19 58.9397 100.677 59.0637 100.194C59.064 100.187 59.0653 100.18 59.0677 100.173V100.168C59.07 100.161 59.0714 100.154 59.0717 100.147L64.817 78.725C65.0451 77.8911 65.8004 77.3108 66.6648 77.3055L66.6716 77.3071ZM60.6048 101.87L82.0456 107.615C82.3628 107.705 82.7031 107.661 82.9863 107.491C83.2749 107.33 83.4873 107.059 83.576 106.74L89.3128 85.2994C89.4032 84.9785 89.3585 84.6348 89.1895 84.3479C89.0293 84.0596 88.7574 83.8496 88.4379 83.7677L66.9971 78.0224C66.6766 77.9317 66.3329 77.9764 66.0463 78.1457C65.759 78.3121 65.5501 78.5862 65.4657 78.9071L59.7205 100.348C59.6305 100.665 59.6751 101.005 59.8441 101.288C60.0088 101.573 60.2786 101.781 60.5954 101.869L60.6048 101.87ZM79.4807 102.563C79.5086 102.563 79.5362 102.567 79.5631 102.574L81.6078 103.126C81.7825 103.177 81.884 103.359 81.8366 103.535L81.294 105.58C81.2534 105.725 81.122 105.826 80.9715 105.828H80.9695C80.9409 105.829 80.9127 105.825 80.8851 105.818L78.84 105.266C78.6626 105.221 78.5555 105.04 78.6008 104.863C78.6012 104.861 78.6018 104.859 78.6022 104.857L79.1538 102.812C79.1952 102.666 79.3275 102.565 79.4787 102.563H79.4807ZM79.7159 103.316L79.3359 104.705L80.7343 105.074L81.1039 103.686L79.7159 103.316ZM75.4006 101.468C75.4285 101.468 75.4564 101.472 75.4833 101.479L77.5186 102.03C77.696 102.076 77.8032 102.256 77.7578 102.434C77.7575 102.436 77.7568 102.437 77.7565 102.439L77.2142 104.485C77.1709 104.63 77.0392 104.73 76.8883 104.733H76.8863C76.8591 104.733 76.8316 104.73 76.8054 104.722L74.7602 104.171C74.5825 104.125 74.4757 103.944 74.521 103.767C74.5214 103.765 74.522 103.763 74.5224 103.762L75.0646 101.717C75.1093 101.569 75.2447 101.469 75.3983 101.468H75.4006ZM75.6257 102.221L75.2561 103.61L76.6545 103.979L77.0241 102.591L75.6257 102.221ZM71.3141 100.373C71.3407 100.373 71.3672 100.376 71.3927 100.383L73.4382 100.935C73.6156 100.981 73.7227 101.162 73.6771 101.339C73.6767 101.341 73.6764 101.342 73.6757 101.344L73.124 103.389C73.083 103.534 72.952 103.635 72.8015 103.638H72.7991C72.7709 103.638 72.7424 103.634 72.7151 103.627L70.6794 103.075C70.5021 103.03 70.3952 102.849 70.4406 102.672C70.4409 102.67 70.4416 102.668 70.4419 102.666L70.9838 100.621C71.0275 100.476 71.1602 100.375 71.3121 100.373H71.3141ZM71.5453 101.125L71.1757 102.514L72.5646 102.884L72.9453 101.495L71.5453 101.125ZM67.2259 99.2774C67.2552 99.2778 67.284 99.2818 67.3123 99.2889L69.3574 99.8409C69.5341 99.8903 69.6396 100.071 69.5952 100.249L69.0426 102.3C69.0012 102.445 68.8702 102.546 68.7197 102.549H68.7177C68.6891 102.549 68.6609 102.545 68.6333 102.538L66.5882 101.986C66.4115 101.936 66.306 101.755 66.3507 101.577L66.9024 99.5318C66.9397 99.3853 67.0714 99.2825 67.2226 99.2825L67.2259 99.2774ZM116.738 80.3689H110.211V96.3403C110.215 97.7706 110.807 99.136 111.848 100.117L112.275 100.516C112.835 101.039 113.504 101.429 114.235 101.658C115.669 102.109 117.228 101.903 118.497 101.097C119.102 100.714 119.62 100.208 120.018 99.6131L120.565 98.6408L117.72 85.0306C117.71 85.0074 117.703 84.9829 117.698 84.958L116.738 80.3689ZM67.4635 100.034L67.0939 101.423L68.4825 101.794L68.8521 100.405L67.4635 100.034ZM63.1441 98.1862C63.1734 98.1865 63.2022 98.1906 63.2305 98.1979L65.2662 98.7496C65.4439 98.795 65.5507 98.9761 65.5054 99.1535C65.505 99.1551 65.5044 99.1568 65.504 99.1585L64.9618 101.204C64.9181 101.348 64.7867 101.449 64.6359 101.452H64.6338C64.6063 101.452 64.5791 101.449 64.5525 101.441L62.5078 100.89C62.33 100.844 62.2229 100.664 62.2682 100.486C62.2686 100.484 62.2692 100.483 62.2696 100.481L62.8212 98.4355C62.8589 98.289 62.9909 98.1865 63.1421 98.1862H63.1441ZM63.3827 98.9398L63.0023 100.328L64.4007 100.7L64.7703 99.3107L63.3827 98.9398ZM20.749 97.1809C20.9321 97.1379 21.1152 97.2515 21.1579 97.4346C21.1985 97.6076 21.0988 97.783 20.9294 97.8368L18.637 98.4459C18.4543 98.4771 18.2806 98.3542 18.2493 98.1714C18.2218 98.0111 18.3132 97.8542 18.466 97.7988L20.749 97.1809ZM118.381 84.9634L121.063 97.7598C121.378 97.2041 121.831 96.4065 122.33 95.5272C123.196 94.0053 124.156 92.3019 124.783 91.1992L125.601 89.7545L125.696 89.5737C125.607 88.9155 125.513 88.2426 125.417 87.5578C125.349 87.0804 125.28 86.6037 125.211 86.1272C125.091 85.3209 124.97 84.4998 124.849 83.6857L124.84 83.6481C124.355 80.3659 123.888 77.4362 123.66 76.019L118.381 84.9634ZM72.2323 86.4243C72.3083 86.4246 72.3835 86.434 72.4571 86.4525L72.4857 86.4619C72.6466 86.5029 72.7944 86.5849 72.914 86.7001L79.6964 93.3565C79.8171 93.466 79.9027 93.6081 79.9437 93.7657C79.9894 93.9236 79.9928 94.0913 79.9531 94.2509C79.9071 94.4091 79.8221 94.5529 79.7059 94.6695C79.5866 94.7851 79.4387 94.8671 79.2778 94.9074L70.0794 97.2757C70.0001 97.2945 69.9188 97.3039 69.8371 97.3042H69.8335C69.7528 97.3046 69.6729 97.2948 69.5946 97.2757C69.443 97.2357 69.3026 97.1608 69.1854 97.057L69.1662 97.0378C69.0479 96.9212 68.9599 96.7778 68.9095 96.6195C68.8618 96.4579 68.8618 96.2862 68.9095 96.1246L71.3259 87.1073C71.3719 86.949 71.4569 86.8052 71.5732 86.6887C71.7489 86.518 71.9844 86.4226 72.2293 86.4226L72.2323 86.4243ZM72.2431 87.0932C72.1702 87.1009 72.1 87.1258 72.0388 87.1661C72.0076 87.198 71.9847 87.2373 71.9716 87.28L69.5556 96.3074C69.5462 96.3481 69.5462 96.39 69.5556 96.4307C69.568 96.4787 69.5946 96.5218 69.6319 96.5547L69.6416 96.5641C69.6725 96.597 69.7118 96.6202 69.7555 96.6313C69.781 96.6363 69.8069 96.639 69.8328 96.6387H69.8355C69.863 96.6383 69.8902 96.636 69.9175 96.6313L79.1155 94.2626C79.1622 94.2522 79.2049 94.2287 79.2392 94.1954C79.2691 94.1625 79.2919 94.1235 79.3064 94.0815C79.3158 94.0372 79.3158 93.9915 79.3064 93.9471C79.2879 93.9051 79.262 93.8665 79.2301 93.8332L72.448 87.1839C72.4114 87.1463 72.3647 87.1197 72.3136 87.108L72.2945 87.0982C72.278 87.0942 72.2612 87.0922 72.2441 87.0922L72.2431 87.0932ZM126.382 89.5966C126.546 90.8138 126.705 92.0072 126.839 93.13H151.276L151.105 92.0455L144.931 83.9696H125.574C125.802 85.5013 126.04 87.1469 126.279 88.8211C126.298 88.9649 126.318 89.1087 126.337 89.2522C126.352 89.3617 126.368 89.4716 126.384 89.5821L126.382 89.5966ZM26.7012 88.7035C26.386 88.2012 25.6741 87.8599 24.7058 87.6892C23.1902 87.4772 21.6467 87.5908 20.1782 88.0222H20.1688C18.68 88.3904 17.2841 89.064 16.0698 90.0007C15.3206 90.6263 14.8741 91.2902 14.8526 91.8785L26.7012 88.7035ZM84.4032 84.1964C84.4324 84.1964 84.462 84.2001 84.4902 84.2078L86.5259 84.7501C86.7033 84.7954 86.8105 84.9759 86.7651 85.1532C86.7648 85.1553 86.7641 85.1569 86.7638 85.159L86.2215 87.2041C86.1808 87.3512 86.0468 87.453 85.8942 87.4533H85.8922C85.862 87.4533 85.8321 87.4497 85.8029 87.4419L83.7675 86.8902C83.5894 86.8446 83.4826 86.6631 83.5283 86.4854C83.5286 86.4841 83.529 86.4827 83.5293 86.481L84.0716 84.4457C84.1122 84.2975 84.2476 84.1954 84.4012 84.1964H84.4032ZM84.633 84.9402L84.2634 86.3288L85.6617 86.7092L86.0313 85.3112L84.633 84.9402ZM80.3136 83.1024C80.3429 83.1024 80.3718 83.1061 80.4 83.1135L82.4451 83.6561C82.6228 83.7015 82.7297 83.8826 82.6843 84.06C82.684 84.0617 82.6833 84.0633 82.683 84.065L82.1309 86.1101C82.094 86.2559 81.9633 86.3584 81.8128 86.3594H81.8108C81.7809 86.3594 81.7513 86.3557 81.7224 86.348L79.6864 85.7963C79.5086 85.7506 79.4018 85.5699 79.4475 85.3921C79.4478 85.3904 79.4485 85.3888 79.4488 85.3871L79.9908 83.3517C80.0284 83.2052 80.1604 83.1028 80.3116 83.1024H80.3136ZM80.5522 83.8463L80.1809 85.2349L81.5699 85.6152L81.9505 84.2169L80.5522 83.8463ZM76.2332 82.0085C76.2621 82.0088 76.291 82.0125 76.3192 82.0196L78.3643 82.5622C78.541 82.6116 78.6465 82.793 78.6022 82.9711L78.0501 85.0145C78.0129 85.1603 77.8818 85.2628 77.7313 85.2638H77.7293C77.6997 85.2638 77.6702 85.2597 77.6413 85.2524L75.5958 84.7007C75.4181 84.655 75.3113 84.4742 75.3569 84.2965C75.3573 84.2948 75.358 84.2931 75.3583 84.2915L75.91 82.2561C75.9473 82.1096 76.0793 82.0068 76.2305 82.0068L76.2332 82.0085ZM76.4714 82.7523L76.0907 84.1413L77.4891 84.5213L77.8603 83.1229L76.4714 82.7523ZM72.1524 80.9142C72.1813 80.9145 72.2102 80.9186 72.2384 80.9256L74.2741 81.4679C74.4518 81.5136 74.559 81.6947 74.5133 81.8724C74.513 81.8741 74.5126 81.8754 74.512 81.8771L73.9697 83.9226C73.9307 84.0684 73.799 84.1702 73.6478 84.1715H73.6458C73.6169 84.1719 73.5884 84.1678 73.5605 84.1601L71.5157 83.6084C71.338 83.5631 71.2311 83.3823 71.2765 83.2046C71.2768 83.2029 71.2775 83.2009 71.2778 83.1992L71.8295 81.1544C71.8705 81.0113 72.0015 80.9132 72.1504 80.9142H72.1524ZM72.3812 81.6584L72.0116 83.0473L73.4099 83.4277L73.7795 82.0293L72.3812 81.6584ZM145.356 74.1325L140.059 73.3339C139.998 73.7807 139.867 74.2151 139.672 74.6217C139.012 76.017 137.671 76.9661 136.135 77.1244H136.049L135.964 77.1307H135.894L135.824 77.1334H135.581C134.725 77.118 133.892 76.8536 133.184 76.3728C132.951 76.2159 132.734 76.0378 132.535 75.8409C131.932 75.2368 131.516 74.4711 131.338 73.6359C131.319 73.5462 131.303 73.4568 131.289 73.3671L124.222 75.2694C124.383 76.2394 124.897 79.4453 125.477 83.2788H144.416L143.17 81.6426C142.874 81.2546 142.642 80.8205 142.485 80.3582L142.475 80.3393C142.315 79.871 142.235 79.3791 142.238 78.8842V78.3325C142.237 77.7547 142.35 77.1825 142.571 76.6486C143.01 75.5621 143.872 74.7003 144.958 74.2612C145.073 74.2101 145.191 74.1667 145.311 74.1321L145.356 74.1325ZM68.0588 79.8152C68.0891 79.8156 68.1193 79.8206 68.1482 79.8303L70.1936 80.3723C70.3714 80.418 70.4782 80.5994 70.4325 80.7771C70.4322 80.7785 70.4318 80.7802 70.4312 80.7815L69.8795 82.8269C69.8422 82.9727 69.7115 83.0749 69.561 83.0762H69.559C69.5291 83.0762 69.4992 83.0722 69.4703 83.0645L67.4349 82.5128C67.2572 82.4671 67.15 82.286 67.1957 82.1083C67.196 82.1066 67.1964 82.1053 67.197 82.1036L67.7393 80.0581C67.78 79.916 67.909 79.8169 68.0568 79.8145L68.0588 79.8152ZM68.3007 80.5628L67.9311 81.9517L69.3201 82.332L69.7004 80.9337L68.3007 80.5628ZM115.919 70.3373H112.589C111.942 70.3373 111.333 71.6116 111.257 71.7736C111.248 71.7927 111.238 71.8018 111.228 71.8209C110.897 72.3844 110.641 72.9888 110.468 73.6188C110.295 74.2481 110.208 74.8975 110.211 75.55V79.7067H115.709L116.299 78.7935C116.329 78.7361 116.38 78.692 116.441 78.6699C116.671 78.565 116.865 78.3967 117.003 78.1847C117.14 77.972 117.212 77.7244 117.211 77.4714V71.6499C117.21 71.2998 117.07 70.9645 116.822 70.7176C116.677 70.5795 116.506 70.4727 116.318 70.4038H116.299C116.176 70.3618 116.048 70.3393 115.919 70.3373ZM82.989 78.5748C82.7962 78.4925 82.6218 78.3725 82.4753 78.2227H82.4659C80.614 76.3066 79.1478 74.0525 78.1472 71.5831C76.1435 66.619 76.1435 61.071 78.1472 56.1069C79.1501 53.6385 80.616 51.3847 82.4659 49.4673C82.6141 49.3194 82.7881 49.2002 82.9793 49.1155C83.1725 49.0362 83.3791 48.9942 83.5881 48.9915C84.0121 48.9919 84.419 49.1595 84.7203 49.4575L84.7775 49.5247C85.3772 50.1359 85.3728 51.1159 84.7677 51.722C83.2081 53.3391 81.9744 55.2414 81.1341 57.3248C79.4475 61.5114 79.4475 66.1889 81.1341 70.3756C81.9747 72.4559 83.2084 74.3549 84.7677 75.9686H84.7775C85.0644 76.272 85.2243 76.6735 85.2243 77.0911C85.2213 77.506 85.0536 77.9028 84.7583 78.1945C84.7539 78.2082 84.7435 78.2186 84.7297 78.223L84.7106 78.2422C84.5644 78.3873 84.3894 78.5009 84.1972 78.5751C84.0054 78.6598 83.7977 78.7018 83.5881 78.6984C83.3825 78.6961 83.1789 78.6541 82.989 78.5748ZM82.9507 77.7567C83.0364 77.8403 83.1362 77.9079 83.2457 77.9562C83.3579 78.0016 83.4769 78.0275 83.5978 78.0325C83.7191 78.0312 83.8391 78.005 83.9499 77.9562C84.0611 77.9112 84.1616 77.843 84.2446 77.7567L84.2829 77.7281C84.4526 77.5544 84.551 77.3236 84.5587 77.081C84.5591 76.8388 84.4633 76.6063 84.2923 76.4346C82.6705 74.7567 81.3854 72.7839 80.5062 70.6222C78.756 66.2733 78.756 61.4164 80.5062 57.0675C81.3851 54.9058 82.6705 52.9329 84.2923 51.255C84.4583 51.0806 84.5503 50.8488 84.549 50.6079C84.5496 50.368 84.4536 50.1379 84.2829 49.9696C84.2731 49.9602 84.2637 49.941 84.2446 49.9316C84.1589 49.8476 84.0591 49.7794 83.9499 49.73C83.8397 49.68 83.7188 49.6568 83.5978 49.6628C83.4772 49.6605 83.3573 49.6833 83.2457 49.73C83.1348 49.777 83.0347 49.8456 82.9507 49.9316C81.1573 51.7875 79.7368 53.9704 78.7658 56.3616C75.8001 63.6919 77.4414 72.082 82.9507 77.7547V77.7567ZM139.514 60.3338L139.511 60.3301L139.454 60.2629C136.105 56.0491 136.809 50.6462 137.247 48.5917C135.115 49.9632 132.703 50.8404 130.189 51.1596C127.497 51.4536 124.775 51.1317 122.226 50.2189V62.3074C122.233 65.8674 125.117 68.7514 128.677 68.7582H131.578C131.764 68.7561 131.917 68.905 131.92 69.0911V72.7251C131.92 73.2569 132.032 73.7831 132.249 74.2685C132.412 74.6294 132.631 74.9627 132.897 75.2563C132.935 75.2983 132.974 75.3393 133.014 75.379C133.716 76.0835 134.67 76.4806 135.664 76.4826H135.748C136.636 76.4669 137.49 76.1349 138.156 75.5466C138.216 75.4928 138.275 75.4371 138.331 75.3786C138.985 74.7265 139.375 73.8556 139.425 72.9337C139.426 72.9176 139.428 72.9018 139.431 72.886C139.434 72.8326 139.435 72.7788 139.435 72.7247V65.2956C139.434 65.1128 139.581 64.9636 139.764 64.9626C139.765 64.9626 139.767 64.9626 139.768 64.9626H141.331C141.933 64.9515 142.509 64.714 142.944 64.297C143.153 64.0914 143.318 63.8455 143.429 63.574C143.733 62.8352 143.627 61.9909 143.151 61.3492C143.145 61.3428 143.14 61.3357 143.134 61.329L143.1 61.2823C143.072 61.2467 143.042 61.2124 143.011 61.1788C142.987 61.1583 142.964 61.1358 142.944 61.1116C142.735 60.902 142.486 60.737 142.212 60.6265C142.119 60.5868 142.023 60.5542 141.926 60.5284C141.739 60.4803 141.547 60.4558 141.355 60.4555H139.765C139.667 60.4558 139.573 60.4111 139.512 60.3338H139.514ZM97.1892 53.7194C97.1892 53.0864 96.6758 52.5731 96.0428 52.5731C95.4098 52.5731 94.8964 53.0864 94.8964 53.7194V74.3226C94.8934 74.626 95.0137 74.918 95.2297 75.131V75.1408C95.4491 75.3534 95.7421 75.4727 96.0475 75.4737C96.3519 75.4717 96.6432 75.3484 96.8562 75.131C97.0722 74.9177 97.1922 74.626 97.1892 74.3226V53.7194ZM86.5722 74.9697C86.3841 74.8844 86.2131 74.7651 86.0683 74.6176L86.0589 74.6079C84.6851 73.1676 83.5972 71.4793 82.8533 69.633C81.3693 65.9171 81.3693 61.7728 82.8533 58.0569C83.5995 56.2117 84.6871 54.5241 86.0589 53.0817C86.2067 52.9312 86.3807 52.8089 86.5722 52.7206C86.9647 52.559 87.4045 52.5556 87.7996 52.7112C87.9938 52.7955 88.1712 52.9148 88.3227 53.0629C88.3418 53.0817 88.3607 53.1009 88.3798 53.12C88.9631 53.7325 88.9631 54.6951 88.3798 55.3076C85.0469 58.8142 84.0554 63.9382 85.8401 68.435C86.4332 69.8975 87.2946 71.236 88.3798 72.382C88.6661 72.681 88.823 73.0812 88.8166 73.4951C88.8173 73.9091 88.653 74.3062 88.36 74.5985L88.322 74.627L88.3029 74.6462C88.156 74.786 87.9854 74.8988 87.7989 74.9791C87.6017 75.0554 87.392 75.0944 87.1804 75.0934C86.9721 75.0907 86.7661 75.0487 86.5733 74.9697H86.5722ZM86.5437 74.1516C86.6294 74.235 86.7295 74.3025 86.8387 74.3512C86.9495 74.4003 87.0695 74.4261 87.1908 74.4275C87.3117 74.4302 87.4317 74.4073 87.5429 74.3603C87.6551 74.3119 87.7583 74.2444 87.8473 74.1607L87.8758 74.1321L87.8853 74.1227C88.0522 73.9517 88.1477 73.7233 88.1517 73.4844C88.153 73.2462 88.061 73.0167 87.8947 72.846V72.8366C86.7513 71.6341 85.8445 70.2271 85.2216 68.6893C83.9788 65.5811 83.9788 62.1138 85.2216 59.0057C85.8348 57.4599 86.7426 56.0481 87.8947 54.849V54.8392C88.061 54.6686 88.153 54.4391 88.1517 54.2009C88.1446 53.9657 88.0495 53.7416 87.8853 53.5729C87.8661 53.5545 87.8567 53.5447 87.8473 53.5353V53.5259C87.7583 53.4416 87.6551 53.3734 87.5429 53.3243C87.43 53.283 87.3111 53.2605 87.1908 53.2571C86.9475 53.2618 86.7157 53.3609 86.5437 53.533C85.2283 54.9152 84.1888 56.5359 83.4812 58.3079C82.7707 60.0687 82.4095 61.9509 82.4179 63.8498C82.4165 65.7461 82.7784 67.6252 83.4836 69.3858C84.1932 71.1537 85.2317 72.7711 86.5447 74.1516H86.5437ZM103.789 71.4215V56.6203L97.8631 54.4136V73.6285L103.789 71.4215ZM31.3075 56.6774C31.8494 57.6198 31.9932 58.7393 31.7069 59.7882C31.4277 60.8455 30.74 61.7486 29.7949 62.2993C24.3349 65.3903 18.8463 68.8435 13.3484 71.7927C12.4033 72.3273 11.2855 72.4674 10.2379 72.1825C9.18092 71.8969 8.27848 71.2068 7.72647 70.261L2.40927 61.0532C1.30054 59.081 1.97787 56.584 3.93125 55.4423L20.3606 45.9587C22.3335 44.8224 24.8536 45.499 25.9919 47.4706L31.3075 56.6774ZM31.0598 59.6169C31.297 58.7349 31.1774 57.7952 30.7272 57.0009C30.28 56.2685 25.41 47.8119 25.41 47.8025C24.9558 47.0079 24.2019 46.4287 23.3169 46.1952C22.4312 45.9563 21.4868 46.0793 20.6919 46.5375L4.27361 56.0121C2.63034 56.9673 2.06187 59.0672 2.99891 60.7209C3.4461 61.4627 8.30737 69.919 8.30737 69.9284C9.26458 71.5683 11.3584 72.1395 13.0158 71.2128L29.4623 61.7194C30.2525 61.2581 30.8274 60.5018 31.0598 59.6169ZM90.1497 71.3563C89.9596 71.2699 89.7882 71.1473 89.6458 70.9948C85.9141 66.961 85.91 60.7363 89.6364 56.6979C89.7842 56.5474 89.9582 56.4247 90.1497 56.3364C90.3449 56.25 90.5549 56.202 90.7683 56.1939C90.9799 56.1922 91.1899 56.2309 91.3868 56.3081C91.5871 56.3868 91.7685 56.5064 91.9193 56.6599C91.9392 56.6875 91.9617 56.713 91.9865 56.7358C92.256 57.0228 92.4116 57.3984 92.4233 57.7918C92.4307 58.1997 92.2809 58.5948 92.005 58.8952C90.7481 60.2381 90.0537 62.0117 90.0644 63.8512C90.0604 64.7593 90.228 65.6598 90.559 66.5054C90.8949 67.3521 91.3848 68.1292 92.0037 68.7978C92.2835 69.0958 92.4341 69.4926 92.422 69.9012C92.4193 70.3023 92.2631 70.687 91.9852 70.9763L91.9664 70.9954L91.8992 71.0526C91.5961 71.3459 91.1889 71.5068 90.7673 71.4997C90.5543 71.4917 90.3446 71.443 90.1497 71.3563ZM113.911 67.2348V60.8066L104.466 56.8874V71.1463L112.419 67.8537C112.44 67.8416 112.462 67.8322 112.485 67.8255L113.911 67.2348ZM90.772 56.8588C90.6527 56.8686 90.5361 56.8974 90.4259 56.9438C90.3134 56.9912 90.2126 57.0627 90.1309 57.1535C86.6411 60.9322 86.6411 66.7581 90.1309 70.5368C90.2163 70.6232 90.3161 70.6941 90.4259 70.7461C90.5378 70.7935 90.6567 70.8224 90.7777 70.8318C90.901 70.8288 91.0233 70.8063 91.1395 70.7646C91.2528 70.7139 91.3559 70.643 91.4439 70.5556C91.4533 70.5459 91.4725 70.5365 91.4819 70.5173L91.5007 70.4985C91.6643 70.3379 91.7567 70.1189 91.7577 69.8897C91.7648 69.6539 91.6791 69.4251 91.5195 69.2514H91.5101C88.6916 66.197 88.6916 61.4903 91.5101 58.4359C91.6697 58.2622 91.7554 58.0334 91.7483 57.7975C91.7483 57.5637 91.6519 57.3399 91.4819 57.1793C91.4722 57.1625 91.4601 57.1471 91.4456 57.134V57.132C91.3609 57.0402 91.2571 56.9687 91.1412 56.9223C91.025 56.881 90.9027 56.8581 90.7794 56.8551L90.772 56.8588ZM116.08 67.7879H114.326L113.264 68.228L112.932 68.3681V69.6616H115.949V69.6714H116.083L116.08 67.7879ZM140.318 65.6376H140.099V67.6729C140.363 67.1253 140.703 66.4372 141.061 65.646C140.816 65.651 140.567 65.6446 140.318 65.6383V65.6376ZM114.577 67.123H117.108C117.304 67.1236 117.498 67.085 117.679 67.0091C117.856 66.9314 118.017 66.8216 118.154 66.6855C118.295 66.5518 118.405 66.3895 118.478 66.2098C118.547 66.0307 118.583 65.8405 118.582 65.6487V62.3957C118.583 62.2036 118.547 62.0134 118.478 61.8343V61.8249C118.4 61.6475 118.291 61.4862 118.154 61.3488C118.016 61.2154 117.856 61.1093 117.679 61.035C117.498 60.9591 117.304 60.9205 117.108 60.9211H114.577V67.123ZM130.827 62.2338C131.015 62.2345 131.167 62.3873 131.167 62.5758C131.163 64.3558 129.721 65.7982 127.941 65.8016H127.931C126.148 65.8032 124.7 64.3595 124.697 62.5762C124.695 62.39 124.844 62.2372 125.03 62.2338H130.825H130.827ZM130.472 62.9091H125.393C125.468 63.4675 125.726 63.9859 126.125 64.3834C126.602 64.8665 127.254 65.1373 127.933 65.135H127.941C128.617 65.1353 129.265 64.8645 129.74 64.3834C130.14 63.9856 130.397 63.4672 130.472 62.9081V62.9091ZM20.7584 56.4311L16.3924 63.2407C16.3615 63.2827 16.3225 63.3183 16.2781 63.3455C16.1192 63.4379 15.9156 63.3842 15.8232 63.2253C15.8225 63.2243 15.8219 63.2233 15.8215 63.2222L12.0922 56.7631C12.0663 56.716 12.0502 56.6643 12.0448 56.6109C12.0414 56.4261 12.1839 56.2712 12.3683 56.2591L20.4443 55.9167C20.5172 55.9093 20.5908 55.9258 20.6532 55.9641C20.8058 56.0672 20.8518 56.2712 20.7584 56.4301V56.4311ZM16.1259 62.4132L19.8452 56.6109L12.9489 56.9058L16.1259 62.4132ZM143.266 60.4944L143.285 60.5109C143.599 59.7119 143.904 58.8938 144.179 58.0855C144.512 57.1249 144.807 56.1828 145.017 55.3076C145.491 53.5014 145.763 51.6478 145.825 49.7811C145.844 48.2211 145.654 46.7942 145.131 45.6821C144.668 44.5976 143.719 43.7963 142.572 43.5228C142.189 43.4297 141.796 43.3787 141.402 43.3706C141.252 43.377 141.117 43.2839 141.069 43.1421C141.069 43.1233 139.519 37.787 130.349 37.787C128.724 37.7913 127.107 38.0185 125.544 38.4623C124.116 38.8604 122.735 39.4124 121.426 40.1086C120.543 40.5565 119.812 41.2546 119.323 42.1157C117.929 44.565 118.784 47.6812 121.233 49.0759C121.469 49.2099 121.715 49.3252 121.968 49.4202C121.988 49.4246 122.007 49.4313 122.025 49.4401C122.132 49.479 122.238 49.5177 122.347 49.5553C124.83 50.4534 127.485 50.7752 130.11 50.496L130.127 50.492C132.814 50.1439 135.374 49.138 137.58 47.5636C137.612 47.5414 137.648 47.5253 137.685 47.5152C137.865 47.4679 138.049 47.5747 138.096 47.7541C138.112 47.8136 138.111 47.8761 138.094 47.9349C138.094 47.954 136 54.7552 139.929 59.7775H141.357C141.57 59.7781 141.781 59.802 141.989 59.849C142.461 59.9572 142.899 60.1786 143.266 60.4944ZM68.0067 47.1178V47.1369C67.1258 50.41 64.9802 53.1987 62.0424 54.8893L62.0233 54.899C55.8957 58.4208 48.0735 56.3085 44.5517 50.1812C42.8658 47.2478 42.4102 43.7661 43.2844 40.4973V40.4879C44.1627 37.2135 46.3089 34.4235 49.2487 32.7352L49.2672 32.7164C52.2023 31.0254 55.6894 30.5705 58.9602 31.4514H58.9699C65.7799 33.2939 69.8197 40.2941 68.0077 47.1121V47.1158L68.0067 47.1178ZM58.4609 52.3564C58.1763 52.7817 57.8699 53.1919 57.5434 53.586C56.7871 54.56 55.8228 55.353 54.7211 55.907C57.1274 56.0921 59.5337 55.5508 61.6292 54.3534C60.6478 53.5753 59.5851 52.9057 58.4599 52.3564H58.4609ZM49.6089 49.8573C49.6425 50.3314 49.6983 50.786 49.7718 51.2174C50.171 53.5293 51.1131 55.1463 52.5017 55.5263C53.9 55.8959 55.5255 54.9652 57.0293 53.158C57.3088 52.822 57.5823 52.4575 57.8501 52.0647C56.5495 51.4737 55.2029 50.9899 53.8237 50.6183C52.4425 50.2461 51.0321 49.9914 49.6079 49.8573H49.6089ZM48.9369 49.8059C47.6868 49.7149 46.4305 49.7623 45.1908 49.9477C46.4104 52.0295 48.2226 53.7003 50.3964 54.7468C49.7208 53.7181 49.2833 52.5512 49.116 51.332C49.0297 50.8266 48.9695 50.3173 48.9353 49.8059H48.9369ZM61.4326 45.704C60.848 47.8435 59.9708 49.8923 58.8255 51.7916C60.0434 52.3889 61.1881 53.1257 62.2363 53.9869C64.6627 52.4195 66.4485 50.0361 67.2716 47.2673L61.4326 45.704ZM50.3339 42.7309C49.7823 44.8355 49.5259 47.0066 49.5723 49.1817C51.066 49.3164 52.5457 49.5805 53.9941 49.9702C55.4425 50.361 56.8553 50.8727 58.2177 51.4999C59.3452 49.639 60.2087 47.6305 60.7842 45.532L50.3339 42.7309ZM43.8495 40.9939C43.1762 43.8013 43.5307 46.7573 44.8487 49.3262C46.1876 49.1021 47.548 49.0379 48.902 49.135C48.8583 46.9169 49.1224 44.7034 49.6865 42.5579L43.8495 40.9939ZM66.4401 38.2977C65.1009 38.5177 63.7405 38.5816 62.3865 38.4885C62.4295 40.7036 62.1661 42.914 61.604 45.0572L67.441 46.6209C68.1116 43.8161 67.7564 40.8639 66.4404 38.298L66.4401 38.2977ZM53.0681 36.1236C51.9443 37.9832 51.0828 39.9893 50.508 42.0848L60.9569 44.8842C61.5072 42.7813 61.7629 40.6119 61.7159 38.4384C60.2214 38.3041 58.7418 38.0376 57.2941 37.6432C55.844 37.2602 54.4298 36.7518 53.0675 36.1239L53.0681 36.1236ZM49.0485 33.6323C46.6274 35.2013 44.8444 37.581 44.0189 40.3455L49.8602 41.9104C50.4448 39.7743 51.3214 37.7289 52.465 35.8319C51.2448 35.2335 50.0977 34.4954 49.0478 33.6326L49.0485 33.6323ZM60.8924 32.8743C61.5697 33.9037 62.0082 35.0716 62.1755 36.2925C62.2605 36.7975 62.3203 37.3069 62.3546 37.8179C63.6044 37.9005 64.8593 37.8525 66.0991 37.6741C64.8798 35.5914 63.0668 33.9202 60.8917 32.8746L60.8924 32.8743ZM61.6813 37.7638C61.6477 37.2904 61.5922 36.8372 61.519 36.4068C61.1195 34.0855 60.1778 32.4688 58.7794 32.0975C57.3905 31.7279 55.764 32.6589 54.2608 34.4568C53.9803 34.7927 53.7058 35.159 53.437 35.5554C56.0459 36.7367 58.8312 37.4829 61.6813 37.7638ZM56.5683 31.7162C54.1607 31.5307 51.7528 32.0696 49.6542 33.2637C50.6397 34.0408 51.704 34.7121 52.8299 35.2665C53.1142 34.8408 53.4206 34.4306 53.7475 34.0368C54.5034 33.0638 55.467 32.2716 56.5677 31.7179L56.5683 31.7162ZM23.7261 7.07148C22.2814 7.46155 21.1767 8.22221 20.5585 9.28894C19.9309 10.3543 19.7784 11.7433 20.2161 13.3697L21.0057 16.328C21.0541 16.5048 20.9499 16.6875 20.7732 16.7359C20.7715 16.7362 20.7695 16.7369 20.7678 16.7373L17.6194 17.5836L18.5231 20.9702L21.6713 20.1236C21.8527 20.0742 22.0398 20.1804 22.0902 20.3615L24.8486 30.6817C24.897 30.8584 24.7932 31.0409 24.6168 31.0892C24.6148 31.0899 24.6128 31.0903 24.6107 31.0909L11.8358 34.5142C11.3641 34.6395 10.8618 34.5744 10.4375 34.3331C10.0094 34.0912 9.69698 33.6864 9.572 33.211L3.20823 9.47776C2.94986 8.4883 3.53513 7.47499 4.52123 7.20419L28.2447 0.850168C28.7194 0.720144 29.2261 0.785323 29.6524 1.03126C30.0761 1.2782 30.3865 1.68071 30.5179 2.15343L36.8813 25.896C37.008 26.3687 36.9395 26.8727 36.6912 27.2944C36.4426 27.7207 36.0357 28.0318 35.5593 28.1602L28.7678 29.9768C28.5891 30.0235 28.4066 29.917 28.3586 29.739L25.5999 19.418C25.5528 19.2406 25.6583 19.0589 25.8357 19.0115C25.8367 19.0112 25.8377 19.0108 25.8391 19.0108L29.0164 18.1547L28.5407 14.6542L24.9262 15.6245C24.7495 15.6729 24.5667 15.5687 24.5183 15.392C24.518 15.3903 24.5173 15.3883 24.517 15.3866L23.8323 12.8278C23.6246 12.2624 23.628 11.6408 23.8417 11.0774C24.0796 10.564 24.5933 10.1739 25.5253 9.92663L27.3422 9.43173L26.5419 6.44522C26.2564 6.49259 25.8364 6.57961 25.3324 6.68276C24.8567 6.78758 24.305 6.92063 23.7345 7.07316L23.7261 7.07148ZM28.4157 1.49726L4.69224 7.85129C4.39188 7.93528 4.13586 8.13318 3.97896 8.40297C3.81836 8.67545 3.77401 9.00101 3.85499 9.30675L10.2188 33.0396C10.2994 33.3416 10.4983 33.5987 10.7704 33.7529C11.0422 33.9058 11.3631 33.9471 11.6648 33.8675L24.1162 30.5285L21.5291 20.8547L18.3709 21.701C18.1942 21.7494 18.0114 21.6449 17.9634 21.4682C17.9631 21.4665 17.9624 21.4651 17.9621 21.4635L16.8779 17.4317C16.8359 17.254 16.9403 17.0746 17.1154 17.0228L20.2736 16.1762L19.57 13.5411C19.0849 11.7339 19.2657 10.1739 19.9793 8.94692C20.6926 7.72933 21.9279 6.86385 23.5464 6.42708H23.5652C24.1548 6.26547 24.7075 6.13209 25.192 6.0276C25.9338 5.8754 26.5043 5.77091 26.7422 5.74235C26.9088 5.71447 27.0694 5.81727 27.1134 5.98022L28.074 9.58528C28.1224 9.762 28.0179 9.94477 27.8412 9.99282C27.8395 9.99315 27.8378 9.99382 27.8361 9.99416L25.7047 10.5717C24.9817 10.7622 24.6013 11.0286 24.4491 11.3613C24.3063 11.7826 24.3168 12.2405 24.4777 12.6551L25.0767 14.8904L28.7389 13.9107C28.9156 13.8623 29.0981 13.9661 29.1464 14.1428C29.1468 14.1445 29.1475 14.1465 29.1478 14.1482C29.1555 14.1663 29.1585 14.1858 29.1572 14.2053L29.7183 18.3526C29.7418 18.5213 29.6356 18.6806 29.471 18.7239L26.3323 19.5706L28.9193 29.2444L35.3879 27.5131C36.0186 27.3451 36.3962 26.7007 36.2346 26.0684L29.8708 2.33419C29.7062 1.70456 29.0621 1.32793 28.4325 1.49256C28.4268 1.49424 28.4211 1.49558 28.4157 1.49726ZM92.1572 13.0163C92.0658 13.7084 91.8427 14.377 91.5007 14.9855L86.5447 23.5559C86.1933 24.1678 85.7246 24.7043 85.1655 25.135C84.6058 25.5654 83.9654 25.8792 83.282 26.0576C82.6006 26.2421 81.8897 26.2908 81.1895 26.2004C80.49 26.104 79.815 25.8749 79.2015 25.5251L70.6499 20.5899C68.0911 19.0962 67.2128 15.82 68.681 13.2464L73.6273 4.6857C74.7129 2.8022 76.8285 1.76134 78.9828 2.05062C79.6739 2.13932 80.3402 2.36577 80.9423 2.71653L89.5225 7.6628C91.4056 8.74835 92.4465 10.8637 92.1572 13.018V13.0163ZM90.9208 14.6525C91.2195 14.1196 91.416 13.5357 91.5007 12.931C91.578 12.3168 91.536 11.6932 91.3771 11.0948C91.2171 10.4988 90.9423 9.93973 90.5687 9.44853C90.1884 8.96338 89.7207 8.55382 89.1895 8.24069C86.3737 6.5571 83.3868 5.00622 80.6093 3.29441C80.0815 2.98464 79.4952 2.78708 78.8874 2.71418C78.2773 2.6285 77.656 2.66748 77.0614 2.82807C76.464 2.98968 75.9046 3.26753 75.4151 3.64618C74.9225 4.01912 74.511 4.48814 74.2055 5.02537C72.5122 7.84121 70.9523 10.7615 69.2593 13.577C68.635 14.6562 68.467 15.9403 68.7933 17.1438C68.9512 17.7408 69.2257 18.3002 69.6016 18.7901C69.9786 19.2803 70.4463 19.6939 70.9791 20.008C73.7379 21.7296 76.7341 23.2609 79.5402 24.9449C80.0724 25.2546 80.661 25.4552 81.2715 25.5345C82.5096 25.6938 83.7601 25.3588 84.7529 24.6022C85.2455 24.2299 85.657 23.7612 85.9624 23.2247C87.6591 20.4075 89.1989 17.4317 90.9208 14.6525ZM82.7686 9.47843C85.3268 10.9715 86.1902 14.2557 84.6971 16.8139C83.2158 19.3518 79.9679 20.2254 77.4135 18.7723L77.4037 18.7625C74.8375 17.2839 73.9559 14.0044 75.4346 11.4382C76.9132 8.87199 80.1927 7.99038 82.7589 9.46903L82.7686 9.47843ZM84.6138 12.9125C83.9456 10.4098 81.375 8.92273 78.8723 9.59099C77.6718 9.91151 76.6474 10.6953 76.0245 11.7701V11.7796C74.7253 14.0172 75.4863 16.8847 77.7239 18.184C77.7279 18.1863 77.7323 18.1887 77.7363 18.191C78.8175 18.8102 80.0993 18.9779 81.3034 18.657C83.8031 17.9834 85.2848 15.4122 84.6138 12.9118V12.9125ZM88.5616 10.3658C89.3454 10.3658 89.9811 11.0014 89.9811 11.7853C89.9811 12.5691 89.3454 13.2048 88.5616 13.2048C87.7777 13.2048 87.1421 12.5691 87.1421 11.7853C87.1424 11.0014 87.7777 10.3658 88.5616 10.3651V10.3658ZM89.3007 11.4832C89.1337 11.0757 88.6681 10.8805 88.2605 11.0471C87.853 11.2141 87.6578 11.6798 87.8244 12.0873C87.9914 12.4949 88.4571 12.6901 88.8646 12.5234C89.0296 12.4559 89.1673 12.3349 89.2557 12.18C89.3683 11.9643 89.3844 11.7107 89.2997 11.4825L89.3007 11.4832Z" fill="#686868"/>
<path fill-rule="evenodd" clip-rule="evenodd" d="M133.789 119.79C131.135 119.521 128.976 119.158 127.542 118.878L123.965 133.137C122.824 137.655 122.837 142.388 124.004 146.901L129.187 167.133H139.337L134.571 147.804C134.012 145.51 133.734 143.156 133.744 140.794C133.758 138.432 134.065 136.08 134.657 133.793L136.942 124.947C136.979 124.794 137.117 124.687 137.275 124.69C137.458 124.694 137.602 124.845 137.598 125.028C137.598 125.029 137.598 125.031 137.598 125.033L137.149 138.759C137.111 140.041 137.159 141.325 137.292 142.602C137.425 143.877 137.644 145.142 137.948 146.387L143.075 167.133H153.225L148.221 146.197C147.239 142.138 147.168 137.912 148.012 133.822L150.94 119.436C145.262 120.288 139.498 120.407 133.789 119.79ZM146.651 74.6078H146.643C146.15 74.6098 145.662 74.7066 145.206 74.8934C144.294 75.2727 143.57 75.9974 143.19 76.9093C143.005 77.3655 142.908 77.8534 142.905 78.3459V78.8976C142.906 79.3186 142.977 79.7362 143.115 80.134V80.1528C143.25 80.5473 143.449 80.9168 143.704 81.2468L145.369 83.4252L145.375 83.435L154.282 95.0968C156.023 97.3825 156.969 100.175 156.974 103.049V116.804H164.393V99.7296C164.404 97.0018 163.507 94.3483 161.843 92.1869L149.487 76.0159C149.154 75.5778 148.724 75.2227 148.231 74.9791C148.146 74.9381 148.06 74.9005 147.973 74.8659C147.95 74.8615 147.927 74.8548 147.906 74.8457C147.797 74.8044 147.684 74.7654 147.57 74.7328C147.272 74.6515 146.964 74.6095 146.656 74.6082H146.649L146.651 74.6078ZM116.736 80.3722L117.697 84.9573C117.702 84.9822 117.709 85.0067 117.719 85.0299L120.564 98.6434L120.018 99.6157C119.619 100.211 119.101 100.716 118.496 101.099C116.532 102.345 113.974 102.107 112.275 100.519L111.847 100.12C110.806 99.1393 110.214 97.7739 110.211 96.3436V80.3722H116.736ZM118.38 84.9617L121.063 97.7581C121.377 97.2024 121.83 96.4048 122.329 95.5255C123.195 94.0035 124.155 92.3001 124.782 91.1974L125.6 89.7527L125.695 89.572C125.606 88.9138 125.512 88.2408 125.417 87.5561C125.348 87.0787 125.279 86.6019 125.21 86.1255C125.09 85.3192 124.969 84.498 124.849 83.6839L124.839 83.6463C124.354 80.3641 123.888 77.4344 123.66 76.0173L118.38 84.9617ZM116.08 67.7878V69.6713H115.945V69.6615H112.93V68.368L113.262 68.2279L114.324 67.7878H116.08ZM28.4157 1.4972L4.69224 7.85122C4.39187 7.93522 4.13586 8.13311 3.97895 8.4029C3.81836 8.67538 3.77401 9.00094 3.85498 9.30668L10.2188 33.0395C10.2994 33.3416 10.4983 33.5986 10.7704 33.7528C11.0422 33.9057 11.3631 33.947 11.6648 33.8674L24.1162 30.5284L21.5291 20.8546L18.3709 21.7009C18.1942 21.7493 18.0114 21.6448 17.9634 21.4681C17.9631 21.4664 17.9624 21.4651 17.962 21.4634L16.8778 17.4317C16.8358 17.2539 16.9403 17.0745 17.1154 17.0228L20.2736 16.1761L19.57 13.541C19.0849 11.7338 19.2656 10.1738 19.9793 8.94685C20.6925 7.72926 21.9279 6.86378 23.5463 6.42701H23.5652C24.1548 6.26541 24.7075 6.13202 25.192 6.02753C25.9338 5.87534 26.5043 5.77084 26.7422 5.74229C26.9088 5.7144 27.0694 5.81721 27.1134 5.98016L28.074 9.58521C28.1224 9.76194 28.0179 9.94471 27.8412 9.99275C27.8395 9.99309 27.8378 9.99376 27.8361 9.9941L25.7047 10.5716C24.9817 10.7621 24.6013 11.0286 24.4491 11.3612C24.3063 11.7825 24.3167 12.2405 24.4777 12.655L25.0767 14.8903L28.7389 13.9106C28.9156 13.8622 29.0981 13.966 29.1464 14.1428C29.1468 14.1444 29.1474 14.1465 29.1478 14.1481C29.1555 14.1663 29.1585 14.1858 29.1572 14.2053L29.7183 18.3526C29.7418 18.5212 29.6356 18.6805 29.471 18.7238L26.3323 19.5705L28.9193 29.2443L35.3879 27.513C36.0185 27.345 36.3962 26.7006 36.2346 26.0683L29.8708 2.33412C29.7062 1.7045 29.0621 1.32786 28.4325 1.49249C28.4268 1.49417 28.4211 1.49552 28.4157 1.4972Z" fill="#F48850"/>
<path fill-rule="evenodd" clip-rule="evenodd" d="M151.381 93.7943C151.552 94.9558 152.218 99.3403 152.531 101.642C153.285 107.222 153.298 112.877 152.57 118.46C140.062 120.905 128.078 118.346 126.069 117.88C126.345 115.997 127.81 105.79 127.514 99.8738C127.476 99.0745 127.4 98.1042 127.286 97.0103C127.191 96.0023 127.067 94.9181 126.924 93.7953L151.381 93.7943ZM79.7164 103.316L79.3364 104.705L80.7348 105.074L81.1044 103.686L79.7164 103.316ZM75.6262 102.222L75.2567 103.611L76.655 103.98L77.0246 102.592L75.6262 102.222ZM71.5458 101.128L71.1762 102.517L72.5651 102.887L72.9458 101.498L71.5458 101.128ZM67.465 100.034L67.0954 101.423L68.484 101.794L68.8536 100.405L67.465 100.034ZM63.3828 98.9401L63.0025 100.329L64.4008 100.7L64.7704 99.311L63.3828 98.9401ZM72.2433 87.0912C72.1704 87.0989 72.1001 87.1238 72.039 87.1641C72.0077 87.196 71.9849 87.2353 71.9718 87.278L69.5558 96.3054C69.5464 96.346 69.5464 96.388 69.5558 96.4287C69.5682 96.4767 69.5947 96.5197 69.632 96.5527L69.6418 96.5621C69.6727 96.595 69.712 96.6182 69.7557 96.6293C69.7812 96.6343 69.8071 96.637 69.833 96.6367H69.8356C69.8632 96.6363 69.8904 96.634 69.9176 96.6293L79.1157 94.2606C79.1624 94.2502 79.2051 94.2267 79.2393 94.1934C79.2692 94.1605 79.2921 94.1215 79.3065 94.0795C79.316 94.0352 79.316 93.9895 79.3065 93.9451C79.2881 93.9031 79.2622 93.8645 79.2303 93.8312L72.4482 87.1819C72.4116 87.1443 72.3649 87.1177 72.3138 87.1059L72.2947 87.0962C72.2782 87.0922 72.2614 87.0902 72.2443 87.0902L72.2433 87.0912ZM84.6331 84.9382L84.2636 86.3268L85.6619 86.7071L86.0315 85.3091L84.6331 84.9382ZM80.5523 83.8443L80.1811 85.2329L81.57 85.6132L81.9507 84.2149L80.5523 83.8443ZM76.4712 82.7507L76.0906 84.1396L77.4889 84.5196L77.8601 83.1212L76.4712 82.7507ZM72.381 81.6567L72.0114 83.0456L73.4098 83.426L73.7794 82.0276L72.381 81.6567ZM145.356 74.1308L140.059 73.3322C139.997 73.779 139.867 74.2134 139.672 74.62C139.012 76.0153 137.671 76.9644 136.135 77.1227H136.049L135.964 77.1291H135.894L135.824 77.1318H135.581C134.725 77.1163 133.892 76.8519 133.183 76.3711C132.951 76.2142 132.734 76.0361 132.535 75.8392C131.932 75.2352 131.516 74.4695 131.338 73.6342C131.319 73.5445 131.303 73.4551 131.289 73.3654L124.222 75.2677C124.383 76.2377 124.897 79.4436 125.477 83.2771H144.416L143.17 81.6409C142.873 81.2529 142.642 80.8188 142.485 80.3565L142.475 80.3377C142.315 79.8693 142.235 79.3774 142.238 78.8825V78.3309C142.237 77.753 142.35 77.1808 142.571 76.6469C143.01 75.5604 143.872 74.6986 144.958 74.2595C145.073 74.2084 145.191 74.1651 145.311 74.1305L145.356 74.1308ZM68.3009 80.5621L67.9313 81.951L69.3203 82.3314L69.7006 80.933L68.3009 80.5621ZM97.1893 53.7174C97.1893 53.0844 96.676 52.571 96.043 52.571C95.41 52.571 94.8966 53.0844 94.8966 53.7174V74.3206C94.8936 74.624 95.0139 74.916 95.2299 75.129V75.1387C95.4493 75.3514 95.7423 75.4707 96.0477 75.4717C96.3521 75.4697 96.6434 75.3464 96.8564 75.129C97.0724 74.9156 97.1924 74.624 97.1893 74.3206V53.7174ZM113.912 67.2315V60.8066L104.466 56.8874V71.1463L112.42 67.8537C112.44 67.8416 112.462 67.8322 112.485 67.8255L113.912 67.2315ZM130.472 62.9061C130.397 63.4648 130.139 63.9829 129.74 64.3804C129.265 64.8615 128.617 65.1323 127.941 65.1319H127.933C127.254 65.1343 126.603 64.8635 126.125 64.3804C125.726 63.9829 125.469 63.4645 125.393 62.9061H130.472ZM58.4601 52.3564C58.1755 52.7817 57.8691 53.1919 57.5425 53.586C56.7862 54.56 55.822 55.3529 54.7203 55.907C57.1266 56.0921 59.5329 55.5508 61.6284 54.3534C60.6473 53.5756 59.5849 52.906 58.4601 52.3564ZM49.608 49.8573C49.6416 50.3314 49.6974 50.786 49.771 51.2174C50.1701 53.5293 51.1122 55.1463 52.5008 55.5263C53.8992 55.8959 55.5246 54.9652 57.0285 53.158C57.308 52.822 57.5815 52.4575 57.8493 52.0647C56.5487 51.4737 55.2021 50.9899 53.8229 50.6183C52.442 50.2461 51.0319 49.9914 49.608 49.8573ZM48.9361 49.8059C47.6859 49.7149 46.4297 49.7623 45.1899 49.9477C46.4095 52.0294 48.2218 53.7003 50.3956 54.7468C49.7199 53.7181 49.2825 52.5512 49.1152 51.332C49.0292 50.8266 48.9694 50.3173 48.9354 49.8059H48.9361ZM61.4318 45.704C60.8472 47.8435 59.97 49.8923 58.8246 51.7916C60.0425 52.3889 61.1872 53.1257 62.2355 53.9869C64.6619 52.4195 66.4476 50.0361 67.2708 47.2673L61.4318 45.704ZM50.3341 42.7309C49.7824 44.8355 49.5261 47.0066 49.5724 49.1817C51.0662 49.3164 52.5458 49.5805 53.9942 49.9702C55.4427 50.361 56.8554 50.8727 58.2178 51.4999C59.3454 49.639 60.2088 47.6305 60.7844 45.532L50.3341 42.7309ZM43.8497 40.9939C43.1764 43.8013 43.5309 46.7573 44.8489 49.3262C46.1878 49.1021 47.5482 49.0379 48.9022 49.135C48.8585 46.9169 49.1226 44.7034 49.6867 42.5579L43.8497 40.9939ZM66.4402 38.2977C65.101 38.5177 63.7407 38.5816 62.3867 38.4885C62.4297 40.7036 62.1663 42.914 61.6042 45.0572L67.4411 46.6209C68.1117 43.8161 67.7566 40.8639 66.4406 38.298L66.4402 38.2977ZM53.0683 36.1235C51.9444 37.9832 51.083 39.9893 50.5081 42.0848L60.9571 44.8842C61.5074 42.7813 61.7631 40.6119 61.716 38.4384C60.2216 38.304 58.742 38.0376 57.2942 37.6432C55.8441 37.2602 54.43 36.7518 53.0676 36.1239L53.0683 36.1235ZM49.0486 33.6323C46.6276 35.2013 44.8445 37.581 44.019 40.3455L49.8604 41.9104C50.445 39.7743 51.3215 37.7289 52.4652 35.8319C51.2449 35.2335 50.0979 34.4954 49.048 33.6326L49.0486 33.6323ZM60.8926 32.8743C61.5699 33.9037 62.0084 35.0716 62.1757 36.2925C62.2607 36.7975 62.3205 37.3069 62.3547 37.8179C63.6046 37.9005 64.8595 37.8525 66.0992 37.6741C64.88 35.5914 63.067 33.9202 60.8919 32.8746L60.8926 32.8743ZM61.6814 37.7638C61.6478 37.2904 61.5924 36.8372 61.5192 36.4068C61.1197 34.0855 60.1779 32.4688 58.7796 32.0975C57.3907 31.7279 55.7642 32.6589 54.261 34.4568C53.9805 34.7927 53.706 35.159 53.4372 35.5554C56.0461 36.7367 58.8313 37.4829 61.6814 37.7638ZM56.5685 31.7162C54.1609 31.5307 51.7529 32.0696 49.6544 33.2637C50.6398 34.0408 51.7042 34.7121 52.8301 35.2665C53.1143 34.8408 53.4207 34.4305 53.7476 34.0368C54.5036 33.0638 55.4672 32.2716 56.5678 31.7179L56.5685 31.7162Z" fill="white"/>
</svg>
